<?xml version="1.0" standalone="no"?>
<!DOCTYPE svg PUBLIC "-//W3C//DTD SVG 1.1//EN" "http://www.w3.org/Graphics/SVG/1.1/DTD/svg11.dtd" >
<svg>
<metadata>
Created by FontForge 20120731 at Mon Oct 15 02:32:46 2018
 By www
Copyright (c) 2013 by Dieter Hofrichter. All rights reserved.
</metadata>
<defs>
<font id="EquipW03-ExtraLight" horiz-adv-x="391" >
  <font-face 
    font-family="EquipW03-ExtraLight"
    font-weight="200"
    font-stretch="normal"
    units-per-em="1000"
    panose-1="2 0 5 3 0 0 0 2 0 4"
    ascent="750"
    descent="-250"
    x-height="492"
    cap-height="689"
    bbox="-148 -282 1200 982"
    underline-thickness="50"
    underline-position="-100"
    unicode-range="U+0020-FB04"
  />
<missing-glyph horiz-adv-x="218" 
 />
    <glyph glyph-name="uniFB00" unicode="ff" horiz-adv-x="608" 
d="M115 0v444h-78v48h78v46q0 55 9.5 84t28.5 51q21 24 52 35.5t68 11.5q26 0 47 -6.5t35 -16.5v-53h-4q-14 13 -35 19t-43 6q-58 0 -85 -36q-20 -28 -20 -96v-45h119v-48h-119v-444h-53zM419 0v444h-75v48h75v66q0 55 9.5 84t28.5 51q21 24 51.5 35.5t68.5 11.5
q26 0 46.5 -6.5t33.5 -16.5v-53h-4q-14 13 -34 19t-42 6q-31 0 -51 -9.5t-34 -26.5q-20 -28 -20 -96v-65h123v-48h-123v-444h-53z" />
    <glyph glyph-name="uniFB01" unicode="fi" horiz-adv-x="532" 
d="M115 0v444h-78v48h78v66q0 55 9.5 84t28.5 51q21 24 51 35.5t66 11.5q23 0 41.5 -4.5t31.5 -12.5v-53h-4q-14 11 -31.5 15t-37.5 4q-30 0 -49 -9t-33 -27q-20 -28 -20 -96v-65h133v-48h-133v-444h-53zM391 0v492h54v-492h-54zM460 656q0 -20 -12.5 -31t-29.5 -11
q-18 0 -29.5 11t-11.5 31q0 23 12.5 33.5t28.5 10.5q15 0 28.5 -10.5t13.5 -33.5z" />
    <glyph glyph-name="uniFB02" unicode="fl" horiz-adv-x="532" 
d="M115 0v444h-78v48h78v66q0 55 9.5 84t28.5 51q21 24 51.5 35.5t66.5 11.5q23 0 42.5 -5t30.5 -11v-53h-4q-26 18 -69 18q-56 0 -83 -36q-9 -14 -14.5 -37.5t-5.5 -58.5v-65h121v-48h-121v-444h-53zM391 0v728h54v-728h-54z" />
    <glyph glyph-name="uniFB03" unicode="ffi" horiz-adv-x="836" 
d="M115 0v444h-78v48h78v46q0 55 9.5 84t28.5 51q21 24 52 35.5t68 11.5q26 0 47 -6.5t35 -16.5v-53h-4q-14 13 -35 19t-43 6q-58 0 -85 -36q-20 -28 -20 -96v-45h119v-48h-119v-444h-53zM419 0v444h-75v48h75v66q0 55 9.5 84t28.5 51q21 24 51 35.5t66 11.5q23 0 41.5 -4.5
t31.5 -12.5v-53h-4q-14 11 -31.5 15t-37.5 4q-30 0 -49 -9t-33 -27q-20 -28 -20 -96v-65h133v-48h-133v-444h-53zM695 0v492h55v-492h-55zM764 656q0 -20 -12.5 -31t-29.5 -11t-29 11t-12 31q0 23 12.5 33.5t29.5 10.5q15 0 28 -10.5t13 -33.5z" />
    <glyph glyph-name="uniFB04" unicode="ffl" horiz-adv-x="836" 
d="M115 0v444h-78v48h78v46q0 55 9.5 84t28.5 51q21 24 52 35.5t68 11.5q26 0 47 -6.5t35 -16.5v-53h-4q-14 13 -35 19t-43 6q-58 0 -85 -36q-20 -28 -20 -96v-45h119v-48h-119v-444h-53zM419 0v444h-78v48h78v66q0 55 9.5 84t28.5 51q21 24 51.5 35.5t66.5 11.5
q23 0 42.5 -5t30.5 -11v-53h-4q-26 18 -69 18q-56 0 -83 -36q-9 -14 -14.5 -37.5t-5.5 -58.5v-65h121v-48h-121v-444h-53zM695 0v728h54v-728h-54z" />
    <glyph glyph-name="f_b.liga" unicode="fb" horiz-adv-x="943" 
d="M115 0v444h-78v48h78v66q0 55 9.5 84t28.5 51q21 24 51.5 35.5t68.5 11.5q23 0 42 -5t31 -12v-54h-4q-27 20 -69 20q-61 0 -85 -36q-20 -29 -20 -96v-65h123v-48h-123v-444h-53zM391 0v728h53v-337q25 51 80.5 83.5t124.5 32.5q49 0 93.5 -17t78.5 -50t54 -81t20 -109
q0 -63 -21.5 -112.5t-57 -83t-81 -51t-93.5 -17.5q-69 0 -121 28t-78 72v-86h-52zM444 165q11 -30 31 -53.5t46 -40t56 -25t62 -8.5q40 0 76 14t63.5 41t43.5 66.5t16 90.5q0 50 -16.5 88t-44 64t-63 39.5t-72.5 13.5q-31 0 -62 -9t-57.5 -26.5t-47 -43t-31.5 -58.5v-153z
" />
    <glyph glyph-name="f_f_b.liga" unicode="ffb" horiz-adv-x="1248" 
d="M115 0v444h-78v48h78v46q0 55 9.5 84t28.5 51q21 24 52 35.5t68 11.5q26 0 47 -6.5t35 -16.5v-53h-4q-14 13 -35 19t-43 6q-58 0 -85 -36q-20 -28 -20 -96v-45h119v-48h-119v-444h-53zM419 0v444h-78v48h78v66q0 55 9.5 84t28.5 51q21 24 51.5 35.5t66.5 11.5
q23 0 42.5 -5t30.5 -11v-53h-4q-26 18 -69 18q-59 0 -83 -36q-20 -29 -20 -96v-65h121v-48h-121v-444h-53zM695 0v728h54v-337q25 51 80.5 83.5t124.5 32.5q49 0 93.5 -17t78.5 -50t54 -81t20 -109q0 -63 -21.5 -112.5t-57 -83t-81 -51t-93.5 -17.5q-69 0 -121 28t-78 72
v-86h-53zM749 165q11 -30 31 -53.5t46 -40t56 -25t62 -8.5q40 0 76 14t63.5 41t43.5 66.5t16 90.5q0 50 -17 88t-44.5 64t-63 39.5t-72.5 13.5q-31 0 -61.5 -9t-57 -26.5t-47 -43t-31.5 -58.5v-153z" />
    <glyph glyph-name="f_f_h.liga" unicode="ffh" horiz-adv-x="1193" 
d="M115 0v444h-78v48h78v46q0 55 9.5 84t28.5 51q21 24 52 35.5t68 11.5q26 0 47 -6.5t35 -16.5v-53h-4q-14 13 -35 19t-43 6q-58 0 -85 -36q-20 -28 -20 -96v-45h119v-48h-119v-444h-53zM419 0v444h-78v48h78v66q0 55 9.5 84t28.5 51q21 24 51.5 35.5t66.5 11.5
q23 0 42.5 -5t30.5 -11v-53h-4q-26 18 -69 18q-59 0 -83 -36q-20 -29 -20 -96v-65h121v-48h-121v-444h-53zM695 0v728h54v-320q25 41 73 68.5t117 27.5t110 -28.5t53 -77.5q5 -22 7.5 -48t2.5 -62v-288h-54v282q0 39 -4.5 68t-12.5 43q-14 25 -41 42t-75 17q-27 0 -54 -8
t-50.5 -22t-42.5 -33t-29 -40v-349h-54z" />
    <glyph glyph-name="f_f_j.liga" unicode="ffj" horiz-adv-x="837" 
d="M115 0v444h-78v48h78v46q0 55 9.5 84t28.5 51q21 24 52 35.5t68 11.5q26 0 47 -6.5t35 -16.5v-53h-4q-14 13 -35 19t-43 6q-58 0 -85 -36q-20 -28 -20 -96v-45h119v-48h-119v-444h-53zM419 0v444h-75v48h75v66q0 55 9.5 84t28.5 51q21 24 51 35.5t66 11.5q23 0 41.5 -4.5
t31.5 -12.5v-53h-4q-14 11 -31.5 15t-37.5 4q-30 0 -49 -9t-33 -27q-20 -28 -20 -96v-65h133v-48h-133v-444h-53zM548 -137h4q14 -12 31.5 -17t34.5 -5q41 0 58 20q12 14 15.5 36t3.5 60v535h54v-533q0 -50 -5 -78.5t-20 -48.5t-40.5 -31t-54.5 -11q-24 0 -44 4t-37 14v55z
M764 656q0 -20 -12.5 -31t-29.5 -11t-29 11t-12 31q0 23 12.5 33.5t29.5 10.5q15 0 28 -10.5t13 -33.5z" />
    <glyph glyph-name="f_f_k.liga" unicode="ffk" horiz-adv-x="1098" 
d="M695 0v728h54v-460l236 224h78l-189 -174l219 -318h-68l-191 281l-85 -78v-203h-54zM419 0v444h-78v48h78v66q0 55 9.5 84t28.5 51q21 24 51.5 35.5t66.5 11.5q23 0 42.5 -5t30.5 -11v-53h-4q-26 18 -69 18q-56 0 -83 -36q-9 -14 -14.5 -37.5t-5.5 -58.5v-65h121v-48
h-121v-444h-53zM115 0v444h-78v48h78v46q0 55 9.5 84t28.5 51q21 24 52 35.5t68 11.5q26 0 47 -6.5t35 -16.5v-53h-4q-14 13 -35 19t-43 6q-58 0 -85 -36q-20 -28 -20 -96v-45h119v-48h-119v-444h-53z" />
    <glyph glyph-name="f_h.liga" unicode="fh" horiz-adv-x="889" 
d="M115 0v444h-78v48h78v66q0 55 9.5 84t28.5 51q21 24 51.5 35.5t66.5 11.5q23 0 42.5 -5t30.5 -11v-53h-4q-26 18 -69 18q-56 0 -83 -36q-9 -14 -14.5 -37.5t-5.5 -58.5v-65h121v-48h-121v-444h-53zM391 0v728h54v-320q25 41 73 68.5t117 27.5t110 -28.5t53 -77.5
q5 -22 7.5 -48t2.5 -62v-288h-54v282q0 39 -4.5 68t-12.5 43q-13 25 -40.5 42t-75.5 17q-27 0 -54 -8t-50.5 -22t-42.5 -33t-29 -40v-349h-54z" />
    <glyph glyph-name="f_j.liga" unicode="fj" horiz-adv-x="539" 
d="M115 0v444h-78v48h78v66q0 55 9.5 84t28.5 51q21 24 51 35.5t66 11.5q23 0 41.5 -4.5t31.5 -12.5v-53h-4q-14 11 -31.5 15t-37.5 4q-30 0 -49 -9t-33 -27q-20 -28 -20 -96v-65h133v-48h-133v-444h-53zM251 -137h4q14 -12 31.5 -17t34.5 -5q19 0 34.5 5t23.5 15
q11 14 15 36t4 60v535h54v-533q0 -50 -5.5 -78.5t-20.5 -48.5t-40.5 -31t-54.5 -11q-23 0 -43 4t-37 14v55zM466 656q0 -20 -12 -31t-30 -11q-17 0 -29 11t-12 31q0 23 13 33.5t29 10.5q15 0 28 -10.5t13 -33.5z" />
    <glyph glyph-name="f_k.liga" unicode="fk" horiz-adv-x="794" 
d="M391 0v728h54v-460l236 224h78l-189 -174l219 -318h-68l-191 281l-85 -78v-203h-54zM115 0v444h-78v48h78v66q0 55 9.5 84t28.5 51q21 24 51.5 35.5t66.5 11.5q23 0 42.5 -5t30.5 -11v-53h-4q-26 18 -69 18q-56 0 -83 -36q-9 -14 -14.5 -37.5t-5.5 -58.5v-65h121v-48
h-121v-444h-53z" />
    <glyph glyph-name=".notdef" horiz-adv-x="218" 
 />
    <glyph glyph-name=".null" horiz-adv-x="0" 
 />
    <glyph glyph-name="nonmarkingreturn" horiz-adv-x="333" 
 />
    <glyph glyph-name="space" unicode=" " horiz-adv-x="218" 
 />
    <glyph glyph-name="exclam" unicode="!" horiz-adv-x="288" 
d="M141 206q-3 129 -5.5 219.5t-3.5 148.5t-1.5 85.5t-0.5 29.5h67q0 -2 -0.5 -30t-1.5 -86t-3 -148.5t-6 -218.5h-45zM210 36q0 -22 -13.5 -34t-32.5 -12q-20 0 -33 12t-13 34q0 24 14.5 35.5t31.5 11.5t31.5 -11.5t14.5 -35.5z" />
    <glyph glyph-name="quotedbl" unicode="&#x22;" horiz-adv-x="347" 
d="M74 425l-16 279h68l-15 -279h-37zM237 425l-17 279h69l-16 -279h-36z" />
    <glyph glyph-name="numbersign" unicode="#" horiz-adv-x="607" 
d="M138 -14l32 230h-124v53h132l19 137h-127v52h135l31 222h43l-31 -222h149l31 222h43l-31 -222h120v-52h-128l-19 -137h123v-53h-131l-32 -230h-43l32 230h-149l-32 -230h-43zM221 269h149l19 137h-149z" />
    <glyph glyph-name="dollar" unicode="$" horiz-adv-x="554" 
d="M265 -112v104q-29 1 -59 7.5t-57.5 17t-51 24.5t-39.5 31v71h4q32 -41 86.5 -68t116.5 -29v259l-65 22q-69 23 -100 65.5t-31 98.5q0 75 50 122.5t146 54.5v100h38v-99q25 -1 50.5 -6t49 -13t42 -18.5t30.5 -22.5v-67h-5q-29 33 -74.5 51.5t-92.5 21.5v-260l51 -16
q74 -24 112.5 -61t38.5 -104q0 -35 -11 -66t-35 -55.5t-62.5 -40.5t-93.5 -19v-105h-38zM303 293v-246q40 2 67.5 12t44 26t23.5 37t7 45q0 43 -31.5 71.5t-109.5 54.5h-1zM129 494q0 -42 24 -70t88 -48l24 -8v247q-39 -3 -65.5 -13.5t-42 -27t-22 -37t-6.5 -43.5z" />
    <glyph glyph-name="percent" unicode="%" horiz-adv-x="847" 
d="M357 459q0 -100 -44 -157t-118 -57q-75 0 -118 57t-43 157q0 49 12 89t34 68t51.5 43t65.5 15q75 0 117.5 -58t42.5 -157zM309 460q0 82 -30.5 127t-82.5 45t-83 -45t-31 -127q0 -83 31 -128t83 -45t82.5 45t30.5 128zM234 -12l337 694h43l-336 -694h-44zM813 206
q0 -100 -44 -157t-118 -57q-75 0 -118 57t-43 157q0 49 12 89t34 68t51.5 43t65.5 15q75 0 117.5 -58t42.5 -157zM765 207q0 82 -30 127t-82 45q-53 0 -83.5 -45t-30.5 -127q0 -83 30.5 -128t82.5 -45q53 0 83 45t30 128z" />
    <glyph glyph-name="ampersand" unicode="&#x26;" horiz-adv-x="679" 
d="M583 0q-18 15 -37 30.5t-33 29.5q-36 -31 -86 -52.5t-122 -21.5q-58 0 -104.5 15.5t-78.5 43t-49.5 64t-17.5 78.5q0 65 35 114t109 79q-26 35 -38.5 66t-12.5 69q0 33 12.5 62t36.5 51t59 35t81 13q42 0 75.5 -10.5t55.5 -28.5v-64h-4q-20 22 -53.5 35.5t-76.5 13.5
q-63 0 -95 -30.5t-32 -77.5q0 -30 14 -60.5t39 -59.5q24 -28 54 -60t63 -65t67.5 -65.5t66.5 -62.5q9 10 17.5 25t15 34t11 40t4.5 42q0 23 -2.5 46t-8.5 41h57q5 -16 7 -37.5t2 -42.5q0 -63 -19.5 -110.5t-45.5 -76.5q26 -24 54.5 -48.5t59.5 -49.5v-4h-80zM472 96
q-65 60 -129 124t-113 119q-60 -21 -88.5 -58t-28.5 -90q0 -30 12.5 -57.5t37 -48.5t60.5 -33.5t84 -12.5q41 0 84 12.5t81 44.5z" />
    <glyph glyph-name="quotesingle" unicode="'" horiz-adv-x="184" 
d="M74 425l-16 279h68l-15 -279h-37z" />
    <glyph glyph-name="parenleft" unicode="(" horiz-adv-x="342" 
d="M288 -169q-42 29 -85 70.5t-77.5 96.5t-56.5 125.5t-22 158.5t19.5 158.5t52.5 126t76.5 98t92.5 75.5h58v-4q-56 -39 -101 -85t-76.5 -102t-48 -122t-16.5 -144q0 -77 19 -142t51.5 -120.5t76.5 -101.5t95 -84v-4h-58v0z" />
    <glyph glyph-name="parenright" unicode=")" horiz-adv-x="342" 
d="M54 740q42 -29 85 -70.5t77.5 -96.5t56.5 -125.5t22 -158.5q0 -89 -19 -159t-52 -125.5t-76.5 -98t-92.5 -75.5h-59v4q113 77 178 187t65 266q0 76 -19 141.5t-51.5 121t-77 101.5t-95.5 84v4h58v0z" />
    <glyph glyph-name="asterisk" unicode="*" horiz-adv-x="420" 
d="M82 387q23 32 48.5 64t51.5 61q-38 9 -76 19t-75 22l16 48q42 -14 76.5 -26.5t70.5 -29.5q-4 38 -6.5 78t-3.5 78h51q0 -38 -2.5 -78.5t-5.5 -79.5q32 14 71.5 30.5t75.5 27.5l16 -47q-35 -11 -77 -22.5t-78 -20.5q25 -27 51.5 -59.5t49.5 -61.5l-41 -29
q-23 32 -46.5 66.5t-40.5 63.5q-20 -32 -42.5 -66.5t-43.5 -64.5z" />
    <glyph glyph-name="plus" unicode="+" horiz-adv-x="700" 
d="M327 34v238h-237v46h236v235h47v-235h237v-46h-237v-238h-46z" />
    <glyph glyph-name="comma" unicode="," horiz-adv-x="189" 
d="M-2 -157v4q38 29 62.5 78t24.5 109q0 21 -4 42t-13 41h63q9 -17 12.5 -38t3.5 -41q0 -32 -8 -61t-21.5 -54t-30.5 -45t-36 -35h-53z" />
    <glyph glyph-name="hyphen" unicode="-" horiz-adv-x="319" 
d="M40 245v53h239v-53h-239z" />
    <glyph glyph-name="period" unicode="." horiz-adv-x="188" 
d="M150 36q0 -22 -13.5 -34t-32.5 -12q-20 0 -33 12t-13 34q0 24 14.5 35.5t32.5 11.5q17 0 31 -11.5t14 -35.5z" />
    <glyph glyph-name="slash" unicode="/" horiz-adv-x="383" 
d="M-6 -57l341 788h51l-341 -788h-51z" />
    <glyph glyph-name="zero" unicode="0" horiz-adv-x="570" 
d="M530 332q0 -79 -17.5 -143t-49.5 -109t-77.5 -69t-101.5 -24q-57 0 -102 24t-76.5 69t-48.5 109t-17 143t18 143t50.5 109.5t78 70t100.5 24.5q57 0 102.5 -24.5t76.5 -70t47.5 -109.5t16.5 -143zM471 334q0 140 -49.5 216.5t-135.5 76.5t-136.5 -77t-50.5 -216
q0 -69 13 -124t37.5 -93t59 -58t77.5 -20t77 20t58 58t37 93t13 124z" />
    <glyph glyph-name="one" unicode="1" horiz-adv-x="570" 
d="M279 0v612l-141 -81v57l156 92h43v-680h-58z" />
    <glyph glyph-name="two" unicode="2" horiz-adv-x="570" 
d="M50 0v32q68 59 138.5 121.5t130.5 125.5q52 54 74.5 106.5t22.5 95.5q0 27 -8 53.5t-26.5 46.5t-48 32.5t-72.5 12.5q-50 0 -101.5 -24.5t-88.5 -72.5h-4v63q35 40 89.5 63.5t107.5 23.5q103 0 157 -53.5t54 -140.5q0 -34 -8 -64t-21 -57t-30.5 -51.5t-36.5 -46.5
q-14 -16 -43.5 -44.5t-64 -59.5t-69.5 -61t-60 -49q38 0 74.5 0.5t79 0.5h94h119.5v-53h-459z" />
    <glyph glyph-name="three" unicode="3" horiz-adv-x="570" 
d="M75 113h4q35 -38 85.5 -56t97.5 -18q53 0 86 14t51.5 36t25 47.5t6.5 49.5q0 17 -6 35t-18 34.5t-31 29.5t-44 20q-19 5 -46.5 8t-55.5 3h-29v51h29q42 0 71 6t46 16q26 14 45 41.5t19 71.5q0 22 -7 44.5t-23 40t-43.5 28.5t-67.5 11q-18 0 -42 -5.5t-48.5 -16t-47.5 -27
t-39 -38.5h-4v63q15 16 36 30t46 24t51.5 16t52.5 6q96 0 145.5 -45.5t49.5 -129.5q0 -54 -31 -97t-86 -61q29 -5 54 -17.5t43.5 -32.5t29 -47t10.5 -60q0 -96 -61.5 -149t-167.5 -53q-49 0 -100.5 15t-85.5 46v66z" />
    <glyph glyph-name="four" unicode="4" horiz-adv-x="570" 
d="M373 0v180h-339v35l348 464h48v-448h115v-51h-115v-180h-57zM373 231q0 102 1 193.5t3 168.5q-12 -17 -23 -33t-25 -35t-32 -43.5t-44 -59t-62 -81t-84 -110.5h266z" />
    <glyph glyph-name="five" unicode="5" horiz-adv-x="570" 
d="M73 110h4q42 -39 92.5 -55t92.5 -16q93 0 138.5 47t45.5 124q0 73 -43 112.5t-130 39.5q-50 0 -94.5 -19.5t-70.5 -42.5h-4l38 365h328v-53h-282l-25 -234q21 16 57.5 27.5t77.5 11.5q40 0 77.5 -11.5t66.5 -36t46 -62.5t17 -91q0 -60 -19.5 -103t-53 -71.5t-78.5 -42
t-96 -13.5q-21 0 -45 3t-48 9.5t-47.5 18t-44.5 28.5v65z" />
    <glyph glyph-name="six" unicode="6" horiz-adv-x="570" 
d="M120 304q9 25 26.5 48t43 40.5t58.5 28t71 10.5q42 0 79.5 -12.5t66 -38.5t45.5 -66t17 -95q0 -57 -17 -100.5t-46.5 -73t-70 -44.5t-87.5 -15q-41 0 -84 14t-78 50t-57.5 98t-22.5 157q0 103 24 174.5t64 116t92 64t107 19.5q37 0 80 -9.5t71 -33.5v-66h-5
q-30 34 -70 45t-75 11q-62 0 -106 -25t-72 -68.5t-41 -102t-13 -126.5zM130 236q1 -46 14 -85q7 -24 22 -44.5t36 -36t46.5 -24.5t54.5 -9q32 0 62 10t53 31.5t37 55t14 79.5q0 43 -12 74.5t-33.5 51.5t-51 30t-63.5 10q-37 0 -67.5 -12.5t-54 -32.5t-38 -45.5t-19.5 -52.5z
" />
    <glyph glyph-name="seven" unicode="7" horiz-adv-x="570" 
d="M178 0q28 73 62 154.5t69 162t70 156.5t65 139h-386v53h446v-40q-34 -74 -68.5 -152.5t-68.5 -158.5t-66 -159.5t-60 -154.5h-63z" />
    <glyph glyph-name="eight" unicode="8" horiz-adv-x="570" 
d="M372 346q63 -18 101.5 -61t38.5 -108q0 -43 -17 -78t-47 -60t-71.5 -39t-91.5 -14q-47 0 -88.5 12t-72 35t-48.5 58t-18 80q0 62 38 105t104 62q-49 18 -83.5 57.5t-34.5 102.5q0 39 15.5 72.5t43 57.5t65.5 37.5t82 13.5q45 0 82.5 -12t64 -34.5t41.5 -55.5t15 -75
q0 -54 -32 -97.5t-87 -58.5zM287 366q30 3 57 11.5t46.5 24t31 40t11.5 58.5q0 56 -39.5 91.5t-107.5 35.5q-32 0 -59 -10t-46.5 -27t-30.5 -40t-11 -49q0 -33 11.5 -58t32 -41.5t47.5 -25t57 -10.5zM282 317q-34 -3 -64 -14t-52.5 -29t-36 -43t-13.5 -57q0 -34 14.5 -59.5
t38.5 -42t54.5 -25t62.5 -8.5q35 0 66 9t53.5 26.5t35.5 43t13 58.5q0 34 -14.5 59.5t-38.5 42.5t-55 26.5t-64 12.5z" />
    <glyph glyph-name="nine" unicode="9" horiz-adv-x="570" 
d="M68 97h4q31 -32 78 -45t90 -13q63 0 104 25.5t65.5 68.5t34.5 99.5t10 119.5q-9 -21 -26 -42t-41.5 -38t-56.5 -27.5t-71 -10.5q-41 0 -79 12.5t-67 39t-46.5 66.5t-17.5 95q0 54 17.5 97t48 73t71.5 46t88 16q42 0 84.5 -14t76 -50.5t54.5 -101.5t21 -167t-22 -171
t-59 -111t-86 -60t-103 -18q-22 0 -46 3t-47.5 9t-44 15t-34.5 21v63zM441 426q0 18 -2.5 40t-9.5 44q-17 51 -57 84t-96 33q-32 0 -62.5 -10t-54.5 -31.5t-38.5 -54.5t-14.5 -79q0 -42 12.5 -73.5t34 -51.5t50.5 -30t63 -10q37 0 66.5 12t51.5 32t36.5 44.5t20.5 50.5z" />
    <glyph glyph-name="colon" unicode=":" horiz-adv-x="209" 
d="M170 36q0 -22 -13.5 -34t-32.5 -12q-20 0 -33 12t-13 34q0 24 14.5 35.5t32.5 11.5q17 0 31 -11.5t14 -35.5zM170 447q0 -21 -13.5 -33.5t-32.5 -12.5q-20 0 -33 12.5t-13 33.5q0 24 14.5 36t32.5 12q17 0 31 -11.5t14 -36.5z" />
    <glyph glyph-name="semicolon" unicode=";" horiz-adv-x="209" 
d="M170 447q0 -21 -13.5 -33.5t-32.5 -12.5q-20 0 -33 12.5t-13 33.5q0 24 14.5 36t32.5 12q17 0 31 -11.5t14 -36.5zM18 -157v4q38 29 62.5 78t24.5 109q0 21 -4 42t-13 41h63q9 -17 12.5 -38t3.5 -41q0 -32 -8 -61t-21.5 -54t-30.5 -45t-36 -35h-53z" />
    <glyph glyph-name="less" unicode="&#x3c;" horiz-adv-x="700" 
d="M116 268v48l450 221v-55l-396 -189l396 -184v-57z" />
    <glyph glyph-name="equal" unicode="=" horiz-adv-x="700" 
d="M90 176v46h520v-46h-520zM90 361v47h520v-47h-520z" />
    <glyph glyph-name="greater" unicode="&#x3e;" horiz-adv-x="700" 
d="M585 321v-47l-451 -222v56l397 190l-397 183v56z" />
    <glyph glyph-name="question" unicode="?" horiz-adv-x="428" 
d="M148 206q0 26 1 49t7.5 44t20 40.5t37.5 37.5q34 25 57 46t37 40.5t19.5 38t5.5 37.5q0 22 -6.5 42.5t-21.5 36t-40 25t-62 9.5q-45 0 -87 -19.5t-75 -59.5h-4v60q28 32 75.5 52t98.5 20q89 0 135.5 -41.5t46.5 -119.5q0 -25 -6.5 -48t-22.5 -45.5t-42 -46.5t-65 -52
q-21 -15 -33.5 -31t-19 -33t-8.5 -37.5t-3 -44.5h-45zM218 36q0 -22 -13.5 -34t-32.5 -12q-20 0 -33 12t-13 34q0 24 14.5 35.5t31.5 11.5t31.5 -11.5t14.5 -35.5z" />
    <glyph glyph-name="at" unicode="@" horiz-adv-x="858" 
d="M693 -64q-57 -37 -126.5 -54t-145.5 -17q-81 0 -147.5 25t-114 70.5t-73.5 109.5t-26 141q0 87 33 165t90.5 136.5t136 92.5t169.5 34q71 0 129.5 -20.5t100 -58t64.5 -91t23 -119.5q0 -58 -16 -111t-43.5 -94t-64.5 -65.5t-78 -24.5q-26 0 -42 10t-21 36q-1 5 -1 16v19
q-29 -39 -71 -62t-92 -23q-33 0 -60.5 9t-48 28t-32 46.5t-11.5 65.5q0 57 25.5 110.5t70.5 93.5q35 30 74 44t77 14q40 0 72.5 -17.5t45.5 -52.5l16 61h45l-55 -244q-2 -8 -3.5 -19t-3 -22.5t-2.5 -21.5t-1 -16q0 -21 8.5 -27.5t21.5 -6.5q29 0 55 22t46 57t32 78.5
t12 87.5q0 60 -19.5 107.5t-55.5 81.5t-86 52t-111 18q-76 0 -145 -29.5t-121.5 -81.5t-84 -123t-31.5 -154q0 -68 23.5 -124t66 -96t101 -62.5t128.5 -22.5q90 0 156 22.5t117 57.5h4zM575 326q-8 45 -35 70t-74 25q-29 0 -59 -11t-56 -35q-32 -29 -54.5 -74t-22.5 -92
q0 -60 30.5 -86.5t81.5 -26.5q44 0 88.5 28t74.5 82z" />
    <glyph glyph-name="A" unicode="A" horiz-adv-x="628" 
d="M4 0l287 689h52l281 -689h-65l-88 219h-315l-90 -219h-62zM451 272q-35 87 -57.5 144l-37.5 95t-24 62t-16 44q-7 -20 -16 -43.5t-24.5 -62t-39 -95.5t-59.5 -144h274z" />
    <glyph glyph-name="B" unicode="B" horiz-adv-x="593" 
d="M95 689h135q25 0 55 -1t51 -3q78 -7 123.5 -45.5t45.5 -113.5q0 -63 -27 -103t-91 -61q78 -10 119.5 -51t41.5 -113q0 -64 -31 -109.5t-92 -68.5q-30 -11 -75 -15.5t-101 -4.5h-154v689zM264 51q45 0 85 5t60 14q32 15 57 46t25 85q0 42 -24 71.5t-59 41.5
q-21 8 -52 13.5t-76 5.5h-129v-282h113zM266 383q84 0 116 19q26 14 46 42.5t20 76.5q0 43 -24.5 69.5t-62.5 37.5q-36 11 -107 11h-103v-256h115z" />
    <glyph glyph-name="C" unicode="C" horiz-adv-x="674" 
d="M615 55q-16 -15 -39.5 -27.5t-51.5 -21.5t-59.5 -14.5t-62.5 -5.5q-73 0 -137 24t-112 70t-75.5 113t-27.5 152q0 86 29.5 153t79 113t115.5 70t138 24q27 0 56 -4.5t56 -12.5t50 -19.5t38 -25.5v-66h-4q-16 18 -39 31.5t-49.5 23t-54.5 14.5t-55 5q-65 0 -120.5 -21.5
t-95.5 -61t-62.5 -95.5t-22.5 -124q0 -74 22.5 -131.5t62 -97t94.5 -60t120 -20.5q62 0 113.5 20.5t89.5 57.5h4v-63v0z" />
    <glyph glyph-name="D" unicode="D" horiz-adv-x="729" 
d="M95 689h179q63 0 110.5 -6t81.5 -16q47 -14 86 -39.5t66.5 -64t43 -91t15.5 -119.5q0 -120 -50.5 -202.5t-153.5 -120.5q-42 -15 -96 -22.5t-126 -7.5h-156v689zM271 53q71 0 125 12t86 29q68 35 100.5 100.5t32.5 156.5q0 42 -8.5 81.5t-27 73.5t-47.5 61t-71 42
q-29 11 -73 18.5t-101 7.5h-136v-582h120z" />
    <glyph glyph-name="E" unicode="E" horiz-adv-x="551" 
d="M95 0v689h396v-54h-339v-250h319v-53h-319v-279h356v-53h-413z" />
    <glyph glyph-name="F" unicode="F" horiz-adv-x="519" 
d="M95 0v689h384v-54h-327v-270h305v-52h-305v-313h-57z" />
    <glyph glyph-name="G" unicode="G" horiz-adv-x="732" 
d="M649 59q-47 -35 -111 -54t-133 -19q-73 0 -137.5 23.5t-112.5 69t-76 112.5t-28 154q0 88 30 155t80.5 112.5t116.5 69t138 23.5q63 0 120 -17t88 -45v-66h-4q-32 32 -84.5 53t-121.5 21q-67 0 -122.5 -20.5t-95.5 -59.5t-62.5 -95t-22.5 -126q0 -74 22.5 -131.5
t62.5 -97.5t95.5 -60.5t120.5 -20.5q54 0 99.5 12.5t79.5 32.5v208h-180v54h238v-288v0z" />
    <glyph glyph-name="H" unicode="H" horiz-adv-x="701" 
d="M95 0v689h57v-303h397v303h58v-689h-58v332h-397v-332h-57z" />
    <glyph glyph-name="I" unicode="I" horiz-adv-x="247" 
d="M95 0v689h57v-689h-57z" />
    <glyph glyph-name="J" unicode="J" horiz-adv-x="403" 
d="M23 75h4q22 -17 49 -26t54 -9q45 0 70.5 13.5t38.5 39.5q9 18 12.5 50t3.5 75v471h58v-474q0 -48 -3 -82.5t-16 -63.5q-18 -38 -57 -60.5t-102 -22.5q-35 0 -64 8.5t-48 21.5v59z" />
    <glyph glyph-name="K" unicode="K" horiz-adv-x="613" 
d="M271 385l-119 -122v-263h-57v689h57v-354l336 354h79l-257 -264l302 -425h-73z" />
    <glyph glyph-name="L" unicode="L" horiz-adv-x="535" 
d="M95 0v689h57v-635h343v-54h-400z" />
    <glyph glyph-name="M" unicode="M" horiz-adv-x="828" 
d="M95 0v689h70q48 -92 83 -158t60 -112.5t41.5 -78t28 -54.5l20.5 -41t18 -37q9 18 17.5 35.5t20.5 41t28.5 55.5t41.5 79.5t59.5 113t82.5 156.5h68v-689h-59v249t0.5 171t1 112t1.5 73l-18.5 -37t-22 -43.5t-29.5 -57.5t-41.5 -79t-57 -107t-76.5 -143h-39
q-45 86 -77.5 148.5t-56.5 107.5t-40.5 76.5t-28.5 54.5t-22 41.5t-21 38.5q1 -38 2 -83.5t1.5 -114t0.5 -167v-240.5h-57z" />
    <glyph glyph-name="N" unicode="N" horiz-adv-x="703" 
d="M95 0v689h60q80 -114 137 -196t97 -140t66 -96t44 -64.5t30 -46t25 -39.5q-1 43 -1.5 90t-1 113t-0.5 157v222h57v-689h-48q-75 109 -131 191t-97.5 143t-70.5 103.5t-49.5 73.5t-35 53t-26.5 41q1 -49 1.5 -98.5t0.5 -116.5v-160v-230h-57z" />
    <glyph glyph-name="O" unicode="O" horiz-adv-x="809" 
d="M757 344q0 -75 -27 -140.5t-74 -114t-112 -76t-140 -27.5t-139.5 27.5t-112 75.5t-74 113.5t-26.5 141.5q0 75 27.5 141t75 114.5t112 76.5t138.5 28q76 0 141 -27.5t111.5 -75.5t73 -114t26.5 -143zM699 345q0 64 -22 119.5t-61 97t-93 65.5t-118 24q-62 0 -116 -24
t-93.5 -65t-62 -97t-22.5 -120q0 -66 23 -122t63 -96.5t93.5 -63.5t114.5 -23q63 0 117 23t93.5 64t61.5 97t22 121z" />
    <glyph glyph-name="P" unicode="P" horiz-adv-x="589" 
d="M95 0v689h195q54 0 91.5 -5t67.5 -16q51 -18 79.5 -64t28.5 -114q0 -73 -31.5 -122t-98.5 -72q-29 -10 -70.5 -15t-77.5 -5h-127v-276h-57zM282 329q45 0 83 6.5t57 15.5q34 16 54 48.5t20 89.5q0 41 -16.5 75t-54.5 52q-12 6 -28.5 9.5t-35 6t-37.5 3.5t-36 1h-136v-307
h130z" />
    <glyph glyph-name="Q" unicode="Q" horiz-adv-x="809" 
d="M757 344q0 -52 -13 -99.5t-37 -88.5t-58 -74t-76 -55l171 -118l-34 -49l-201 141q-25 -7 -51 -11t-54 -4q-75 0 -139.5 27.5t-112 75.5t-74 113.5t-26.5 141.5q0 75 27.5 141t75 114.5t112 76.5t138.5 28q76 0 141 -27.5t111.5 -75.5t73 -114t26.5 -143zM699 345
q0 64 -22 119.5t-61 97t-93 65.5t-118 24q-62 0 -116 -24t-93.5 -65t-62 -97t-22.5 -120q0 -66 23 -122t63 -96.5t93.5 -63.5t114.5 -23q63 0 117 23t93.5 64t61.5 97t22 121z" />
    <glyph glyph-name="R" unicode="R" horiz-adv-x="603" 
d="M523 0l-194 303q-17 -2 -31.5 -2h-27.5h-118v-301h-57v689h182q106 0 160 -18q51 -17 80 -61.5t29 -111.5q0 -72 -36.5 -116t-93.5 -63q-11 -4 -28 -7l204 -312h-69zM277 352q42 0 76 6t55 14q37 15 57.5 46t20.5 77q0 39 -15 70.5t-47 48.5q-12 6 -28.5 10.5t-35.5 7
t-39.5 4t-38.5 1.5h-130v-285h125z" />
    <glyph glyph-name="S" unicode="S" horiz-adv-x="564" 
d="M42 136h4q43 -44 101.5 -69.5t135.5 -25.5q52 0 87 10.5t56.5 28.5t31 42.5t9.5 53.5q0 47 -36.5 75.5t-118.5 54.5l-113 37q-75 24 -110 67.5t-35 103.5q0 43 17 78.5t48.5 60.5t77 38.5t103.5 13.5q28 0 57.5 -5t56.5 -13.5t48.5 -19.5t34.5 -24v-66h-4
q-38 37 -92 55.5t-108 18.5q-50 0 -84.5 -11t-55.5 -29t-30.5 -42t-9.5 -50q0 -48 30.5 -77.5t99.5 -51.5l122 -39q38 -12 68.5 -27t51.5 -35t32 -46.5t11 -61.5q0 -39 -13.5 -74.5t-43.5 -62t-77.5 -42.5t-114.5 -16q-69 0 -132.5 21t-104.5 58v71z" />
    <glyph glyph-name="T" unicode="T" horiz-adv-x="564" 
d="M249 0v635h-228v54h522v-54h-236v-635h-58z" />
    <glyph glyph-name="U" unicode="U" horiz-adv-x="716" 
d="M629 297q0 -69 -7.5 -113t-27.5 -79q-14 -23 -35 -44.5t-50.5 -38t-67 -26.5t-82.5 -10q-88 0 -151.5 31.5t-92.5 93.5q-16 34 -21.5 78.5t-5.5 104.5v395h57v-383q0 -52 5.5 -97t24.5 -81q17 -35 63 -61.5t121 -26.5q69 0 112 25t67 61q35 52 35 178v385h56v-392z" />
    <glyph glyph-name="V" unicode="V" horiz-adv-x="617" 
d="M282 0l-279 689h65q42 -103 74 -180.5t55.5 -135.5t40 -100.5t29.5 -75.5t23 -60l20 -54q10 27 20 53.5t22 59t28.5 74.5t39.5 100t54.5 136t73.5 183h66l-280 -689h-52z" />
    <glyph glyph-name="W" unicode="W" horiz-adv-x="920" 
d="M210 0l-197 689h64q30 -105 52 -183t38 -135.5t27 -98t19 -71.5t14.5 -55.5t12.5 -50.5q7 25 14.5 50t17.5 56t23 71.5t32.5 98t45.5 135.5l61 183h52q34 -107 59 -186t43 -136t30.5 -97.5t22 -70.5t16.5 -54.5t15 -49.5q6 25 12.5 49t15 54.5t19.5 70.5t28 98t40 136.5
t54 185.5h65l-210 -689h-52q-33 103 -57 180t-42 133.5t-31 97.5t-23 73.5t-18 59.5t-16 56q-9 -28 -17 -54.5t-18.5 -59t-24 -73.5t-32.5 -98.5t-44 -134.5t-59 -180h-52z" />
    <glyph glyph-name="X" unicode="X" horiz-adv-x="641" 
d="M14 0l267 364l-239 325h73q52 -70 86 -116.5t57 -78t38 -52t28 -38.5q12 18 26 37.5t36 51t55.5 78t84.5 118.5h70l-236 -328l267 -361h-73l-100 135t-66 89t-42 57t-28 39q-13 -18 -28.5 -40t-41 -57t-64.5 -88.5t-98 -134.5h-72z" />
    <glyph glyph-name="Y" unicode="Y" horiz-adv-x="600" 
d="M267 0v278l-264 411h71q61 -96 99.5 -156t62.5 -97.5t37 -59.5t25 -42q8 14 16.5 27.5t19.5 31t26.5 42t38 59t53.5 82.5t74 113h71l-272 -411v-278h-58z" />
    <glyph glyph-name="Z" unicode="Z" horiz-adv-x="606" 
d="M21 0v33q96 123 165.5 211.5t118.5 151t81 102.5t52.5 66t33 41.5t23.5 29.5h-440v54h520v-38q-95 -121 -162.5 -207.5t-114.5 -147t-77.5 -99.5t-51.5 -65t-35 -44t-28 -35h471v-53h-556z" />
    <glyph glyph-name="bracketleft" unicode="[" horiz-adv-x="286" 
d="M85 -163v899h184v-43h-131v-813h131v-43h-184z" />
    <glyph glyph-name="backslash" unicode="\" horiz-adv-x="383" 
d="M335 -57l-341 788h51l341 -788h-51z" />
    <glyph glyph-name="bracketright" unicode="]" horiz-adv-x="281" 
d="M196 736v-899h-184v43h131v814h-131v42h184z" />
    <glyph glyph-name="asciicircum" unicode="^" horiz-adv-x="705" 
d="M513 282l-162 338l-159 -338h-55l187 394h57l187 -394h-55z" />
    <glyph glyph-name="underscore" unicode="_" horiz-adv-x="524" 
d="M524 -79v-42h-524v42h524z" />
    <glyph glyph-name="grave" unicode="`" horiz-adv-x="210" 
d="M158 579l-160 161v4h85l130 -161v-4h-55z" />
    <glyph glyph-name="a" unicode="a" horiz-adv-x="536" 
d="M529 4q-21 -11 -52 -11q-33 0 -56.5 16t-28.5 54q-27 -37 -70.5 -56.5t-97.5 -19.5q-41 0 -74 11t-57 30.5t-37 47t-13 60.5q0 47 24 77.5t63 47.5q35 15 78 20t92 5q6 0 17.5 -0.5t24.5 -1.5t24.5 -2.5t18.5 -2.5v42q0 23 -4 45.5t-15 39.5q-17 27 -46 37.5t-66 10.5
q-18 0 -41.5 -4.5t-47 -13.5t-45.5 -22.5t-38 -31.5h-4v58q34 32 84 49.5t100 17.5q42 0 80.5 -11.5t63.5 -43.5q17 -22 25.5 -51t8.5 -82v-37.5t-0.5 -49.5t-0.5 -50.5v-40.5q0 -56 8 -74q5 -10 14 -16.5t27 -6.5q11 0 22 2.5t19 6.5v-49zM386 114q-1 16 -1 45.5v72.5
q-9 2 -22 3.5t-25.5 2.5t-24 1.5t-18.5 0.5q-41 0 -73 -3.5t-57 -13.5q-27 -10 -46.5 -29t-19.5 -57q0 -41 33 -70t101 -29q51 0 90.5 20.5t62.5 55.5z" />
    <glyph glyph-name="b" unicode="b" horiz-adv-x="639" 
d="M86 0v728h54v-337q25 51 80.5 83.5t124.5 32.5q49 0 93.5 -17t78.5 -50t54 -81t20 -109q0 -63 -21.5 -112.5t-57 -83t-81 -51t-93.5 -17.5q-69 0 -121 28t-78 72v-86h-53zM140 165q11 -30 31 -53.5t46 -40t56 -25t62 -8.5q40 0 76 14t63.5 41t43.5 66.5t16 90.5
q0 50 -17 88t-44.5 64t-63 39.5t-72.5 13.5q-31 0 -61.5 -9t-57 -26.5t-47 -43t-31.5 -58.5v-153z" />
    <glyph glyph-name="c" unicode="c" horiz-adv-x="510" 
d="M477 45q-31 -27 -76 -42.5t-96 -15.5q-53 0 -99.5 18t-81.5 52t-55.5 81t-20.5 106t20.5 107.5t56.5 83t84.5 53.5t105.5 19q48 0 92 -15.5t67 -40.5v-65h-4q-12 16 -30.5 29t-40 22t-44 13.5t-43.5 4.5q-39 0 -76.5 -13t-67 -39.5t-47 -65.5t-17.5 -90q0 -56 19 -95.5
t49 -64.5t66.5 -37t71.5 -12q51 0 92.5 18t70.5 50h4v-61v0z" />
    <glyph glyph-name="d" unicode="d" horiz-adv-x="639" 
d="M500 0v101q-23 -50 -74 -82t-125 -32q-48 0 -94 17t-81 49.5t-56.5 80t-21.5 109.5q0 65 22.5 114.5t59 82.5t83 50t94.5 17q63 0 113.5 -24.5t79.5 -72.5v318h53v-728h-53zM499 328q-11 32 -31.5 56t-46 39.5t-54.5 23.5t-58 8q-37 0 -73.5 -12t-66 -38t-47.5 -66
t-18 -96q0 -53 17.5 -91t46.5 -63.5t65 -37.5t74 -12q30 0 59.5 8.5t55 25.5t45.5 42.5t32 59.5v153z" />
    <glyph glyph-name="e" unicode="e" horiz-adv-x="554" 
d="M498 48q-15 -14 -36.5 -25t-46.5 -19t-52 -12.5t-52 -4.5q-61 0 -109.5 19t-82.5 52.5t-52.5 81t-18.5 104.5q0 64 21 113t55.5 82.5t79 50.5t90.5 17q104 0 160.5 -60.5t57.5 -168.5q0 -11 -0.5 -23.5t-2.5 -26.5h-404q2 -40 16.5 -74.5t41.5 -60t65 -40.5t87 -15
q48 0 96 16t83 51h4v-57zM456 287q0 75 -40.5 122.5t-128.5 47.5q-28 0 -59 -10.5t-57 -32.5t-44.5 -56t-21.5 -81h351v10z" />
    <glyph glyph-name="f" unicode="f" horiz-adv-x="304" 
d="M115 0v444h-78v48h78v66q0 55 9.5 84t28.5 51q21 24 51.5 35.5t68.5 11.5q26 0 46.5 -6t33.5 -15v-53h-4q-14 12 -34 17.5t-42 5.5q-31 0 -51 -9.5t-34 -26.5q-20 -28 -20 -96v-65h123v-48h-123v-444h-53z" />
    <glyph glyph-name="g" unicode="g" horiz-adv-x="627" 
d="M104 -85h4q32 -34 84 -52.5t107 -18.5q35 0 61.5 6t46 15.5t32.5 22t22 25.5q14 21 20.5 54.5t6.5 77.5v62q-22 -47 -70.5 -79t-121.5 -32q-50 0 -95 16t-78.5 47.5t-53.5 77.5t-20 106q0 68 23 117.5t60 82t83 48.5t91 16q64 0 112 -25.5t71 -71.5v82h53v-446
q0 -58 -8.5 -94.5t-22.5 -60.5q-26 -45 -79 -72t-137 -27q-64 0 -114.5 18.5t-76.5 42.5v62zM488 332q-22 61 -71.5 92t-110.5 31q-38 0 -74 -13t-64.5 -39t-46 -65.5t-17.5 -93.5q0 -50 16.5 -87t44 -61t63.5 -36t75 -12q63 0 113 34t72 96v154z" />
    <glyph glyph-name="h" unicode="h" horiz-adv-x="584" 
d="M86 0v728h54v-320q25 41 73 68.5t117 27.5t110 -28.5t53 -77.5q6 -22 8 -48t2 -62v-288h-54v282q0 39 -4.5 68t-12.5 43q-13 25 -40.5 42t-75.5 17q-27 0 -54 -8t-50.5 -22t-42.5 -33t-29 -40v-349h-54z" />
    <glyph glyph-name="i" unicode="i" horiz-adv-x="228" 
d="M87 0v492h54v-492h-54zM156 656q0 -20 -12.5 -31t-29.5 -11q-18 0 -30 11t-12 31q0 23 13 33.5t29 10.5q15 0 28.5 -10.5t13.5 -33.5z" />
    <glyph glyph-name="j" unicode="j" horiz-adv-x="228" 
d="M-60 -137h4q14 -12 31.5 -17t34.5 -5q19 0 34.5 5t23.5 15q11 14 15 36t4 60v535h54v-533q0 -50 -5.5 -78.5t-20.5 -48.5t-40.5 -31t-54.5 -11q-23 0 -43 4t-37 14v55zM156 656q0 -20 -12.5 -31t-29.5 -11q-18 0 -30 11t-12 31q0 23 13 33.5t29 10.5q15 0 28.5 -10.5
t13.5 -33.5z" />
    <glyph glyph-name="k" unicode="k" horiz-adv-x="490" 
d="M87 0v728h54v-470l236 234h77l-189 -181l219 -311h-67l-192 273l-84 -80v-193h-54z" />
    <glyph glyph-name="l" unicode="l" horiz-adv-x="227" 
d="M86 0v728h54v-728h-54z" />
    <glyph glyph-name="m" unicode="m" horiz-adv-x="921" 
d="M86 0v492h54v-84q24 40 71 68t114 28q66 0 104 -26t50 -73q12 19 30.5 37t43 31.5t54.5 22t66 8.5q68 0 106.5 -28.5t50.5 -77.5q6 -22 8 -48t2 -62v-288h-54v282q0 39 -5 68.5t-12 43.5q-12 24 -37 41t-73 17q-28 0 -54 -8t-48.5 -22t-40 -32.5t-27.5 -39.5q2 -11 2 -30
v-33v-287h-54v282q0 39 -4.5 68t-11.5 43q-12 25 -37.5 42t-73.5 17q-28 0 -54 -8t-48.5 -22t-40 -32.5t-27.5 -39.5v-350h-54z" />
    <glyph glyph-name="n" unicode="n" horiz-adv-x="584" 
d="M86 0v492h54v-84q24 40 72.5 68t117.5 28t110 -28.5t53 -77.5q6 -22 8 -48t2 -62v-288h-54v282q0 39 -4.5 68t-12.5 43q-13 25 -40.5 42t-75.5 17q-27 0 -54 -8t-50.5 -22t-42.5 -33t-29 -40v-349h-54z" />
    <glyph glyph-name="o" unicode="o" horiz-adv-x="612" 
d="M563 247q0 -55 -19.5 -102.5t-54 -82.5t-82 -55t-102.5 -20t-102 20t-81.5 55t-54 82.5t-19.5 102.5q0 54 20.5 101.5t55.5 83t82.5 55.5t101.5 20q55 0 102 -19.5t81 -54t53 -82.5t19 -104zM507 247q0 43 -15 81t-42 66.5t-64 44.5t-80 16t-80 -16t-64 -44.5
t-42.5 -66.5t-15.5 -81q0 -45 15.5 -83t42.5 -65.5t64 -43.5t80 -16q44 0 81 16t63.5 44.5t41.5 66t15 81.5z" />
    <glyph glyph-name="p" unicode="p" horiz-adv-x="639" 
d="M86 -194v686h54v-102q12 25 33 46.5t48.5 37.5t59.5 24.5t65 8.5q46 0 90 -16t78.5 -48.5t55.5 -80t21 -110.5q0 -65 -21.5 -113.5t-56.5 -81t-81 -49t-95 -16.5q-30 0 -59.5 6.5t-55.5 19t-47 30.5t-35 42v-284h-54zM140 172q12 -33 33.5 -57.5t48 -40t56.5 -23t60 -7.5
q38 0 73.5 12.5t62.5 38.5t43.5 64.5t16.5 91.5q0 54 -18.5 93t-47 63.5t-63.5 36t-67 11.5q-29 0 -59 -8.5t-57 -25t-48.5 -42.5t-33.5 -60v-147z" />
    <glyph glyph-name="q" unicode="q" horiz-adv-x="637" 
d="M497 -194v301q-11 -26 -31 -47.5t-46.5 -36.5t-57 -23t-63.5 -8q-49 0 -94 15.5t-80 46.5t-56 78.5t-21 111.5q0 65 22.5 114.5t59 82.5t82.5 49.5t93 16.5q61 0 113 -24.5t81 -72.5v82h51v-686h-53zM496 329q-11 33 -31 57t-45.5 39t-54.5 22.5t-59 7.5
q-34 0 -69.5 -11.5t-65 -37t-48.5 -65.5t-19 -97q0 -54 17 -91.5t44.5 -61.5t63.5 -35t75 -11q30 0 59.5 8.5t55 25t46 42t31.5 59.5v149z" />
    <glyph glyph-name="r" unicode="r" horiz-adv-x="352" 
d="M86 0v492h53v-81q4 15 16 32t30 31t41 23t50 9q18 0 33.5 -3.5t26.5 -11.5v-61h-4q-11 9 -26 13.5t-32 4.5q-50 0 -83.5 -27.5t-50.5 -75.5v-345h-54z" />
    <glyph glyph-name="s" unicode="s" horiz-adv-x="445" 
d="M49 110h4q15 -18 35.5 -31.5t44 -22.5t48.5 -13.5t49 -4.5q39 0 64 7t39.5 19t20.5 28t6 33q0 16 -5 28.5t-17 23t-32.5 19.5t-50.5 18l-91 26q-57 17 -82 50t-25 78q0 64 50 101.5t138 37.5q21 0 43 -3.5t42.5 -9.5t37 -14t25.5 -17v-61h-4q-13 13 -30.5 23t-37 17
t-40.5 10.5t-40 3.5q-69 0 -98.5 -24.5t-29.5 -59.5t21.5 -54.5t63.5 -31.5l96 -28q60 -17 91.5 -46.5t31.5 -81.5q0 -29 -10.5 -55t-33.5 -46t-58.5 -31.5t-86.5 -11.5q-24 0 -50 4t-50 11.5t-44.5 18.5t-34.5 25v65z" />
    <glyph glyph-name="t" unicode="t" horiz-adv-x="312" 
d="M311 12q-17 -13 -42.5 -18.5t-45.5 -5.5q-32 0 -58 12t-40 33q-13 20 -17.5 48t-4.5 71v293h-78v47h79v21q0 14 0.5 43t1.5 80h50v-144h132v-47h-132v-292q0 -32 4 -51.5t9 -29.5q6 -15 23.5 -23.5t40.5 -8.5q19 0 39 5.5t35 17.5h4v-51v0z" />
    <glyph glyph-name="u" unicode="u" horiz-adv-x="584" 
d="M446 0v79q-25 -38 -71 -64.5t-115 -26.5q-71 0 -113.5 28.5t-55.5 77.5q-11 44 -11 114v284h54v-278q0 -39 5 -69.5t13 -45.5q12 -24 41 -41.5t79 -17.5q56 0 102 29t69 68v355h54v-492h-51z" />
    <glyph glyph-name="v" unicode="v" horiz-adv-x="479" 
d="M215 0l-211 492h62q28 -68 49.5 -119t38 -90t28.5 -68t21.5 -52.5t17.5 -44t17 -42.5q12 31 25 62t32 75.5t47.5 110.5t72.5 168h60l-216 -492h-44z" />
    <glyph glyph-name="w" unicode="w" horiz-adv-x="741" 
d="M179 0l-164 492h61q36 -108 58 -177t35.5 -112.5t21 -69.5t13.5 -49q7 23 15.5 48t23.5 68.5t40.5 112.5t66.5 179h44q42 -114 68 -184t41.5 -112.5t23.5 -66.5t15 -46q6 22 12.5 46.5t19.5 68t35 113.5t57 181h59l-163 -492h-43q-29 80 -50.5 138.5t-36.5 100.5l-25 70
t-17 47.5t-11.5 33t-8.5 27.5q-4 -14 -8.5 -27.5t-11 -33.5t-16.5 -48l-25 -70t-36 -100t-50 -138h-44z" />
    <glyph glyph-name="x" unicode="x" horiz-adv-x="485" 
d="M11 0l191 256l-178 236h69q36 -47 60 -79.5t41.5 -55.5t29 -39t21.5 -30q8 12 18.5 27t27 38t41 56.5t60.5 82.5h69l-182 -236l195 -256h-70q-40 53 -67 89t-46 60.5t-31 41t-22 30.5q-11 -15 -23 -31t-30 -40.5t-44 -60t-65 -89.5h-65z" />
    <glyph glyph-name="y" unicode="y" horiz-adv-x="482" 
d="M12 -140h4q11 -9 30 -14.5t40 -5.5q31 0 48.5 13.5t28.5 30.5q9 14 18.5 35t17.5 42l18 46l-210 485h62q44 -102 73 -169t48 -113t32 -78.5t25 -65.5q12 32 24.5 64.5t31.5 79.5t46.5 114t68.5 168h60l-210 -501q-13 -30 -22.5 -52t-17 -38.5t-14 -28t-12.5 -21.5
q-21 -33 -50.5 -48t-64.5 -15q-21 0 -40.5 4t-34.5 14v54z" />
    <glyph glyph-name="z" unicode="z" horiz-adv-x="471" 
d="M22 0v34q61 76 107 132t79.5 97t57 69t40 48t29 34.5t23.5 28.5h-309v49h380v-37q-58 -72 -102 -125.5t-76.5 -94t-56.5 -69t-41.5 -49.5t-31.5 -37t-27 -31h337v-49h-409z" />
    <glyph glyph-name="braceleft" unicode="{" horiz-adv-x="339" 
d="M291 -169q-33 0 -61 5.5t-48.5 22t-32.5 47.5t-12 83v119q0 46 -6 75.5t-18 47t-31 25.5t-45 11v39q29 4 48.5 13t31 26.5t16 46t4.5 72.5v119q0 51 12 82t32.5 48t48.5 23t61 6h31v-42h-40q-19 0 -35.5 -5t-29 -18.5t-20 -36.5t-7.5 -58v-115q0 -53 -5 -85t-16 -50.5
t-28 -27.5t-41 -17q24 -5 41 -15t28 -30t16 -53t5 -82v-117q0 -36 7.5 -59t20.5 -36t30 -17.5t37 -4.5h37v-42h-31z" />
    <glyph glyph-name="bar" unicode="|" horiz-adv-x="221" 
d="M85 -184v949h51v-949h-51z" />
    <glyph glyph-name="braceright" unicode="}" horiz-adv-x="331" 
d="M40 744q33 0 61 -5.5t48.5 -22t32.5 -48t12 -83.5v-119q0 -47 5.5 -76.5t17.5 -46.5t31 -25t45 -11v-40q-29 -4 -48.5 -12.5t-30.5 -26t-15.5 -46t-4.5 -72.5v-121q0 -50 -12 -81t-32.5 -48t-48.5 -23t-61 -6h-28v42h37q19 0 35.5 5t29 18t20 36t7.5 58v117q0 53 5 85
t16 50t28 27.5t41 17.5q-24 4 -41 14t-28 30.5t-16 52.5t-5 82v118q0 36 -7.5 59t-20.5 36t-30.5 18t-36.5 5h-34v42h28z" />
    <glyph glyph-name="asciitilde" unicode="~" horiz-adv-x="700" 
d="M88 262q43 58 79 80t75 22q12 0 23.5 -2.5t25.5 -8t32 -14.5t42 -23q32 -20 56 -28t42 -8q32 0 57 18.5t55 65.5l36 -25q-33 -52 -66.5 -80t-81.5 -28q-26 0 -54.5 10t-64.5 31q-47 28 -70 35.5t-37 7.5q-31 0 -58 -19t-56 -61z" />
    <glyph glyph-name="exclamdown" unicode="&#xa1;" horiz-adv-x="287" 
d="M147 299q4 -129 6 -220t3 -148.5t1.5 -85t0.5 -29.5h-66q0 2 0.5 30t1.5 85.5t3 148.5t5 219h45zM78 469q0 21 13.5 33.5t33.5 12.5t33 -12.5t13 -33.5q0 -24 -14.5 -35.5t-32.5 -11.5q-17 0 -31.5 11t-14.5 36z" />
    <glyph glyph-name="cent" unicode="&#xa2;" horiz-adv-x="542" 
d="M294 -110v106q-45 4 -84 21.5t-68 48.5t-45.5 75.5t-16.5 102.5q0 53 16 97t44.5 77t67.5 53t86 26v103h38v-101q47 -1 89 -14.5t64 -36.5v-62h-4q-26 29 -68 44.5t-81 16.5v-401q47 1 85.5 17.5t67.5 45.5h4v-58q-28 -25 -69.5 -40t-87.5 -17v-104h-38zM137 247
q0 -50 13.5 -85.5t35.5 -59t50.5 -37t57.5 -17.5v396q-32 -5 -60.5 -18.5t-50 -38t-34 -59.5t-12.5 -81z" />
    <glyph glyph-name="sterling" unicode="&#xa3;" horiz-adv-x="595" 
d="M66 0v39q37 19 62 41.5t40 45t21 45t6 42.5t-3.5 37.5t-9.5 34.5h-99v45h86q-14 37 -25 76.5t-11 77.5q0 87 57 141t172 54q45 0 87.5 -12.5t71.5 -35.5v-66h-4q-30 31 -73.5 46t-82.5 15q-50 0 -82.5 -11.5t-51.5 -31t-26 -45.5t-7 -54q0 -31 11 -72t25 -82h221v-45
h-210q6 -20 8.5 -38.5t2.5 -38.5q0 -17 -4.5 -37t-15 -41t-28.5 -41t-44 -36h386v-53h-480z" />
    <glyph glyph-name="currency" unicode="&#xa4;" horiz-adv-x="599" 
d="M67 123l67 68q-25 31 -35 64t-10 70q0 38 11 70t35 63l-67 68l36 35l65 -68q28 23 62 34t69 11q36 0 69.5 -10.5t60.5 -33.5l67 68l35 -35l-67 -69q25 -29 35 -63t10 -69q0 -36 -10 -70t-35 -63l67 -70l-35 -33l-66 68q-28 -23 -62.5 -34.5t-69.5 -11.5t-68.5 10
t-62.5 33l-65 -66zM140 327q0 -37 12 -67.5t33 -52.5t50.5 -34.5t64.5 -12.5q34 0 63.5 12.5t51 34.5t33.5 52.5t12 66.5q0 35 -12 65.5t-33.5 52.5t-51 34.5t-63.5 12.5t-63.5 -12.5t-51 -35t-33.5 -52.5t-12 -64z" />
    <glyph glyph-name="yen" unicode="&#xa5;" horiz-adv-x="613" 
d="M276 0v213h-191v38h191v15l-51 78h-140v38h116l-180 275h70q60 -92 97 -148.5t59.5 -92t35.5 -56t24 -39.5q12 20 24.5 40t35.5 55t60 91.5t99 149.5h69l-185 -275h124v-38h-148l-52 -78v-15h200v-38h-200v-213h-58z" />
    <glyph glyph-name="brokenbar" unicode="&#xa6;" horiz-adv-x="221" 
d="M85 386v329h51v-329h-51zM85 -94v329h51v-329h-51z" />
    <glyph glyph-name="section" unicode="&#xa7;" horiz-adv-x="489" 
d="M312 166q14 4 28.5 12t26 19.5t18.5 27t7 35.5q0 32 -18 54t-56 45q-13 8 -30 17.5t-34.5 19t-34.5 19t-29 16.5q-11 -1 -26 -7.5t-28.5 -18t-23 -28.5t-9.5 -39q0 -30 17 -51.5t51 -43.5q13 -8 30 -17.5t36 -20t38.5 -20.5t36.5 -19zM53 1h4q16 -18 37 -32t45 -24
t49.5 -15t49.5 -5q55 0 87 24.5t32 66.5q0 32 -15 52.5t-44 39.5q-42 27 -88.5 49.5t-89.5 51.5q-43 30 -57.5 59t-14.5 62q0 27 9 48t23.5 37t33.5 27t39 17q-29 22 -46 48.5t-17 70.5q0 22 9 47t29.5 45t53.5 33.5t82 13.5q51 0 87.5 -13.5t57.5 -32.5v-61h-4
q-26 26 -64 41.5t-80 15.5q-31 0 -52.5 -7.5t-35 -20t-19.5 -28t-6 -30.5q0 -32 18.5 -54t61.5 -48q38 -23 82.5 -47.5t86.5 -54.5q32 -23 42 -50.5t10 -58.5q0 -49 -27.5 -81t-69.5 -45q35 -27 49.5 -56t14.5 -65q0 -28 -11 -54.5t-33.5 -47t-56.5 -33t-80 -12.5
q-57 0 -105 17t-77 46v64z" />
    <glyph glyph-name="dieresis" unicode="&#xa8;" horiz-adv-x="210" 
d="M59 656q0 -19 -12 -29.5t-29 -10.5t-28.5 10.5t-11.5 29.5q0 21 12.5 31.5t28.5 10.5q14 0 27 -10t13 -32zM232 656q0 -19 -12 -29.5t-29 -10.5t-28.5 10.5t-11.5 29.5q0 21 12.5 31.5t28.5 10.5q14 0 27 -10t13 -32z" />
    <glyph glyph-name="copyright" unicode="&#xa9;" horiz-adv-x="828" 
d="M777 345q0 -77 -27.5 -142.5t-76 -113.5t-115 -75.5t-144.5 -27.5t-144.5 27.5t-115 76t-76 114t-27.5 141.5t27.5 142t76 114.5t115 76t143.5 27.5q80 0 147 -27.5t115 -75.5t75 -114t27 -143zM743 345q0 70 -24.5 130t-68.5 104.5t-104.5 69.5t-132.5 25
q-71 0 -130.5 -25.5t-103.5 -69.5t-68.5 -104t-24.5 -130t24.5 -130t68 -104t104 -69t131.5 -25q72 0 132 25t104 69t68.5 104t24.5 130zM565 162q-21 -17 -57.5 -30t-81.5 -13q-48 0 -89.5 16t-72 45.5t-48 71.5t-17.5 95t19 95.5t51 72t74.5 45.5t89.5 16q37 0 73.5 -10
t56.5 -30v-56h-4q-23 24 -58 37t-71 13q-35 0 -67.5 -12t-57.5 -35t-40 -57t-15 -77q0 -47 15 -81.5t40 -57t57.5 -34t67.5 -11.5q42 0 73.5 13t57.5 36h4v-52z" />
    <glyph glyph-name="ordfeminine" unicode="&#xaa;" horiz-adv-x="366" 
d="M357 295q-8 -4 -17.5 -5.5t-19.5 -1.5q-23 0 -40 10t-21 35q-37 -49 -104 -49q-54 0 -86 26t-32 69q0 31 15 51t41 31q23 9 52.5 13t59.5 4q8 0 24 -1t26 -2v19q0 15 -2 29.5t-8 24.5q-11 16 -27 22t-40 6q-13 0 -28 -3t-30.5 -8.5t-30 -14t-24.5 -19.5h-4v44
q23 20 56 31t66 11q28 0 52.5 -7.5t41.5 -27.5q11 -13 16.5 -31.5t5.5 -52.5v-23t-0.5 -29t-0.5 -29.5v-24.5q0 -38 5 -48q7 -14 27 -14q5 0 13.5 1.5t13.5 3.5v-40zM256 372q-1 10 -1 26v39q-11 2 -27 3.5t-26 1.5q-27 -1 -48 -3.5t-37 -9.5q-17 -7 -26.5 -18t-9.5 -31
q0 -23 19 -40.5t61 -17.5q33 0 57 14t38 36z" />
    <glyph glyph-name="guillemotleft" unicode="&#xab;" horiz-adv-x="433" 
d="M165 68l-139 184l138 184h62l-136 -184l137 -184h-62zM340 68l-139 184l138 184h62l-136 -184l137 -184h-62z" />
    <glyph glyph-name="logicalnot" unicode="&#xac;" horiz-adv-x="700" 
d="M554 34v238h-472v46h520v-284h-48z" />
    <glyph glyph-name="uni00AD" unicode="&#xad;" horiz-adv-x="319" 
d="M40 245v53h239v-53h-239z" />
    <glyph glyph-name="registered" unicode="&#xae;" horiz-adv-x="828" 
d="M777 345q0 -77 -27.5 -142.5t-76 -113.5t-115 -75.5t-144.5 -27.5t-144.5 27.5t-115 76t-76 114t-27.5 141.5t27.5 142t76 114.5t115 76t143.5 27.5q80 0 147 -27.5t115 -75.5t75 -114t27 -143zM743 345q0 70 -24.5 130t-68.5 104.5t-104.5 69.5t-132.5 25
q-71 0 -130.5 -25.5t-103.5 -69.5t-68.5 -104t-24.5 -130t24.5 -130t68 -104t104 -69t131.5 -25q72 0 132 25t104 69t68.5 104t24.5 130zM553 123l-109 195q-14 -2 -26.5 -2.5t-23.5 -0.5h-68v-192h-48v445h125q35 0 59.5 -2.5t44.5 -9.5q33 -11 53.5 -39t20.5 -71
q0 -45 -24.5 -75.5t-64.5 -43.5l117 -204h-56zM396 357q35 0 57.5 4t36.5 10q20 9 30.5 27.5t10.5 44.5q0 23 -11.5 43.5t-34.5 28.5q-15 5 -39 7.5t-48 2.5h-72v-168h70z" />
    <glyph glyph-name="macron" unicode="&#xaf;" horiz-adv-x="210" 
d="M-42 597v51h294v-51h-294z" />
    <glyph glyph-name="degree" unicode="&#xb0;" horiz-adv-x="312" 
d="M290 577q0 -31 -11 -56.5t-30 -43.5t-43 -27.5t-51 -9.5q-29 0 -53.5 10.5t-42 28.5t-27.5 42.5t-10 51.5q0 31 11 56.5t29.5 43.5t43 28t51.5 10q31 0 55.5 -10.5t41.5 -28.5t26.5 -42.5t9.5 -52.5zM252 577q0 18 -6 35.5t-18 31.5t-30.5 23t-42.5 9q-45 0 -69.5 -30
t-24.5 -71q0 -42 26.5 -70.5t68.5 -28.5t69 28t27 73z" />
    <glyph glyph-name="plusminus" unicode="&#xb1;" horiz-adv-x="700" 
d="M327 123v231h-237v47h236v228h47v-228h237v-47h-237v-231h-46zM90 0v47h520v-47h-520z" />
    <glyph glyph-name="uni00B2" unicode="&#xb2;" 
d="M32 400v27q43 35 87 72.5t83 75.5q32 32 46.5 63t14.5 57q0 16 -5.5 31t-16.5 26.5t-29 18.5t-43 7q-32 0 -64.5 -14.5t-57.5 -44.5h-4v49q23 26 59 39.5t71 13.5q69 0 104 -33.5t35 -87.5q0 -42 -18.5 -74.5t-43.5 -60.5q-9 -10 -27 -26t-39 -34t-42 -35t-37 -29
q24 0 47.5 0.5t50.5 0.5h58.5h72.5v-42h-302z" />
    <glyph glyph-name="uni00B3" unicode="&#xb3;" 
d="M48 479h4q23 -23 55 -34t63 -11t51.5 7.5t31.5 19.5t15.5 27t4.5 29q0 20 -14 39.5t-45 27.5q-12 3 -29.5 5t-36.5 2h-18v40h18q26 0 44.5 4t29.5 10q16 8 27 24t11 40q0 27 -19 48t-66 21q-12 0 -27 -3t-31 -9t-30.5 -16t-25.5 -24h-4v49q20 20 54 32.5t69 12.5
q64 0 96.5 -28.5t32.5 -80.5q0 -32 -20.5 -58.5t-56.5 -38.5q40 -7 65.5 -31.5t25.5 -65.5q0 -60 -41.5 -93t-111.5 -33q-32 0 -65.5 9t-56.5 28v51z" />
    <glyph glyph-name="acute" unicode="&#xb4;" horiz-adv-x="210" 
d="M-2 579v4l129 161h83v-4l-158 -161h-54z" />
    <glyph glyph-name="mu" unicode="&#xb5;" horiz-adv-x="589" 
d="M90 -211v703h54v-279q0 -41 4.5 -70t13.5 -44q15 -24 43 -40.5t77 -16.5q56 0 102 28.5t69 70.5v351h54v-492h-51v83q-24 -41 -69.5 -67.5t-111.5 -26.5q-40 0 -76.5 15t-53.5 44v-259h-55z" />
    <glyph glyph-name="paragraph" unicode="&#xb6;" horiz-adv-x="558" 
d="M285 -144v374q-58 0 -103 17t-75.5 47t-46.5 70.5t-16 87.5q0 53 16 97t50.5 75t89 48t132.5 17h151v-833h-39v797h-119v-797h-40z" />
    <glyph glyph-name="periodcentered" unicode="&#xb7;" horiz-adv-x="189" 
d="M141 262q0 -21 -13.5 -33t-33.5 -12t-33 12t-13 33q0 24 14.5 36t32.5 12q17 0 31.5 -11.5t14.5 -36.5z" />
    <glyph glyph-name="cedilla" unicode="&#xb8;" horiz-adv-x="210" 
d="M9 -182h4q14 -13 34.5 -18t33.5 -5q41 0 55 15.5t14 37.5q0 21 -16.5 36.5t-53.5 15.5q-7 0 -18.5 -1.5t-19.5 -4.5l-3 2l35 114h43l-23 -73h7q42 0 70.5 -22t28.5 -64q0 -50 -32 -74.5t-85 -24.5q-20 0 -41 6t-33 15v45z" />
    <glyph glyph-name="uni00B9" unicode="&#xb9;" 
d="M178 400v364l-92 -50v45l103 58h36v-417h-47z" />
    <glyph glyph-name="ordmasculine" unicode="&#xba;" horiz-adv-x="393" 
d="M361 454q0 -44 -14.5 -76t-38 -53t-53.5 -31t-61 -10q-30 0 -59 10t-52 30.5t-37.5 52t-14.5 75.5q0 42 15 73t39 51.5t53.5 31t58.5 10.5q32 0 61.5 -9.5t52.5 -30t36.5 -51.5t13.5 -73zM316 454q0 33 -9.5 56.5t-26 38.5t-38.5 22t-47 7q-22 0 -43.5 -7.5t-38 -22.5
t-27 -38.5t-10.5 -56.5q0 -34 10.5 -58.5t27.5 -40t38.5 -22.5t44.5 -7t44.5 7.5t38 23t26.5 40t10 58.5z" />
    <glyph glyph-name="guillemotright" unicode="&#xbb;" horiz-adv-x="433" 
d="M268 436l139 -184l-138 -184h-62l136 184l-137 184h62zM93 436l139 -184l-138 -184h-62l136 184l-137 184h62z" />
    <glyph glyph-name="onequarter" unicode="&#xbc;" horiz-adv-x="847" 
d="M212 -12l337 694h43l-336 -694h-44zM174 253v364l-92 -50v45l103 58h36v-417h-47zM648 0v108h-215v30l222 283h39v-272h74v-41h-74v-108h-46zM648 149q0 60 1 110t2 96q-11 -16 -21.5 -30.5t-28 -36t-44 -54.5t-68.5 -85h159z" />
    <glyph glyph-name="onehalf" unicode="&#xbd;" horiz-adv-x="847" 
d="M191 -12l337 694h43l-336 -694h-44zM159 253v364l-92 -50v45l103 58h36v-417h-47zM472 0v27q43 35 87 72.5t83 75.5q32 32 46.5 63t14.5 57q0 16 -5.5 31t-16.5 26.5t-29 18.5t-43 7q-32 0 -64.5 -14.5t-57.5 -44.5h-4v49q23 26 59 39.5t71 13.5q69 0 104 -33.5t35 -87.5
q0 -42 -18.5 -74.5t-43.5 -60.5q-9 -10 -27 -26t-39 -34t-42 -35t-37 -29q24 0 47.5 0.5t50.5 0.5h58.5h72.5v-42h-302z" />
    <glyph glyph-name="threequarters" unicode="&#xbe;" horiz-adv-x="847" 
d="M253 -12l337 694h43l-336 -694h-44zM61 332h4q23 -23 55 -34t63 -11t51.5 7.5t31.5 19.5t15.5 27t4.5 29q0 20 -14 39.5t-45 27.5q-12 3 -29.5 5t-36.5 2h-18v40h18q26 0 44.5 4t29.5 10q16 8 27 24t11 40q0 27 -19 48t-66 21q-12 0 -27 -3t-31 -9t-30.5 -16t-25.5 -24
h-4v49q20 20 54 32.5t69 12.5q64 0 96.5 -28.5t32.5 -80.5q0 -32 -20.5 -58.5t-56.5 -38.5q40 -7 65.5 -31.5t25.5 -65.5q0 -60 -41.5 -93t-111.5 -33q-32 0 -65.5 9t-56.5 28v51zM675 0v108h-215v30l222 283h39v-272h74v-41h-74v-108h-46zM675 149q0 60 1 110t2 96
q-11 -16 -21.5 -30.5t-28 -36t-44 -54.5t-68.5 -85h159z" />
    <glyph glyph-name="questiondown" unicode="&#xbf;" horiz-adv-x="423" 
d="M275 299q0 -26 -1 -49.5t-7.5 -44.5t-20 -40t-37.5 -37q-34 -25 -57 -46t-36.5 -40.5t-19 -38t-5.5 -37.5q0 -22 6.5 -42.5t21.5 -36t39.5 -25t61.5 -9.5q45 0 87 18.5t75 57.5h4v-60q-29 -32 -76 -50.5t-98 -18.5q-89 0 -135.5 41.5t-46.5 119.5q0 25 7 48t22.5 45.5
t42 46.5t65.5 52q21 15 33 31t18.5 33t8.5 37.5t3 44.5h45zM205 469q0 21 13.5 33.5t33.5 12.5t33 -12.5t13 -33.5q0 -24 -14.5 -35.5t-32.5 -11.5q-17 0 -31.5 11t-14.5 36z" />
    <glyph glyph-name="Agrave" unicode="&#xc0;" horiz-adv-x="628" 
d="M4 0l287 689h52l281 -689h-65l-88 219h-315l-90 -219h-62zM451 272q-35 87 -57.5 144l-37.5 95t-24 62t-16 44q-7 -20 -16 -43.5t-24.5 -62t-39 -95.5t-59.5 -144h274zM346 750l-187 130v4h97l155 -130v-4h-65z" />
    <glyph glyph-name="Aacute" unicode="&#xc1;" horiz-adv-x="628" 
d="M4 0l287 689h52l281 -689h-65l-88 219h-315l-90 -219h-62zM451 272q-35 87 -57.5 144l-37.5 95t-24 62t-16 44q-7 -20 -16 -43.5t-24.5 -62t-39 -95.5t-59.5 -144h274zM239 750v4l155 130h97v-4l-186 -130h-66z" />
    <glyph glyph-name="Acircumflex" unicode="&#xc2;" horiz-adv-x="628" 
d="M4 0l287 689h52l281 -689h-65l-88 219h-315l-90 -219h-62zM451 272q-35 87 -57.5 144l-37.5 95t-24 62t-16 44q-7 -20 -16 -43.5t-24.5 -62t-39 -95.5t-59.5 -144h274zM156 750v4l143 130h38l143 -130v-4h-63l-101 79l-97 -79h-63z" />
    <glyph glyph-name="Atilde" unicode="&#xc3;" horiz-adv-x="628" 
d="M4 0l287 689h52l281 -689h-65l-88 219h-315l-90 -219h-62zM451 272q-35 87 -57.5 144l-37.5 95t-24 62t-16 44q-7 -20 -16 -43.5t-24.5 -62t-39 -95.5t-59.5 -144h274zM154 755q5 57 31.5 83t61.5 26q19 0 36 -7.5t41 -24.5q21 -14 36.5 -21.5t28.5 -7.5q17 0 28 13
t15 48h44q-2 -30 -10 -51t-20.5 -35t-28 -20.5t-30.5 -6.5q-21 0 -38 7.5t-45 25.5q-23 14 -36 21t-24 7q-35 0 -44 -57h-46z" />
    <glyph glyph-name="Adieresis" unicode="&#xc4;" horiz-adv-x="628" 
d="M4 0l287 689h52l281 -689h-65l-88 219h-315l-90 -219h-62zM451 272q-35 87 -57.5 144l-37.5 95t-24 62t-16 44q-7 -20 -16 -43.5t-24.5 -62t-39 -95.5t-59.5 -144h274zM267 808q0 -19 -12 -30t-29 -11t-28.5 10.5t-11.5 30.5t12.5 30.5t28.5 10.5q14 0 27 -10t13 -31z
M446 808q0 -19 -12 -30t-29 -11t-29 10.5t-12 30.5t13 30.5t28 10.5t28 -10t13 -31z" />
    <glyph glyph-name="Aring" unicode="&#xc5;" horiz-adv-x="628" 
d="M4 0l287 689h52l281 -689h-65l-88 219h-315l-90 -219h-62zM451 272q-35 87 -57.5 144l-37.5 95t-24 62t-16 44q-7 -20 -16 -43.5t-24.5 -62t-39 -95.5t-59.5 -144h274zM418 817q0 -42 -29 -70t-72 -28t-72 28t-29 70q0 44 29.5 71t73.5 27q45 0 72 -27t27 -71zM384 818
q0 29 -18.5 47.5t-49.5 18.5q-30 0 -48 -19t-18 -48q0 -27 17 -47t51 -20q32 0 49 20t17 48z" />
    <glyph glyph-name="AE" unicode="&#xc6;" horiz-adv-x="948" 
d="M0 0l467 689h421v-54h-339v-250h319v-53h-319v-279h356v-53h-413v222h-271l-152 -222h-69zM492 275v360q-14 -22 -31.5 -49t-44.5 -68t-67 -99.5t-98 -143.5h241z" />
    <glyph glyph-name="Ccedilla" unicode="&#xc7;" horiz-adv-x="674" 
d="M284 -189h4q15 -12 36.5 -17.5t35.5 -5.5q40 0 54 16.5t14 39.5t-17.5 38t-53.5 15q-8 0 -19 -1.5t-20 -5.5l-3 2l30 98q-63 9 -117 36.5t-93.5 72.5t-62 107t-22.5 139q0 86 29.5 153t79 113t115.5 70t138 24q27 0 56 -4.5t56 -12.5t50 -19.5t38 -25.5v-66h-4
q-16 18 -39 31.5t-49.5 23t-54.5 14.5t-55 5q-65 0 -120.5 -21.5t-95.5 -61t-62.5 -95.5t-22.5 -124q0 -74 22.5 -131.5t62 -97t94.5 -60t120 -20.5q62 0 113.5 20.5t89.5 57.5h4v-63q-16 -15 -39.5 -27.5t-51.5 -21.5t-59.5 -14.5t-62.5 -5.5h-16l-15 -51h7q45 0 73 -23.5
t28 -66.5q0 -51 -32.5 -76t-85.5 -25q-22 0 -43 6.5t-34 15.5v45z" />
    <glyph glyph-name="Egrave" unicode="&#xc8;" horiz-adv-x="551" 
d="M95 0v689h396v-54h-339v-250h319v-53h-319v-279h356v-53h-413zM302 750l-187 130v4h97l155 -130v-4h-65z" />
    <glyph glyph-name="Eacute" unicode="&#xc9;" horiz-adv-x="551" 
d="M95 0v689h396v-54h-339v-250h319v-53h-319v-279h356v-53h-413zM225 750v4l155 130h97v-4l-186 -130h-66z" />
    <glyph glyph-name="Ecircumflex" unicode="&#xca;" horiz-adv-x="551" 
d="M95 0v689h396v-54h-339v-250h319v-53h-319v-279h356v-53h-413zM137 750v4l143 130h38l143 -130v-4h-63l-101 79l-97 -79h-63z" />
    <glyph glyph-name="Edieresis" unicode="&#xcb;" horiz-adv-x="551" 
d="M95 0v689h396v-54h-339v-250h319v-53h-319v-279h356v-53h-413zM248 808q0 -19 -12 -30t-29 -11t-28.5 10.5t-11.5 30.5t12.5 30.5t28.5 10.5q14 0 27 -10t13 -31zM427 808q0 -19 -12 -30t-29 -11t-29 10.5t-12 30.5t13 30.5t28 10.5t28 -10t13 -31z" />
    <glyph glyph-name="Igrave" unicode="&#xcc;" horiz-adv-x="247" 
d="M95 0v689h57v-689h-57zM146 750l-187 130v4h97l155 -130v-4h-65z" />
    <glyph glyph-name="Iacute" unicode="&#xcd;" horiz-adv-x="247" 
d="M95 0v689h57v-689h-57zM46 750v4l155 130h97v-4l-186 -130h-66z" />
    <glyph glyph-name="Icircumflex" unicode="&#xce;" horiz-adv-x="247" 
d="M95 0v689h57v-689h-57zM-31 750v4l143 130h38l143 -130v-4h-63l-101 79l-97 -79h-63z" />
    <glyph glyph-name="Idieresis" unicode="&#xcf;" horiz-adv-x="247" 
d="M95 0v689h57v-689h-57zM74 808q0 -19 -12 -30t-29 -11t-28.5 10.5t-11.5 30.5t12.5 30.5t28.5 10.5q14 0 27 -10t13 -31zM253 808q0 -19 -12 -30t-29 -11t-29 10.5t-12 30.5t13 30.5t28 10.5t28 -10t13 -31z" />
    <glyph glyph-name="Eth" unicode="&#xd0;" horiz-adv-x="729" 
d="M95 333h-84v51h84v305h179q63 0 110.5 -6t81.5 -16q47 -14 86 -39.5t66.5 -64t43 -91t15.5 -119.5q0 -120 -50.5 -202.5t-153.5 -120.5q-42 -15 -96 -22.5t-126 -7.5h-156v333zM271 53q71 0 125 12t86 29q68 35 100.5 100.5t32.5 156.5q0 42 -8.5 81.5t-27 73.5t-47.5 61
t-71 42q-29 11 -73 18.5t-101 7.5h-136v-251h236v-51h-236v-280h120z" />
    <glyph glyph-name="Ntilde" unicode="&#xd1;" horiz-adv-x="703" 
d="M95 0v689h60q80 -114 137 -196t97 -140t66 -96t44 -64.5t30 -46t25 -39.5q-1 43 -1.5 90t-1 113t-0.5 157v222h57v-689h-48q-75 109 -131 191t-97.5 143t-70.5 103.5t-49.5 73.5t-35 53t-26.5 41q1 -49 1.5 -98.5t0.5 -116.5v-160v-230h-57zM197 755q5 57 31.5 83
t61.5 26q19 0 36 -7.5t41 -24.5q21 -14 36.5 -21.5t28.5 -7.5q17 0 28 13t15 48h44q-2 -30 -10 -51t-20.5 -35t-28 -20.5t-30.5 -6.5q-21 0 -38 7.5t-45 25.5q-23 14 -36 21t-24 7q-35 0 -44 -57h-46z" />
    <glyph glyph-name="Ograve" unicode="&#xd2;" horiz-adv-x="809" 
d="M757 344q0 -75 -27 -140.5t-74 -114t-112 -76t-140 -27.5t-139.5 27.5t-112 75.5t-74 113.5t-26.5 141.5q0 75 27.5 141t75 114.5t112 76.5t138.5 28q76 0 141 -27.5t111.5 -75.5t73 -114t26.5 -143zM699 345q0 64 -22 119.5t-61 97t-93 65.5t-118 24q-62 0 -116 -24
t-93.5 -65t-62 -97t-22.5 -120q0 -66 23 -122t63 -96.5t93.5 -63.5t114.5 -23q63 0 117 23t93.5 64t61.5 97t22 121zM426 750l-187 130v4h97l155 -130v-4h-65z" />
    <glyph glyph-name="Oacute" unicode="&#xd3;" horiz-adv-x="809" 
d="M757 344q0 -75 -27 -140.5t-74 -114t-112 -76t-140 -27.5t-139.5 27.5t-112 75.5t-74 113.5t-26.5 141.5q0 75 27.5 141t75 114.5t112 76.5t138.5 28q76 0 141 -27.5t111.5 -75.5t73 -114t26.5 -143zM699 345q0 64 -22 119.5t-61 97t-93 65.5t-118 24q-62 0 -116 -24
t-93.5 -65t-62 -97t-22.5 -120q0 -66 23 -122t63 -96.5t93.5 -63.5t114.5 -23q63 0 117 23t93.5 64t61.5 97t22 121zM315 750v4l155 130h97v-4l-186 -130h-66z" />
    <glyph glyph-name="Ocircumflex" unicode="&#xd4;" horiz-adv-x="809" 
d="M757 344q0 -75 -27 -140.5t-74 -114t-112 -76t-140 -27.5t-139.5 27.5t-112 75.5t-74 113.5t-26.5 141.5q0 75 27.5 141t75 114.5t112 76.5t138.5 28q76 0 141 -27.5t111.5 -75.5t73 -114t26.5 -143zM699 345q0 64 -22 119.5t-61 97t-93 65.5t-118 24q-62 0 -116 -24
t-93.5 -65t-62 -97t-22.5 -120q0 -66 23 -122t63 -96.5t93.5 -63.5t114.5 -23q63 0 117 23t93.5 64t61.5 97t22 121zM245 750v4l143 130h38l143 -130v-4h-63l-101 79l-97 -79h-63z" />
    <glyph glyph-name="Otilde" unicode="&#xd5;" horiz-adv-x="809" 
d="M757 344q0 -75 -27 -140.5t-74 -114t-112 -76t-140 -27.5t-139.5 27.5t-112 75.5t-74 113.5t-26.5 141.5q0 75 27.5 141t75 114.5t112 76.5t138.5 28q76 0 141 -27.5t111.5 -75.5t73 -114t26.5 -143zM699 345q0 64 -22 119.5t-61 97t-93 65.5t-118 24q-62 0 -116 -24
t-93.5 -65t-62 -97t-22.5 -120q0 -66 23 -122t63 -96.5t93.5 -63.5t114.5 -23q63 0 117 23t93.5 64t61.5 97t22 121zM245 755q5 57 31.5 83t61.5 26q19 0 36 -7.5t41 -24.5q21 -14 36.5 -21.5t28.5 -7.5q17 0 28 13t15 48h44q-2 -30 -10 -51t-20.5 -35t-28 -20.5t-30.5 -6.5
q-21 0 -38 7.5t-45 25.5q-23 14 -36 21t-24 7q-35 0 -44 -57h-46z" />
    <glyph glyph-name="Odieresis" unicode="&#xd6;" horiz-adv-x="809" 
d="M757 344q0 -75 -27 -140.5t-74 -114t-112 -76t-140 -27.5t-139.5 27.5t-112 75.5t-74 113.5t-26.5 141.5q0 75 27.5 141t75 114.5t112 76.5t138.5 28q76 0 141 -27.5t111.5 -75.5t73 -114t26.5 -143zM699 345q0 64 -22 119.5t-61 97t-93 65.5t-118 24q-62 0 -116 -24
t-93.5 -65t-62 -97t-22.5 -120q0 -66 23 -122t63 -96.5t93.5 -63.5t114.5 -23q63 0 117 23t93.5 64t61.5 97t22 121zM357 808q0 -19 -12 -30t-29 -11t-28.5 10.5t-11.5 30.5t12.5 30.5t28.5 10.5q14 0 27 -10t13 -31zM536 808q0 -19 -12 -30t-29 -11t-29 10.5t-12 30.5
t13 30.5t28 10.5t28 -10t13 -31z" />
    <glyph glyph-name="multiply" unicode="&#xd7;" horiz-adv-x="710" 
d="M141 119l180 180l-181 181l35 36l181 -181l181 181l33 -34l-181 -181l180 -180l-35 -36l-180 180l-180 -181z" />
    <glyph glyph-name="Oslash" unicode="&#xd8;" horiz-adv-x="809" 
d="M121 -43l65 102q-63 48 -98.5 122t-35.5 163q0 75 27.5 141t75 114.5t112 76.5t138.5 28q47 0 89.5 -10.5t79.5 -30.5l51 79h56l-67 -104q66 -48 104.5 -124t38.5 -170q0 -75 -27 -140.5t-74 -114t-112 -76t-140 -27.5q-51 0 -96.5 12.5t-84.5 35.5l-49 -77h-53zM699 345
q0 76 -31 140t-85 106l-329 -510q67 -41 151 -41q63 0 117 23t93.5 64t61.5 97t22 121zM111 345q0 -75 28.5 -136t77.5 -102l327 509q-31 17 -66 26t-73 9q-62 0 -116 -24t-93.5 -65t-62 -97t-22.5 -120z" />
    <glyph glyph-name="Ugrave" unicode="&#xd9;" horiz-adv-x="716" 
d="M629 297q0 -69 -7.5 -113t-27.5 -79q-14 -23 -35 -44.5t-50.5 -38t-67 -26.5t-82.5 -10q-88 0 -151.5 31.5t-92.5 93.5q-16 34 -21.5 78.5t-5.5 104.5v395h57v-383q0 -52 5.5 -97t24.5 -81q17 -35 63 -61.5t121 -26.5q69 0 112 25t67 61q35 52 35 178v385h56v-392z
M380 750l-187 130v4h97l155 -130v-4h-65z" />
    <glyph glyph-name="Uacute" unicode="&#xda;" horiz-adv-x="716" 
d="M629 297q0 -69 -7.5 -113t-27.5 -79q-14 -23 -35 -44.5t-50.5 -38t-67 -26.5t-82.5 -10q-88 0 -151.5 31.5t-92.5 93.5q-16 34 -21.5 78.5t-5.5 104.5v395h57v-383q0 -52 5.5 -97t24.5 -81q17 -35 63 -61.5t121 -26.5q69 0 112 25t67 61q35 52 35 178v385h56v-392z
M284 750v4l155 130h97v-4l-186 -130h-66z" />
    <glyph glyph-name="Ucircumflex" unicode="&#xdb;" horiz-adv-x="716" 
d="M629 297q0 -69 -7.5 -113t-27.5 -79q-14 -23 -35 -44.5t-50.5 -38t-67 -26.5t-82.5 -10q-88 0 -151.5 31.5t-92.5 93.5q-16 34 -21.5 78.5t-5.5 104.5v395h57v-383q0 -52 5.5 -97t24.5 -81q17 -35 63 -61.5t121 -26.5q69 0 112 25t67 61q35 52 35 178v385h56v-392z
M198 750v4l143 130h38l143 -130v-4h-63l-101 79l-97 -79h-63z" />
    <glyph glyph-name="Udieresis" unicode="&#xdc;" horiz-adv-x="716" 
d="M629 297q0 -69 -7.5 -113t-27.5 -79q-14 -23 -35 -44.5t-50.5 -38t-67 -26.5t-82.5 -10q-88 0 -151.5 31.5t-92.5 93.5q-16 34 -21.5 78.5t-5.5 104.5v395h57v-383q0 -52 5.5 -97t24.5 -81q17 -35 63 -61.5t121 -26.5q69 0 112 25t67 61q35 52 35 178v385h56v-392z
M307 808q0 -19 -12 -30t-29 -11t-28.5 10.5t-11.5 30.5t12.5 30.5t28.5 10.5q14 0 27 -10t13 -31zM486 808q0 -19 -12 -30t-29 -11t-29 10.5t-12 30.5t13 30.5t28 10.5t28 -10t13 -31z" />
    <glyph glyph-name="Yacute" unicode="&#xdd;" horiz-adv-x="600" 
d="M267 0v278l-264 411h71q61 -96 99.5 -156t62.5 -97.5t37 -59.5t25 -42q8 14 16.5 27.5t19.5 31t26.5 42t38 59t53.5 82.5t74 113h71l-272 -411v-278h-58zM227 750v4l155 130h97v-4l-186 -130h-66z" />
    <glyph glyph-name="Thorn" unicode="&#xde;" horiz-adv-x="589" 
d="M95 0v689h57v-123h142q54 0 90 -5.5t66 -16.5q51 -19 79 -65.5t28 -113.5q0 -68 -29 -119t-96 -74q-30 -11 -67.5 -15t-73.5 -4h-139v-153h-57zM284 205q45 0 84 6.5t58 16.5q31 17 50.5 48t19.5 87q0 40 -14.5 74.5t-53.5 53.5q-12 6 -28 10t-34.5 6.5t-37.5 4t-36 1.5
h-140v-308h132z" />
    <glyph glyph-name="germandbls" unicode="&#xdf;" horiz-adv-x="577" 
d="M86 0v476q0 68 8.5 109t25.5 67q29 45 74.5 66.5t100.5 21.5q52 0 88 -17t58 -43.5t31.5 -58t9.5 -59.5q0 -63 -29 -113t-103 -76q40 -2 74.5 -15t60 -36.5t40 -58t14.5 -79.5q0 -44 -12.5 -80.5t-37 -62.5t-60 -40.5t-81.5 -14.5q-85 0 -134 39v58h4q13 -12 29 -21
t33 -14t33.5 -7.5t31.5 -2.5q29 0 54.5 8t44 26t29 45.5t10.5 66.5q0 72 -53.5 114t-168.5 42h-19v50h18q37 0 67.5 13t52 35t33 51.5t11.5 63.5q0 25 -7 49.5t-23 43.5t-40.5 31t-59.5 12q-45 0 -76.5 -16t-48.5 -42q-14 -22 -22 -56.5t-8 -92.5v-482h-53z" />
    <glyph glyph-name="agrave" unicode="&#xe0;" horiz-adv-x="536" 
d="M529 4q-21 -11 -52 -11q-33 0 -56.5 16t-28.5 54q-27 -37 -70.5 -56.5t-97.5 -19.5q-41 0 -74 11t-57 30.5t-37 47t-13 60.5q0 47 24 77.5t63 47.5q35 15 78 20t92 5q6 0 17.5 -0.5t24.5 -1.5t24.5 -2.5t18.5 -2.5v42q0 23 -4 45.5t-15 39.5q-17 27 -46 37.5t-66 10.5
q-18 0 -41.5 -4.5t-47 -13.5t-45.5 -22.5t-38 -31.5h-4v58q34 32 84 49.5t100 17.5q42 0 80.5 -11.5t63.5 -43.5q17 -22 25.5 -51t8.5 -82v-37.5t-0.5 -49.5t-0.5 -50.5v-40.5q0 -56 8 -74q5 -10 14 -16.5t27 -6.5q11 0 22 2.5t19 6.5v-49zM386 114q-1 16 -1 45.5v72.5
q-9 2 -22 3.5t-25.5 2.5t-24 1.5t-18.5 0.5q-41 0 -73 -3.5t-57 -13.5q-27 -10 -46.5 -29t-19.5 -57q0 -41 33 -70t101 -29q51 0 90.5 20.5t62.5 55.5zM266 579l-160 161v4h85l130 -161v-4h-55z" />
    <glyph glyph-name="aacute" unicode="&#xe1;" horiz-adv-x="536" 
d="M529 4q-21 -11 -52 -11q-33 0 -56.5 16t-28.5 54q-27 -37 -70.5 -56.5t-97.5 -19.5q-41 0 -74 11t-57 30.5t-37 47t-13 60.5q0 47 24 77.5t63 47.5q35 15 78 20t92 5q6 0 17.5 -0.5t24.5 -1.5t24.5 -2.5t18.5 -2.5v42q0 23 -4 45.5t-15 39.5q-17 27 -46 37.5t-66 10.5
q-18 0 -41.5 -4.5t-47 -13.5t-45.5 -22.5t-38 -31.5h-4v58q34 32 84 49.5t100 17.5q42 0 80.5 -11.5t63.5 -43.5q17 -22 25.5 -51t8.5 -82v-37.5t-0.5 -49.5t-0.5 -50.5v-40.5q0 -56 8 -74q5 -10 14 -16.5t27 -6.5q11 0 22 2.5t19 6.5v-49zM386 114q-1 16 -1 45.5v72.5
q-9 2 -22 3.5t-25.5 2.5t-24 1.5t-18.5 0.5q-41 0 -73 -3.5t-57 -13.5q-27 -10 -46.5 -29t-19.5 -57q0 -41 33 -70t101 -29q51 0 90.5 20.5t62.5 55.5zM200 579v4l129 161h83v-4l-158 -161h-54z" />
    <glyph glyph-name="acircumflex" unicode="&#xe2;" horiz-adv-x="536" 
d="M529 4q-21 -11 -52 -11q-33 0 -56.5 16t-28.5 54q-27 -37 -70.5 -56.5t-97.5 -19.5q-41 0 -74 11t-57 30.5t-37 47t-13 60.5q0 47 24 77.5t63 47.5q35 15 78 20t92 5q6 0 17.5 -0.5t24.5 -1.5t24.5 -2.5t18.5 -2.5v42q0 23 -4 45.5t-15 39.5q-17 27 -46 37.5t-66 10.5
q-18 0 -41.5 -4.5t-47 -13.5t-45.5 -22.5t-38 -31.5h-4v58q34 32 84 49.5t100 17.5q42 0 80.5 -11.5t63.5 -43.5q17 -22 25.5 -51t8.5 -82v-37.5t-0.5 -49.5t-0.5 -50.5v-40.5q0 -56 8 -74q5 -10 14 -16.5t27 -6.5q11 0 22 2.5t19 6.5v-49zM386 114q-1 16 -1 45.5v72.5
q-9 2 -22 3.5t-25.5 2.5t-24 1.5t-18.5 0.5q-41 0 -73 -3.5t-57 -13.5q-27 -10 -46.5 -29t-19.5 -57q0 -41 33 -70t101 -29q51 0 90.5 20.5t62.5 55.5zM105 575v4l133 156h33l135 -156v-4h-55l-98 100l-95 -100h-53z" />
    <glyph glyph-name="atilde" unicode="&#xe3;" horiz-adv-x="536" 
d="M529 4q-21 -11 -52 -11q-33 0 -56.5 16t-28.5 54q-27 -37 -70.5 -56.5t-97.5 -19.5q-41 0 -74 11t-57 30.5t-37 47t-13 60.5q0 47 24 77.5t63 47.5q35 15 78 20t92 5q6 0 17.5 -0.5t24.5 -1.5t24.5 -2.5t18.5 -2.5v42q0 23 -4 45.5t-15 39.5q-17 27 -46 37.5t-66 10.5
q-18 0 -41.5 -4.5t-47 -13.5t-45.5 -22.5t-38 -31.5h-4v58q34 32 84 49.5t100 17.5q42 0 80.5 -11.5t63.5 -43.5q17 -22 25.5 -51t8.5 -82v-37.5t-0.5 -49.5t-0.5 -50.5v-40.5q0 -56 8 -74q5 -10 14 -16.5t27 -6.5q11 0 22 2.5t19 6.5v-49zM386 114q-1 16 -1 45.5v72.5
q-9 2 -22 3.5t-25.5 2.5t-24 1.5t-18.5 0.5q-41 0 -73 -3.5t-57 -13.5q-27 -10 -46.5 -29t-19.5 -57q0 -41 33 -70t101 -29q51 0 90.5 20.5t62.5 55.5zM106 602q5 56 29.5 82t59.5 26q20 0 35 -7t39 -24q40 -29 60 -29q18 0 27 13t13 48h43q-2 -30 -9.5 -51t-19.5 -35
t-26 -20.5t-29 -6.5q-22 0 -37.5 7t-42.5 25q-20 14 -32.5 21t-23.5 7q-34 0 -43 -56h-43z" />
    <glyph glyph-name="adieresis" unicode="&#xe4;" horiz-adv-x="536" 
d="M529 4q-21 -11 -52 -11q-33 0 -56.5 16t-28.5 54q-27 -37 -70.5 -56.5t-97.5 -19.5q-41 0 -74 11t-57 30.5t-37 47t-13 60.5q0 47 24 77.5t63 47.5q35 15 78 20t92 5q6 0 17.5 -0.5t24.5 -1.5t24.5 -2.5t18.5 -2.5v42q0 23 -4 45.5t-15 39.5q-17 27 -46 37.5t-66 10.5
q-18 0 -41.5 -4.5t-47 -13.5t-45.5 -22.5t-38 -31.5h-4v58q34 32 84 49.5t100 17.5q42 0 80.5 -11.5t63.5 -43.5q17 -22 25.5 -51t8.5 -82v-37.5t-0.5 -49.5t-0.5 -50.5v-40.5q0 -56 8 -74q5 -10 14 -16.5t27 -6.5q11 0 22 2.5t19 6.5v-49zM386 114q-1 16 -1 45.5v72.5
q-9 2 -22 3.5t-25.5 2.5t-24 1.5t-18.5 0.5q-41 0 -73 -3.5t-57 -13.5q-27 -10 -46.5 -29t-19.5 -57q0 -41 33 -70t101 -29q51 0 90.5 20.5t62.5 55.5zM216 656q0 -19 -12 -29.5t-29 -10.5t-28.5 10.5t-11.5 29.5q0 21 12.5 31.5t28.5 10.5q14 0 27 -10t13 -32zM389 656
q0 -19 -12 -29.5t-29 -10.5t-28.5 10.5t-11.5 29.5q0 21 12.5 31.5t28.5 10.5q14 0 27 -10t13 -32z" />
    <glyph glyph-name="aring" unicode="&#xe5;" horiz-adv-x="536" 
d="M529 4q-21 -11 -52 -11q-33 0 -56.5 16t-28.5 54q-27 -37 -70.5 -56.5t-97.5 -19.5q-41 0 -74 11t-57 30.5t-37 47t-13 60.5q0 47 24 77.5t63 47.5q35 15 78 20t92 5q6 0 17.5 -0.5t24.5 -1.5t24.5 -2.5t18.5 -2.5v42q0 23 -4 45.5t-15 39.5q-17 27 -46 37.5t-66 10.5
q-18 0 -41.5 -4.5t-47 -13.5t-45.5 -22.5t-38 -31.5h-4v58q34 32 84 49.5t100 17.5q42 0 80.5 -11.5t63.5 -43.5q17 -22 25.5 -51t8.5 -82v-37.5t-0.5 -49.5t-0.5 -50.5v-40.5q0 -56 8 -74q5 -10 14 -16.5t27 -6.5q11 0 22 2.5t19 6.5v-49zM386 114q-1 16 -1 45.5v72.5
q-9 2 -22 3.5t-25.5 2.5t-24 1.5t-18.5 0.5q-41 0 -73 -3.5t-57 -13.5q-27 -10 -46.5 -29t-19.5 -57q0 -41 33 -70t101 -29q51 0 90.5 20.5t62.5 55.5zM361 669q0 -21 -8 -39.5t-22 -32t-32.5 -21t-40.5 -7.5q-44 0 -73 28.5t-29 71.5q0 45 29.5 72.5t74.5 27.5t73 -27.5
t28 -72.5zM327 670q0 31 -19.5 50t-50.5 19q-30 0 -48.5 -20t-18.5 -50q0 -28 17.5 -48.5t52.5 -20.5q31 0 49 20.5t18 49.5z" />
    <glyph glyph-name="ae" unicode="&#xe6;" horiz-adv-x="893" 
d="M841 52q-15 -15 -36.5 -27t-46.5 -20.5t-52 -13.5t-53 -5q-74 0 -129 25.5t-88 71.5q-15 -18 -35 -35t-46.5 -30.5t-58.5 -22t-71 -8.5q-41 0 -74 11t-57 30.5t-37 47t-13 60.5q0 46 22.5 76.5t62.5 47.5q35 16 77.5 20.5t93.5 4.5q23 0 50 -2.5t41 -4.5v41q0 30 -4 49.5
t-15 36.5q-17 28 -46 38.5t-67 10.5q-20 0 -44 -4.5t-48 -13.5t-46 -22t-37 -30h-4v56q34 32 84.5 49.5t101.5 17.5q62 0 107 -23t61 -82q15 26 37 45.5t47.5 33t53.5 20t55 6.5q107 0 165 -59t60 -168q0 -14 -0.5 -24t-2.5 -24h-404q1 -43 15.5 -78.5t41.5 -61t66 -40
t90 -14.5q49 0 96 17.5t83 54.5h4v-58zM796 280v9q0 37 -10.5 68t-31.5 53t-53.5 34.5t-76.5 12.5q-31 0 -61.5 -10.5t-55.5 -32t-42 -55t-20 -79.5h351zM413 124q-19 41 -22 107q-9 2 -22 3.5t-26.5 2.5t-25.5 1.5t-19 0.5q-42 0 -75 -3.5t-59 -13.5q-27 -11 -45.5 -29.5
t-18.5 -53.5q0 -41 32 -71t100 -30q28 0 55 7t50.5 19t43 27.5t32.5 32.5z" />
    <glyph glyph-name="ccedilla" unicode="&#xe7;" horiz-adv-x="510" 
d="M197 -182h4q14 -13 34.5 -18t33.5 -5q41 0 55 15.5t14 37.5q0 21 -16.5 36.5t-53.5 15.5q-7 0 -18.5 -1.5t-19.5 -4.5l-3 2l29 95q-44 7 -82 28.5t-66 54t-44 75.5t-16 95q0 59 20.5 107.5t56.5 83t84.5 53.5t105.5 19q48 0 92 -15.5t67 -40.5v-65h-4q-12 16 -30.5 29
t-40 22t-44 13.5t-43.5 4.5q-39 0 -76.5 -13t-67 -39.5t-47 -65.5t-17.5 -90q0 -56 19 -95.5t49 -64.5t66.5 -37t71.5 -12q51 0 92.5 18t70.5 50h4v-61q-31 -27 -76 -42.5t-96 -15.5h-7l-16 -50h7q42 0 70.5 -22t28.5 -64q0 -50 -32 -74.5t-85 -24.5q-20 0 -41 6t-33 15v45z
" />
    <glyph glyph-name="egrave" unicode="&#xe8;" horiz-adv-x="554" 
d="M498 48q-15 -14 -36.5 -25t-46.5 -19t-52 -12.5t-52 -4.5q-61 0 -109.5 19t-82.5 52.5t-52.5 81t-18.5 104.5q0 64 21 113t55.5 82.5t79 50.5t90.5 17q104 0 160.5 -60.5t57.5 -168.5q0 -11 -0.5 -23.5t-2.5 -26.5h-404q2 -40 16.5 -74.5t41.5 -60t65 -40.5t87 -15
q48 0 96 16t83 51h4v-57zM456 287q0 75 -40.5 122.5t-128.5 47.5q-28 0 -59 -10.5t-57 -32.5t-44.5 -56t-21.5 -81h351v10zM303 579l-160 161v4h85l130 -161v-4h-55z" />
    <glyph glyph-name="eacute" unicode="&#xe9;" horiz-adv-x="554" 
d="M498 48q-15 -14 -36.5 -25t-46.5 -19t-52 -12.5t-52 -4.5q-61 0 -109.5 19t-82.5 52.5t-52.5 81t-18.5 104.5q0 64 21 113t55.5 82.5t79 50.5t90.5 17q104 0 160.5 -60.5t57.5 -168.5q0 -11 -0.5 -23.5t-2.5 -26.5h-404q2 -40 16.5 -74.5t41.5 -60t65 -40.5t87 -15
q48 0 96 16t83 51h4v-57zM456 287q0 75 -40.5 122.5t-128.5 47.5q-28 0 -59 -10.5t-57 -32.5t-44.5 -56t-21.5 -81h351v10zM220 579v4l129 161h83v-4l-158 -161h-54z" />
    <glyph glyph-name="ecircumflex" unicode="&#xea;" horiz-adv-x="554" 
d="M498 48q-15 -14 -36.5 -25t-46.5 -19t-52 -12.5t-52 -4.5q-61 0 -109.5 19t-82.5 52.5t-52.5 81t-18.5 104.5q0 64 21 113t55.5 82.5t79 50.5t90.5 17q104 0 160.5 -60.5t57.5 -168.5q0 -11 -0.5 -23.5t-2.5 -26.5h-404q2 -40 16.5 -74.5t41.5 -60t65 -40.5t87 -15
q48 0 96 16t83 51h4v-57zM456 287q0 75 -40.5 122.5t-128.5 47.5q-28 0 -59 -10.5t-57 -32.5t-44.5 -56t-21.5 -81h351v10zM149 575v4l133 156h33l135 -156v-4h-55l-98 100l-95 -100h-53z" />
    <glyph glyph-name="edieresis" unicode="&#xeb;" horiz-adv-x="554" 
d="M498 48q-15 -14 -36.5 -25t-46.5 -19t-52 -12.5t-52 -4.5q-61 0 -109.5 19t-82.5 52.5t-52.5 81t-18.5 104.5q0 64 21 113t55.5 82.5t79 50.5t90.5 17q104 0 160.5 -60.5t57.5 -168.5q0 -11 -0.5 -23.5t-2.5 -26.5h-404q2 -40 16.5 -74.5t41.5 -60t65 -40.5t87 -15
q48 0 96 16t83 51h4v-57zM456 287q0 75 -40.5 122.5t-128.5 47.5q-28 0 -59 -10.5t-57 -32.5t-44.5 -56t-21.5 -81h351v10zM251 656q0 -19 -12 -29.5t-29 -10.5t-28.5 10.5t-11.5 29.5q0 21 12.5 31.5t28.5 10.5q14 0 27 -10t13 -32zM424 656q0 -19 -12 -29.5t-29 -10.5
t-28.5 10.5t-11.5 29.5q0 21 12.5 31.5t28.5 10.5q14 0 27 -10t13 -32z" />
    <glyph glyph-name="igrave" unicode="&#xec;" horiz-adv-x="228" 
d="M130 579l-160 161v4h85l130 -161v-4h-55zM87 0v492h54v-492h-54z" />
    <glyph glyph-name="iacute" unicode="&#xed;" horiz-adv-x="228" 
d="M49 579v4l129 161h83v-4l-158 -161h-54zM87 0v492h54v-492h-54z" />
    <glyph glyph-name="icircumflex" unicode="&#xee;" horiz-adv-x="228" 
d="M87 0v492h54v-492h-54zM-37 575v4l133 156h33l135 -156v-4h-55l-98 100l-95 -100h-53z" />
    <glyph glyph-name="idieresis" unicode="&#xef;" horiz-adv-x="228" 
d="M66 656q0 -19 -12 -29.5t-29 -10.5t-28.5 10.5t-11.5 29.5q0 21 12.5 31.5t28.5 10.5q14 0 27 -10t13 -32zM239 656q0 -19 -12 -29.5t-29 -10.5t-28.5 10.5t-11.5 29.5q0 21 12.5 31.5t28.5 10.5q14 0 27 -10t13 -32zM87 0v492h54v-492h-54z" />
    <glyph glyph-name="eth" unicode="&#xf0;" horiz-adv-x="600" 
d="M433 631q26 -27 49 -61.5t40 -79t26.5 -98.5t9.5 -120q0 -75 -21.5 -128.5t-57 -88.5t-82 -51.5t-96.5 -16.5q-47 0 -93.5 14.5t-83 46t-59.5 81.5t-23 120q0 64 23.5 111.5t61 79t84 47t91.5 15.5q66 0 114 -24.5t73 -66.5q-2 16 -9 38.5t-19 48.5t-30.5 53.5
t-43.5 53.5l-123 -71v50l89 51q-27 21 -61.5 38.5t-76.5 28.5l16 42q37 -10 81 -29t87 -54l104 60v-50zM501 251q0 54 -17 91.5t-45.5 61.5t-64.5 35t-75 11q-38 0 -74 -13t-64 -38t-45.5 -63t-17.5 -87q0 -57 17 -97t45.5 -65.5t65 -37t74.5 -11.5q39 0 75 12.5t64 38.5
t45 66t17 96z" />
    <glyph glyph-name="ntilde" unicode="&#xf1;" horiz-adv-x="584" 
d="M86 0v492h54v-84q24 40 72.5 68t117.5 28t110 -28.5t53 -77.5q6 -22 8 -48t2 -62v-288h-54v282q0 39 -4.5 68t-12.5 43q-13 25 -40.5 42t-75.5 17q-27 0 -54 -8t-50.5 -22t-42.5 -33t-29 -40v-349h-54zM142 602q5 56 29.5 82t59.5 26q20 0 35 -7t39 -24q40 -29 60 -29
q18 0 27 13t13 48h43q-2 -30 -9.5 -51t-19.5 -35t-26 -20.5t-29 -6.5q-22 0 -37.5 7t-42.5 25q-20 14 -32.5 21t-23.5 7q-34 0 -43 -56h-43z" />
    <glyph glyph-name="ograve" unicode="&#xf2;" horiz-adv-x="612" 
d="M563 247q0 -55 -19.5 -102.5t-54 -82.5t-82 -55t-102.5 -20t-102 20t-81.5 55t-54 82.5t-19.5 102.5q0 54 20.5 101.5t55.5 83t82.5 55.5t101.5 20q55 0 102 -19.5t81 -54t53 -82.5t19 -104zM507 247q0 43 -15 81t-42 66.5t-64 44.5t-80 16t-80 -16t-64 -44.5
t-42.5 -66.5t-15.5 -81q0 -45 15.5 -83t42.5 -65.5t64 -43.5t80 -16q44 0 81 16t63.5 44.5t41.5 66t15 81.5zM321 579l-160 161v4h85l130 -161v-4h-55z" />
    <glyph glyph-name="oacute" unicode="&#xf3;" horiz-adv-x="612" 
d="M563 247q0 -55 -19.5 -102.5t-54 -82.5t-82 -55t-102.5 -20t-102 20t-81.5 55t-54 82.5t-19.5 102.5q0 54 20.5 101.5t55.5 83t82.5 55.5t101.5 20q55 0 102 -19.5t81 -54t53 -82.5t19 -104zM507 247q0 43 -15 81t-42 66.5t-64 44.5t-80 16t-80 -16t-64 -44.5
t-42.5 -66.5t-15.5 -81q0 -45 15.5 -83t42.5 -65.5t64 -43.5t80 -16q44 0 81 16t63.5 44.5t41.5 66t15 81.5zM231 579v4l129 161h83v-4l-158 -161h-54z" />
    <glyph glyph-name="ocircumflex" unicode="&#xf4;" horiz-adv-x="612" 
d="M563 247q0 -55 -19.5 -102.5t-54 -82.5t-82 -55t-102.5 -20t-102 20t-81.5 55t-54 82.5t-19.5 102.5q0 54 20.5 101.5t55.5 83t82.5 55.5t101.5 20q55 0 102 -19.5t81 -54t53 -82.5t19 -104zM507 247q0 43 -15 81t-42 66.5t-64 44.5t-80 16t-80 -16t-64 -44.5
t-42.5 -66.5t-15.5 -81q0 -45 15.5 -83t42.5 -65.5t64 -43.5t80 -16q44 0 81 16t63.5 44.5t41.5 66t15 81.5zM154 575v4l133 156h33l135 -156v-4h-55l-98 100l-95 -100h-53z" />
    <glyph glyph-name="otilde" unicode="&#xf5;" horiz-adv-x="612" 
d="M563 247q0 -55 -19.5 -102.5t-54 -82.5t-82 -55t-102.5 -20t-102 20t-81.5 55t-54 82.5t-19.5 102.5q0 54 20.5 101.5t55.5 83t82.5 55.5t101.5 20q55 0 102 -19.5t81 -54t53 -82.5t19 -104zM507 247q0 43 -15 81t-42 66.5t-64 44.5t-80 16t-80 -16t-64 -44.5
t-42.5 -66.5t-15.5 -81q0 -45 15.5 -83t42.5 -65.5t64 -43.5t80 -16q44 0 81 16t63.5 44.5t41.5 66t15 81.5zM151 602q5 56 29.5 82t59.5 26q20 0 35 -7t39 -24q40 -29 60 -29q18 0 27 13t13 48h43q-2 -30 -9.5 -51t-19.5 -35t-26 -20.5t-29 -6.5q-22 0 -37.5 7t-42.5 25
q-20 14 -32.5 21t-23.5 7q-34 0 -43 -56h-43z" />
    <glyph glyph-name="odieresis" unicode="&#xf6;" horiz-adv-x="612" 
d="M563 247q0 -55 -19.5 -102.5t-54 -82.5t-82 -55t-102.5 -20t-102 20t-81.5 55t-54 82.5t-19.5 102.5q0 54 20.5 101.5t55.5 83t82.5 55.5t101.5 20q55 0 102 -19.5t81 -54t53 -82.5t19 -104zM507 247q0 43 -15 81t-42 66.5t-64 44.5t-80 16t-80 -16t-64 -44.5
t-42.5 -66.5t-15.5 -81q0 -45 15.5 -83t42.5 -65.5t64 -43.5t80 -16q44 0 81 16t63.5 44.5t41.5 66t15 81.5zM258 656q0 -19 -12 -29.5t-29 -10.5t-28.5 10.5t-11.5 29.5q0 21 12.5 31.5t28.5 10.5q14 0 27 -10t13 -32zM431 656q0 -19 -12 -29.5t-29 -10.5t-28.5 10.5
t-11.5 29.5q0 21 12.5 31.5t28.5 10.5q14 0 27 -10t13 -32z" />
    <glyph glyph-name="divide" unicode="&#xf7;" horiz-adv-x="700" 
d="M386 452q0 -20 -11.5 -29t-25.5 -9q-13 0 -24 8.5t-11 29.5q0 20 11 29t25 9t25 -8.5t11 -29.5zM90 272v47h520v-47h-520zM386 131q0 -19 -11.5 -28t-25.5 -9q-13 0 -24 8.5t-11 28.5q0 21 11 30.5t25 9.5t25 -8.5t11 -31.5z" />
    <glyph glyph-name="oslash" unicode="&#xf8;" horiz-adv-x="612" 
d="M88 -50l58 90q-46 35 -72 89t-26 118q0 54 20.5 101.5t55.5 83t82.5 55.5t101.5 20q65 0 119 -28l43 67h47l-56 -87q48 -35 75 -89.5t27 -122.5q0 -55 -19.5 -102.5t-54 -82.5t-82 -55t-102.5 -20q-35 0 -67 8.5t-60 23.5l-44 -69h-46zM507 247q0 51 -20.5 93.5
t-55.5 71.5l-224 -348q45 -25 99 -25q44 0 81 16t63.5 44.5t41.5 66t15 81.5zM104 247q0 -51 19 -92t52 -69l223 347q-42 22 -92 22q-43 0 -80 -16t-64 -44.5t-42.5 -66.5t-15.5 -81z" />
    <glyph glyph-name="ugrave" unicode="&#xf9;" horiz-adv-x="584" 
d="M446 0v79q-25 -38 -71 -64.5t-115 -26.5q-71 0 -113.5 28.5t-55.5 77.5q-11 44 -11 114v284h54v-278q0 -39 5 -69.5t13 -45.5q12 -24 41 -41.5t79 -17.5q56 0 102 29t69 68v355h54v-492h-51zM299 579l-160 161v4h85l130 -161v-4h-55z" />
    <glyph glyph-name="uacute" unicode="&#xfa;" horiz-adv-x="584" 
d="M446 0v79q-25 -38 -71 -64.5t-115 -26.5q-71 0 -113.5 28.5t-55.5 77.5q-11 44 -11 114v284h54v-278q0 -39 5 -69.5t13 -45.5q12 -24 41 -41.5t79 -17.5q56 0 102 29t69 68v355h54v-492h-51zM228 579v4l129 161h83v-4l-158 -161h-54z" />
    <glyph glyph-name="ucircumflex" unicode="&#xfb;" horiz-adv-x="584" 
d="M446 0v79q-25 -38 -71 -64.5t-115 -26.5q-71 0 -113.5 28.5t-55.5 77.5q-11 44 -11 114v284h54v-278q0 -39 5 -69.5t13 -45.5q12 -24 41 -41.5t79 -17.5q56 0 102 29t69 68v355h54v-492h-51zM141 575v4l133 156h33l135 -156v-4h-55l-98 100l-95 -100h-53z" />
    <glyph glyph-name="udieresis" unicode="&#xfc;" horiz-adv-x="584" 
d="M446 0v79q-25 -38 -71 -64.5t-115 -26.5q-71 0 -113.5 28.5t-55.5 77.5q-11 44 -11 114v284h54v-278q0 -39 5 -69.5t13 -45.5q12 -24 41 -41.5t79 -17.5q56 0 102 29t69 68v355h54v-492h-51zM245 656q0 -19 -12 -29.5t-29 -10.5t-28.5 10.5t-11.5 29.5q0 21 12.5 31.5
t28.5 10.5q14 0 27 -10t13 -32zM418 656q0 -19 -12 -29.5t-29 -10.5t-28.5 10.5t-11.5 29.5q0 21 12.5 31.5t28.5 10.5q14 0 27 -10t13 -32z" />
    <glyph glyph-name="yacute" unicode="&#xfd;" horiz-adv-x="482" 
d="M12 -140h4q11 -9 30 -14.5t40 -5.5q31 0 48.5 13.5t28.5 30.5q9 14 18.5 35t17.5 42l18 46l-210 485h62q44 -102 73 -169t48 -113t32 -78.5t25 -65.5q12 32 24.5 64.5t31.5 79.5t46.5 114t68.5 168h60l-210 -501q-13 -30 -22.5 -52t-17 -38.5t-14 -28t-12.5 -21.5
q-21 -33 -50.5 -48t-64.5 -15q-21 0 -40.5 4t-34.5 14v54zM187 579v4l129 161h83v-4l-158 -161h-54z" />
    <glyph glyph-name="thorn" unicode="&#xfe;" horiz-adv-x="639" 
d="M86 -194v922h54v-337q12 25 33 46.5t48.5 37t59.5 24t65 8.5q46 0 90 -16t78.5 -48.5t55.5 -80t21 -110.5q0 -65 -21.5 -113.5t-56.5 -81t-81 -49t-95 -16.5q-30 0 -59.5 6.5t-55.5 19t-47 30.5t-35 42v-284h-54zM140 172q12 -33 33.5 -57.5t48 -40t56.5 -23t60 -7.5
q38 0 73.5 12.5t62.5 38.5t43.5 64.5t16.5 91.5q0 54 -18.5 93t-47 63.5t-63.5 36t-67 11.5q-29 0 -59 -8.5t-57 -25t-48.5 -42.5t-33.5 -60v-147z" />
    <glyph glyph-name="ydieresis" unicode="&#xff;" horiz-adv-x="482" 
d="M12 -140h4q11 -9 30 -14.5t40 -5.5q31 0 48.5 13.5t28.5 30.5q9 14 18.5 35t17.5 42l18 46l-210 485h62q44 -102 73 -169t48 -113t32 -78.5t25 -65.5q12 32 24.5 64.5t31.5 79.5t46.5 114t68.5 168h60l-210 -501q-13 -30 -22.5 -52t-17 -38.5t-14 -28t-12.5 -21.5
q-21 -33 -50.5 -48t-64.5 -15q-21 0 -40.5 4t-34.5 14v54zM202 656q0 -19 -12 -29.5t-29 -10.5t-28.5 10.5t-11.5 29.5q0 21 12.5 31.5t28.5 10.5q14 0 27 -10t13 -32zM375 656q0 -19 -12 -29.5t-29 -10.5t-28.5 10.5t-11.5 29.5q0 21 12.5 31.5t28.5 10.5q14 0 27 -10
t13 -32z" />
    <glyph glyph-name="Amacron" unicode="&#x100;" horiz-adv-x="628" 
d="M4 0l287 689h52l281 -689h-65l-88 219h-315l-90 -219h-62zM451 272q-35 87 -57.5 144l-37.5 95t-24 62t-16 44q-7 -20 -16 -43.5t-24.5 -62t-39 -95.5t-59.5 -144h274zM164 779v51h304v-51h-304z" />
    <glyph glyph-name="amacron" unicode="&#x101;" horiz-adv-x="536" 
d="M529 4q-21 -11 -52 -11q-33 0 -56.5 16t-28.5 54q-27 -37 -70.5 -56.5t-97.5 -19.5q-41 0 -74 11t-57 30.5t-37 47t-13 60.5q0 47 24 77.5t63 47.5q35 15 78 20t92 5q6 0 17.5 -0.5t24.5 -1.5t24.5 -2.5t18.5 -2.5v42q0 23 -4 45.5t-15 39.5q-17 27 -46 37.5t-66 10.5
q-18 0 -41.5 -4.5t-47 -13.5t-45.5 -22.5t-38 -31.5h-4v58q34 32 84 49.5t100 17.5q42 0 80.5 -11.5t63.5 -43.5q17 -22 25.5 -51t8.5 -82v-37.5t-0.5 -49.5t-0.5 -50.5v-40.5q0 -56 8 -74q5 -10 14 -16.5t27 -6.5q11 0 22 2.5t19 6.5v-49zM386 114q-1 16 -1 45.5v72.5
q-9 2 -22 3.5t-25.5 2.5t-24 1.5t-18.5 0.5q-41 0 -73 -3.5t-57 -13.5q-27 -10 -46.5 -29t-19.5 -57q0 -41 33 -70t101 -29q51 0 90.5 20.5t62.5 55.5zM118 597v51h294v-51h-294z" />
    <glyph glyph-name="Abreve" unicode="&#x102;" horiz-adv-x="628" 
d="M4 0l287 689h52l281 -689h-65l-88 219h-315l-90 -219h-62zM451 272q-35 87 -57.5 144l-37.5 95t-24 62t-16 44q-7 -20 -16 -43.5t-24.5 -62t-39 -95.5t-59.5 -144h274zM214 884q1 -27 9.5 -45t22 -29t31 -15.5t37.5 -4.5q48 0 74.5 22.5t28.5 71.5h47q0 -30 -10 -56.5
t-28.5 -46t-47 -30.5t-65.5 -11q-72 0 -108.5 40t-36.5 104h46z" />
    <glyph glyph-name="abreve" unicode="&#x103;" horiz-adv-x="536" 
d="M529 4q-21 -11 -52 -11q-33 0 -56.5 16t-28.5 54q-27 -37 -70.5 -56.5t-97.5 -19.5q-41 0 -74 11t-57 30.5t-37 47t-13 60.5q0 47 24 77.5t63 47.5q35 15 78 20t92 5q6 0 17.5 -0.5t24.5 -1.5t24.5 -2.5t18.5 -2.5v42q0 23 -4 45.5t-15 39.5q-17 27 -46 37.5t-66 10.5
q-18 0 -41.5 -4.5t-47 -13.5t-45.5 -22.5t-38 -31.5h-4v58q34 32 84 49.5t100 17.5q42 0 80.5 -11.5t63.5 -43.5q17 -22 25.5 -51t8.5 -82v-37.5t-0.5 -49.5t-0.5 -50.5v-40.5q0 -56 8 -74q5 -10 14 -16.5t27 -6.5q11 0 22 2.5t19 6.5v-49zM386 114q-1 16 -1 45.5v72.5
q-9 2 -22 3.5t-25.5 2.5t-24 1.5t-18.5 0.5q-41 0 -73 -3.5t-57 -13.5q-27 -10 -46.5 -29t-19.5 -57q0 -41 33 -70t101 -29q51 0 90.5 20.5t62.5 55.5zM162 714q2 -55 29.5 -77.5t65.5 -22.5q94 0 98 100h45q0 -30 -9 -57.5t-27 -47.5t-45 -32t-63 -12q-70 0 -104 42
t-34 107h44z" />
    <glyph glyph-name="Aogonek" unicode="&#x104;" horiz-adv-x="628" 
d="M624 0h-9q-59 -35 -84 -66.5t-25 -70.5q0 -32 20 -50t55 -18q15 0 32.5 4t31.5 14h4v-40q-16 -11 -37.5 -17t-41.5 -6q-23 0 -44.5 6.5t-38 19.5t-26.5 33.5t-10 49.5q0 45 26 78.5t82 62.5l-88 219h-315l-90 -219h-62l287 689h52zM451 272q-35 87 -57.5 144l-37.5 95
t-24 62t-16 44q-7 -20 -16 -43.5t-24.5 -62t-39 -95.5t-59.5 -144h274z" />
    <glyph glyph-name="aogonek" unicode="&#x105;" horiz-adv-x="536" 
d="M529 4q-21 -11 -52 -11q-10 0 -15 1q-49 -32 -70 -61.5t-21 -63.5q0 -32 19.5 -49t52.5 -17q16 0 33.5 5t30.5 13h4v-40q-16 -11 -36.5 -16t-40.5 -5q-23 0 -43.5 6t-37 18.5t-26 32.5t-9.5 48q0 84 108 140q-28 17 -34 58q-27 -37 -70.5 -56.5t-97.5 -19.5q-41 0 -74 11
t-57 30.5t-37 47t-13 60.5q0 47 24 77.5t63 47.5q35 15 78 20t92 5q6 0 17.5 -0.5t24.5 -1.5t24.5 -2.5t18.5 -2.5v42q0 23 -4 45.5t-15 39.5q-17 27 -46 37.5t-66 10.5q-18 0 -41.5 -4.5t-47 -13.5t-45.5 -22.5t-38 -31.5h-4v58q34 32 84 49.5t100 17.5q42 0 80.5 -11.5
t63.5 -43.5q17 -22 25.5 -51t8.5 -82v-37.5t-0.5 -49.5t-0.5 -50.5v-40.5q0 -56 8 -74q5 -10 14 -16.5t27 -6.5q11 0 22 2.5t19 6.5v-49zM386 114q-1 16 -1 45.5v72.5q-9 2 -22 3.5t-25.5 2.5t-24 1.5t-18.5 0.5q-41 0 -73 -3.5t-57 -13.5q-27 -10 -46.5 -29t-19.5 -57
q0 -41 33 -70t101 -29q51 0 90.5 20.5t62.5 55.5z" />
    <glyph glyph-name="Cacute" unicode="&#x106;" horiz-adv-x="674" 
d="M615 55q-16 -15 -39.5 -27.5t-51.5 -21.5t-59.5 -14.5t-62.5 -5.5q-73 0 -137 24t-112 70t-75.5 113t-27.5 152q0 86 29.5 153t79 113t115.5 70t138 24q27 0 56 -4.5t56 -12.5t50 -19.5t38 -25.5v-66h-4q-16 18 -39 31.5t-49.5 23t-54.5 14.5t-55 5q-65 0 -120.5 -21.5
t-95.5 -61t-62.5 -95.5t-22.5 -124q0 -74 22.5 -131.5t62 -97t94.5 -60t120 -20.5q62 0 113.5 20.5t89.5 57.5h4v-63zM302 750v4l155 130h97v-4l-186 -130h-66z" />
    <glyph glyph-name="cacute" unicode="&#x107;" horiz-adv-x="510" 
d="M477 45q-31 -27 -76 -42.5t-96 -15.5q-53 0 -99.5 18t-81.5 52t-55.5 81t-20.5 106t20.5 107.5t56.5 83t84.5 53.5t105.5 19q48 0 92 -15.5t67 -40.5v-65h-4q-12 16 -30.5 29t-40 22t-44 13.5t-43.5 4.5q-39 0 -76.5 -13t-67 -39.5t-47 -65.5t-17.5 -90q0 -56 19 -95.5
t49 -64.5t66.5 -37t71.5 -12q51 0 92.5 18t70.5 50h4v-61zM232 579v4l129 161h83v-4l-158 -161h-54z" />
    <glyph glyph-name="Ccircumflex" unicode="&#x108;" horiz-adv-x="674" 
d="M615 55q-16 -15 -39.5 -27.5t-51.5 -21.5t-59.5 -14.5t-62.5 -5.5q-73 0 -137 24t-112 70t-75.5 113t-27.5 152q0 86 29.5 153t79 113t115.5 70t138 24q27 0 56 -4.5t56 -12.5t50 -19.5t38 -25.5v-66h-4q-16 18 -39 31.5t-49.5 23t-54.5 14.5t-55 5q-65 0 -120.5 -21.5
t-95.5 -61t-62.5 -95.5t-22.5 -124q0 -74 22.5 -131.5t62 -97t94.5 -60t120 -20.5q62 0 113.5 20.5t89.5 57.5h4v-63zM228 750v4l143 130h38l143 -130v-4h-63l-101 79l-97 -79h-63z" />
    <glyph glyph-name="ccircumflex" unicode="&#x109;" horiz-adv-x="510" 
d="M477 45q-31 -27 -76 -42.5t-96 -15.5q-53 0 -99.5 18t-81.5 52t-55.5 81t-20.5 106t20.5 107.5t56.5 83t84.5 53.5t105.5 19q48 0 92 -15.5t67 -40.5v-65h-4q-12 16 -30.5 29t-40 22t-44 13.5t-43.5 4.5q-39 0 -76.5 -13t-67 -39.5t-47 -65.5t-17.5 -90q0 -56 19 -95.5
t49 -64.5t66.5 -37t71.5 -12q51 0 92.5 18t70.5 50h4v-61zM156 575v4l133 156h33l135 -156v-4h-55l-98 100l-95 -100h-53z" />
    <glyph glyph-name="Cdotaccent" unicode="&#x10a;" horiz-adv-x="674" 
d="M615 55q-16 -15 -39.5 -27.5t-51.5 -21.5t-59.5 -14.5t-62.5 -5.5q-73 0 -137 24t-112 70t-75.5 113t-27.5 152q0 86 29.5 153t79 113t115.5 70t138 24q27 0 56 -4.5t56 -12.5t50 -19.5t38 -25.5v-66h-4q-16 18 -39 31.5t-49.5 23t-54.5 14.5t-55 5q-65 0 -120.5 -21.5
t-95.5 -61t-62.5 -95.5t-22.5 -124q0 -74 22.5 -131.5t62 -97t94.5 -60t120 -20.5q62 0 113.5 20.5t89.5 57.5h4v-63zM418 808q0 -19 -12 -30t-29 -11t-28.5 10.5t-11.5 30.5t12.5 30.5t28.5 10.5q14 0 27 -10t13 -31z" />
    <glyph glyph-name="cdotaccent" unicode="&#x10b;" horiz-adv-x="510" 
d="M477 45q-31 -27 -76 -42.5t-96 -15.5q-53 0 -99.5 18t-81.5 52t-55.5 81t-20.5 106t20.5 107.5t56.5 83t84.5 53.5t105.5 19q48 0 92 -15.5t67 -40.5v-65h-4q-12 16 -30.5 29t-40 22t-44 13.5t-43.5 4.5q-39 0 -76.5 -13t-67 -39.5t-47 -65.5t-17.5 -90q0 -56 19 -95.5
t49 -64.5t66.5 -37t71.5 -12q51 0 92.5 18t70.5 50h4v-61zM343 656q0 -19 -12 -29.5t-29 -10.5t-28.5 10.5t-11.5 29.5q0 21 12.5 31.5t28.5 10.5q14 0 27 -10t13 -32z" />
    <glyph glyph-name="Ccaron" unicode="&#x10c;" horiz-adv-x="674" 
d="M615 55q-16 -15 -39.5 -27.5t-51.5 -21.5t-59.5 -14.5t-62.5 -5.5q-73 0 -137 24t-112 70t-75.5 113t-27.5 152q0 86 29.5 153t79 113t115.5 70t138 24q27 0 56 -4.5t56 -12.5t50 -19.5t38 -25.5v-66h-4q-16 18 -39 31.5t-49.5 23t-54.5 14.5t-55 5q-65 0 -120.5 -21.5
t-95.5 -61t-62.5 -95.5t-22.5 -124q0 -74 22.5 -131.5t62 -97t94.5 -60t120 -20.5q62 0 113.5 20.5t89.5 57.5h4v-63zM548 884v-4l-141 -130h-38l-143 130v4h63l101 -79l96 79h62z" />
    <glyph glyph-name="ccaron" unicode="&#x10d;" horiz-adv-x="510" 
d="M477 45q-31 -27 -76 -42.5t-96 -15.5q-53 0 -99.5 18t-81.5 52t-55.5 81t-20.5 106t20.5 107.5t56.5 83t84.5 53.5t105.5 19q48 0 92 -15.5t67 -40.5v-65h-4q-12 16 -30.5 29t-40 22t-44 13.5t-43.5 4.5q-39 0 -76.5 -13t-67 -39.5t-47 -65.5t-17.5 -90q0 -56 19 -95.5
t49 -64.5t66.5 -37t71.5 -12q51 0 92.5 18t70.5 50h4v-61zM442 739v-4l-133 -156h-33l-135 156v4h55l98 -100l95 100h53z" />
    <glyph glyph-name="Dcaron" unicode="&#x10e;" horiz-adv-x="729" 
d="M95 689h179q63 0 110.5 -6t81.5 -16q47 -14 86 -39.5t66.5 -64t43 -91t15.5 -119.5q0 -120 -50.5 -202.5t-153.5 -120.5q-42 -15 -96 -22.5t-126 -7.5h-156v689zM271 53q71 0 125 12t86 29q68 35 100.5 100.5t32.5 156.5q0 42 -8.5 81.5t-27 73.5t-47.5 61t-71 42
q-29 11 -73 18.5t-101 7.5h-136v-582h120zM486 884v-4l-141 -130h-38l-143 130v4h63l101 -79l96 79h62z" />
    <glyph glyph-name="dcaron" unicode="&#x10f;" horiz-adv-x="639" 
d="M500 0v101q-23 -50 -74 -82t-125 -32q-48 0 -94 17t-81 49.5t-56.5 80t-21.5 109.5q0 65 22.5 114.5t59 82.5t83 50t94.5 17q63 0 113.5 -24.5t79.5 -72.5v318h53v-728h-53zM499 328q-11 32 -31.5 56t-46 39.5t-54.5 23.5t-58 8q-37 0 -73.5 -12t-66 -38t-47.5 -66
t-18 -96q0 -53 17.5 -91t46.5 -63.5t65 -37.5t74 -12q30 0 59.5 8.5t55 25.5t45.5 42.5t32 59.5v153zM587 513v4q28 23 51.5 58.5t23.5 83.5q0 17 -2.5 34.5t-10.5 34.5h58q5 -13 7.5 -30.5t2.5 -32.5q0 -51 -25.5 -89.5t-55.5 -62.5h-49z" />
    <glyph glyph-name="Dcroat" unicode="&#x110;" horiz-adv-x="727" 
d="M95 333h-84v51h84v305h179q63 0 110.5 -6t81.5 -16q47 -14 86 -39.5t66.5 -64t43 -91t15.5 -119.5q0 -120 -50.5 -202.5t-153.5 -120.5q-42 -15 -96 -22.5t-126 -7.5h-156v333zM271 53q71 0 125 12t86 29q68 34 100.5 100t32.5 157q0 42 -8.5 81.5t-27 73.5t-47.5 61
t-71 42q-29 11 -73 18.5t-101 7.5h-136v-251h236v-51h-236v-280h120z" />
    <glyph glyph-name="dcroat" unicode="&#x111;" horiz-adv-x="639" 
d="M500 0v101q-23 -50 -74 -82t-125 -32q-48 0 -94 17t-81 49.5t-56.5 80t-21.5 109.5q0 65 22.5 114.5t59 82.5t83 50t94.5 17q63 0 113.5 -24.5t79.5 -72.5v152h-162v46h162v120h53v-120h75v-46h-75v-562h-53zM499 328q-11 32 -31.5 56t-46 39.5t-54.5 23.5t-58 8
q-37 0 -73.5 -12t-66 -38t-47.5 -66t-18 -96q0 -53 17.5 -91t46.5 -63.5t65 -37.5t74 -12q30 0 59.5 8.5t55 25.5t45.5 42.5t32 59.5v153z" />
    <glyph glyph-name="Emacron" unicode="&#x112;" horiz-adv-x="551" 
d="M95 0v689h396v-54h-339v-250h319v-53h-319v-279h356v-53h-413zM148 779v51h304v-51h-304z" />
    <glyph glyph-name="emacron" unicode="&#x113;" horiz-adv-x="554" 
d="M498 48q-15 -14 -36.5 -25t-46.5 -19t-52 -12.5t-52 -4.5q-61 0 -109.5 19t-82.5 52.5t-52.5 81t-18.5 104.5q0 64 21 113t55.5 82.5t79 50.5t90.5 17q104 0 160.5 -60.5t57.5 -168.5q0 -11 -0.5 -23.5t-2.5 -26.5h-404q2 -40 16.5 -74.5t41.5 -60t65 -40.5t87 -15
q48 0 96 16t83 51h4v-57zM456 287q0 75 -40.5 122.5t-128.5 47.5q-28 0 -59 -10.5t-57 -32.5t-44.5 -56t-21.5 -81h351v10zM158 597v51h294v-51h-294z" />
    <glyph glyph-name="Ebreve" unicode="&#x114;" horiz-adv-x="551" 
d="M95 0v689h396v-54h-339v-250h319v-53h-319v-279h356v-53h-413zM194 884q1 -27 9.5 -45t22 -29t31 -15.5t37.5 -4.5q48 0 74.5 22.5t28.5 71.5h47q0 -30 -10 -56.5t-28.5 -46t-47 -30.5t-65.5 -11q-72 0 -108.5 40t-36.5 104h46z" />
    <glyph glyph-name="ebreve" unicode="&#x115;" horiz-adv-x="554" 
d="M498 48q-15 -14 -36.5 -25t-46.5 -19t-52 -12.5t-52 -4.5q-61 0 -109.5 19t-82.5 52.5t-52.5 81t-18.5 104.5q0 64 21 113t55.5 82.5t79 50.5t90.5 17q104 0 160.5 -60.5t57.5 -168.5q0 -11 -0.5 -23.5t-2.5 -26.5h-404q2 -40 16.5 -74.5t41.5 -60t65 -40.5t87 -15
q48 0 96 16t83 51h4v-57zM456 287q0 75 -40.5 122.5t-128.5 47.5q-28 0 -59 -10.5t-57 -32.5t-44.5 -56t-21.5 -81h351v10zM200 714q2 -55 29.5 -77.5t65.5 -22.5q94 0 98 100h45q0 -30 -9 -57.5t-27 -47.5t-45 -32t-63 -12q-70 0 -104 42t-34 107h44z" />
    <glyph glyph-name="Edotaccent" unicode="&#x116;" horiz-adv-x="551" 
d="M95 0v689h396v-54h-339v-250h319v-53h-319v-279h356v-53h-413zM345 808q0 -19 -12 -30t-29 -11t-28.5 10.5t-11.5 30.5t12.5 30.5t28.5 10.5q14 0 27 -10t13 -31z" />
    <glyph glyph-name="edotaccent" unicode="&#x117;" horiz-adv-x="554" 
d="M498 48q-15 -14 -36.5 -25t-46.5 -19t-52 -12.5t-52 -4.5q-61 0 -109.5 19t-82.5 52.5t-52.5 81t-18.5 104.5q0 64 21 113t55.5 82.5t79 50.5t90.5 17q104 0 160.5 -60.5t57.5 -168.5q0 -11 -0.5 -23.5t-2.5 -26.5h-404q2 -40 16.5 -74.5t41.5 -60t65 -40.5t87 -15
q48 0 96 16t83 51h4v-57zM456 287q0 75 -40.5 122.5t-128.5 47.5q-28 0 -59 -10.5t-57 -32.5t-44.5 -56t-21.5 -81h351v10zM339 656q0 -19 -12 -29.5t-29 -10.5t-28.5 10.5t-11.5 29.5q0 21 12.5 31.5t28.5 10.5q14 0 27 -10t13 -32z" />
    <glyph glyph-name="Eogonek" unicode="&#x118;" horiz-adv-x="551" 
d="M471 0q-59 -35 -84 -66.5t-25 -70.5q0 -32 20 -50t55 -18q15 0 32.5 4t31.5 14h4v-40q-16 -11 -37.5 -17t-41.5 -6q-23 0 -44.5 6.5t-38 19.5t-26.5 33.5t-10 49.5q0 45 26 78.5t82 62.5h-320v689h396v-54h-339v-250h319v-53h-319v-279h356v-53h-37z" />
    <glyph glyph-name="eogonek" unicode="&#x119;" horiz-adv-x="554" 
d="M498 48q-20 -19 -51.5 -32.5t-66.5 -21.5q-50 -32 -71 -61.5t-21 -63.5q0 -32 19.5 -49t52.5 -17q16 0 33.5 5t30.5 13h4v-40q-16 -11 -36.5 -16t-40.5 -5q-23 0 -43.5 6t-37 18.5t-26 32.5t-9.5 48q0 72 77 122h-1q-61 0 -109.5 19t-82.5 52.5t-52.5 81t-18.5 104.5
q0 64 21 113t55.5 82.5t79 50.5t90.5 17q104 0 160.5 -60.5t57.5 -168.5q0 -11 -0.5 -23.5t-2.5 -26.5h-404q2 -40 16.5 -74.5t41.5 -60t65 -40.5t87 -15q48 0 96 16t83 51h4v-57zM456 287q0 75 -40.5 122.5t-128.5 47.5q-28 0 -59 -10.5t-57 -32.5t-44.5 -56t-21.5 -81h351
v10z" />
    <glyph glyph-name="Ecaron" unicode="&#x11a;" horiz-adv-x="551" 
d="M95 0v689h396v-54h-339v-250h319v-53h-319v-279h356v-53h-413zM458 884v-4l-141 -130h-38l-143 130v4h63l101 -79l96 79h62z" />
    <glyph glyph-name="ecaron" unicode="&#x11b;" horiz-adv-x="554" 
d="M498 48q-15 -14 -36.5 -25t-46.5 -19t-52 -12.5t-52 -4.5q-61 0 -109.5 19t-82.5 52.5t-52.5 81t-18.5 104.5q0 64 21 113t55.5 82.5t79 50.5t90.5 17q104 0 160.5 -60.5t57.5 -168.5q0 -11 -0.5 -23.5t-2.5 -26.5h-404q2 -40 16.5 -74.5t41.5 -60t65 -40.5t87 -15
q48 0 96 16t83 51h4v-57zM456 287q0 75 -40.5 122.5t-128.5 47.5q-28 0 -59 -10.5t-57 -32.5t-44.5 -56t-21.5 -81h351v10zM447 724v-4l-133 -156h-33l-135 156v4h55l98 -100l95 100h53z" />
    <glyph glyph-name="Gcircumflex" unicode="&#x11c;" horiz-adv-x="732" 
d="M649 59q-47 -35 -111 -54t-133 -19q-73 0 -137.5 23.5t-112.5 69t-76 112.5t-28 154q0 88 30 155t80.5 112.5t116.5 69t138 23.5q63 0 120 -17t88 -45v-66h-4q-32 32 -84.5 53t-121.5 21q-67 0 -122.5 -20.5t-95.5 -59.5t-62.5 -95t-22.5 -126q0 -74 22.5 -131.5
t62.5 -97.5t95.5 -60.5t120.5 -20.5q54 0 99.5 12.5t79.5 32.5v208h-180v54h238v-288zM236 750v4l143 130h38l143 -130v-4h-63l-101 79l-97 -79h-63z" />
    <glyph glyph-name="gcircumflex" unicode="&#x11d;" horiz-adv-x="627" 
d="M104 -84h4q32 -34 84 -52.5t107 -18.5q35 0 61.5 6t46 15.5t32.5 22t22 25.5q14 21 20.5 54.5t6.5 77.5v62q-22 -47 -70.5 -79t-121.5 -32q-50 0 -95 16t-78.5 47.5t-53.5 77.5t-20 106q0 68 23 117.5t60 82t83 48.5t91 16q64 0 112 -25.5t71 -71.5v82h53v-446
q0 -58 -8.5 -94.5t-22.5 -60.5q-26 -45 -79 -72t-137 -27q-64 0 -114.5 18.5t-76.5 42.5v62zM488 333q-22 61 -71.5 92t-110.5 31q-38 0 -74 -13t-64.5 -39t-46 -65.5t-17.5 -93.5q0 -50 16.5 -87t44 -61t63.5 -36t75 -12q63 0 113 34t72 96v154zM169 575v4l133 156h33
l135 -156v-4h-55l-98 100l-95 -100h-53z" />
    <glyph glyph-name="Gbreve" unicode="&#x11e;" horiz-adv-x="732" 
d="M649 59q-47 -35 -111 -54t-133 -19q-73 0 -137.5 23.5t-112.5 69t-76 112.5t-28 154q0 88 30 155t80.5 112.5t116.5 69t138 23.5q63 0 120 -17t88 -45v-66h-4q-32 32 -84.5 53t-121.5 21q-67 0 -122.5 -20.5t-95.5 -59.5t-62.5 -95t-22.5 -126q0 -74 22.5 -131.5
t62.5 -97.5t95.5 -60.5t120.5 -20.5q54 0 99.5 12.5t79.5 32.5v208h-180v54h238v-288zM298 884q1 -27 9.5 -45t22 -29t31 -15.5t37.5 -4.5q48 0 74.5 22.5t28.5 71.5h47q0 -30 -10 -56.5t-28.5 -46t-47 -30.5t-65.5 -11q-72 0 -108.5 40t-36.5 104h46z" />
    <glyph glyph-name="gbreve" unicode="&#x11f;" horiz-adv-x="627" 
d="M104 -85h4q32 -34 84 -52.5t107 -18.5q35 0 61.5 6t46 15.5t32.5 22t22 25.5q14 21 20.5 54.5t6.5 77.5v62q-22 -47 -70.5 -79t-121.5 -32q-50 0 -95 16t-78.5 47.5t-53.5 77.5t-20 106q0 68 23 117.5t60 82t83 48.5t91 16q64 0 112 -25.5t71 -71.5v82h53v-446
q0 -58 -8.5 -94.5t-22.5 -60.5q-26 -45 -79 -72t-137 -27q-64 0 -114.5 18.5t-76.5 42.5v62zM488 332q-22 61 -71.5 92t-110.5 31q-38 0 -74 -13t-64.5 -39t-46 -65.5t-17.5 -93.5q0 -50 16.5 -87t44 -61t63.5 -36t75 -12q63 0 113 34t72 96v154zM217 714q2 -55 29.5 -77.5
t65.5 -22.5q94 0 98 100h45q0 -30 -9 -57.5t-27 -47.5t-45 -32t-63 -12q-70 0 -104 42t-34 107h44z" />
    <glyph glyph-name="Gdotaccent" unicode="&#x120;" horiz-adv-x="732" 
d="M649 59q-47 -35 -111 -54t-133 -19q-73 0 -137.5 23.5t-112.5 69t-76 112.5t-28 154q0 88 30 155t80.5 112.5t116.5 69t138 23.5q63 0 120 -17t88 -45v-66h-4q-32 32 -84.5 53t-121.5 21q-67 0 -122.5 -20.5t-95.5 -59.5t-62.5 -95t-22.5 -126q0 -74 22.5 -131.5
t62.5 -97.5t95.5 -60.5t120.5 -20.5q54 0 99.5 12.5t79.5 32.5v208h-180v54h238v-288zM415 808q0 -19 -12 -30t-29 -11t-28.5 10.5t-11.5 30.5t12.5 30.5t28.5 10.5q14 0 27 -10t13 -31z" />
    <glyph glyph-name="gdotaccent" unicode="&#x121;" horiz-adv-x="627" 
d="M104 -85h4q32 -34 84 -52.5t107 -18.5q35 0 61.5 6t46 15.5t32.5 22t22 25.5q14 21 20.5 54.5t6.5 77.5v62q-22 -47 -70.5 -79t-121.5 -32q-50 0 -95 16t-78.5 47.5t-53.5 77.5t-20 106q0 68 23 117.5t60 82t83 48.5t91 16q64 0 112 -25.5t71 -71.5v82h53v-446
q0 -58 -8.5 -94.5t-22.5 -60.5q-26 -45 -79 -72t-137 -27q-64 0 -114.5 18.5t-76.5 42.5v62zM488 332q-22 61 -71.5 92t-110.5 31q-38 0 -74 -13t-64.5 -39t-46 -65.5t-17.5 -93.5q0 -50 16.5 -87t44 -61t63.5 -36t75 -12q63 0 113 34t72 96v154zM350 656q0 -19 -12 -29.5
t-29 -10.5t-28.5 10.5t-11.5 29.5q0 21 12.5 31.5t28.5 10.5q14 0 27 -10t13 -32z" />
    <glyph glyph-name="uni0122" unicode="&#x122;" horiz-adv-x="732" 
d="M649 59q-47 -35 -111 -54t-133 -19q-73 0 -137.5 23.5t-112.5 69t-76 112.5t-28 154q0 88 30 155t80.5 112.5t116.5 69t138 23.5q63 0 120 -17t88 -45v-66h-4q-32 32 -84.5 53t-121.5 21q-67 0 -122.5 -20.5t-95.5 -59.5t-62.5 -95t-22.5 -126q0 -74 22.5 -131.5
t62.5 -97.5t95.5 -60.5t120.5 -20.5q54 0 99.5 12.5t79.5 32.5v208h-180v54h238v-288zM299 -282v4q28 23 50.5 60t22.5 85q0 17 -2.5 34.5t-9.5 34.5h57q5 -13 8 -30.5t3 -32.5q0 -51 -25 -91t-55 -64h-49z" />
    <glyph glyph-name="uni0123" unicode="&#x123;" horiz-adv-x="627" 
d="M398 792v-4q-29 -23 -52 -58.5t-23 -83.5q0 -17 2.5 -34.5t9.5 -34.5h-59q-5 13 -8 30.5t-3 32.5q0 51 25.5 89.5t55.5 62.5h52zM104 -85h4q32 -34 84 -52.5t107 -18.5q70 0 107.5 21.5t54.5 47.5q14 21 20.5 54.5t6.5 77.5v62q-22 -47 -70.5 -79t-121.5 -32
q-50 0 -95 16t-78.5 47.5t-53.5 77.5t-20 106q0 68 23 117.5t60 82t83 48.5t91 16q64 0 112 -25.5t71 -71.5v82h53v-446q0 -58 -8.5 -94.5t-22.5 -60.5q-27 -45 -79.5 -72t-136.5 -27q-64 0 -114.5 18.5t-76.5 42.5v62zM488 332q-22 61 -71.5 92t-110.5 31q-38 0 -74 -13
t-64.5 -39t-46 -65.5t-17.5 -93.5q0 -50 16.5 -87t44 -61t63.5 -36t75 -12q63 0 113 34t72 96v154z" />
    <glyph glyph-name="Hcircumflex" unicode="&#x124;" horiz-adv-x="701" 
d="M95 0v689h57v-303h397v303h58v-689h-58v332h-397v-332h-57zM193 750v4l143 130h38l143 -130v-4h-63l-101 79l-97 -79h-63z" />
    <glyph glyph-name="hcircumflex" unicode="&#x125;" horiz-adv-x="584" 
d="M86 0v728h54v-320q25 41 73 68.5t117 27.5t110 -28.5t53 -77.5q6 -22 8 -48t2 -62v-288h-54v282q0 39 -4.5 68t-12.5 43q-13 25 -40.5 42t-75.5 17q-27 0 -54 -8t-50.5 -22t-42.5 -33t-29 -40v-349h-54zM-24 766v4l143 130h38l143 -130v-4h-63l-101 79l-97 -79h-63z" />
    <glyph glyph-name="Hbar" unicode="&#x126;" horiz-adv-x="701" 
d="M95 0v484h-84v51h84v154h57v-154h397v154h58v-154h83v-51h-83v-484h-58v332h-397v-332h-57zM549 386v98h-397v-98h397z" />
    <glyph glyph-name="hbar" unicode="&#x127;" horiz-adv-x="584" 
d="M86 0v562h-75v46h75v120h54v-120h161v-46h-161v-154q25 41 73 68.5t117 27.5t110 -28.5t53 -77.5q6 -22 8 -48t2 -62v-288h-54v282q0 39 -4.5 68t-12.5 43q-13 25 -40.5 42t-75.5 17q-27 0 -54 -8t-50.5 -22t-42.5 -33t-29 -40v-349h-54z" />
    <glyph glyph-name="Itilde" unicode="&#x128;" horiz-adv-x="247" 
d="M95 0v689h57v-689h-57zM-39 755q5 57 31.5 83t61.5 26q19 0 36 -7.5t41 -24.5q21 -14 36.5 -21.5t28.5 -7.5q17 0 28 13t15 48h44q-2 -30 -10 -51t-20.5 -35t-28 -20.5t-30.5 -6.5q-21 0 -38 7.5t-45 25.5q-23 14 -36 21t-24 7q-35 0 -44 -57h-46z" />
    <glyph glyph-name="itilde" unicode="&#x129;" horiz-adv-x="228" 
d="M-39 602q5 56 29.5 82t59.5 26q20 0 35 -7t39 -24q40 -29 60 -29q18 0 27 13t13 48h43q-2 -30 -9.5 -51t-19.5 -35t-26 -20.5t-29 -6.5q-22 0 -37.5 7t-42.5 25q-20 14 -32.5 21t-23.5 7q-34 0 -43 -56h-43zM87 0v492h54v-492h-54z" />
    <glyph glyph-name="Imacron" unicode="&#x12a;" horiz-adv-x="247" 
d="M95 0v689h57v-689h-57zM-29 779v51h304v-51h-304z" />
    <glyph glyph-name="imacron" unicode="&#x12b;" horiz-adv-x="228" 
d="M-34 597v51h294v-51h-294zM87 0v492h54v-492h-54z" />
    <glyph glyph-name="Ibreve" unicode="&#x12c;" horiz-adv-x="247" 
d="M95 0v689h57v-689h-57zM21 884q1 -27 9.5 -45t22 -29t31 -15.5t37.5 -4.5q48 0 74.5 22.5t28.5 71.5h47q0 -30 -10 -56.5t-28.5 -46t-47 -30.5t-65.5 -11q-72 0 -108.5 40t-36.5 104h46z" />
    <glyph glyph-name="ibreve" unicode="&#x12d;" horiz-adv-x="228" 
d="M16 714q2 -55 29.5 -77.5t65.5 -22.5q94 0 98 100h45q0 -30 -9 -57.5t-27 -47.5t-45 -32t-63 -12q-70 0 -104 42t-34 107h44zM87 0v492h54v-492h-54z" />
    <glyph glyph-name="Iogonek" unicode="&#x12e;" horiz-adv-x="247" 
d="M151 0q-59 -35 -84 -66.5t-25 -70.5q0 -32 20 -50t55 -18q15 0 32.5 4t31.5 14h4v-40q-16 -11 -37.5 -17t-41.5 -6q-23 0 -44.5 6.5t-38 19.5t-26.5 33.5t-10 49.5q0 45 26 78.5t82 62.5v689h57v-689h-1z" />
    <glyph glyph-name="iogonek" unicode="&#x12f;" horiz-adv-x="228" 
d="M139 0q-54 -33 -76.5 -64.5t-22.5 -66.5q0 -32 19.5 -49t52.5 -17q16 0 33.5 5t30.5 13h4v-40q-16 -11 -36.5 -16t-40.5 -5q-23 0 -43.5 6t-37 18.5t-26 32.5t-9.5 48q0 81 100 135v492h54v-492h-2zM156 656q0 -20 -12.5 -31t-29.5 -11q-18 0 -30 11t-12 31q0 23 13 33.5
t29 10.5q15 0 28.5 -10.5t13.5 -33.5z" />
    <glyph glyph-name="Idotaccent" unicode="&#x130;" horiz-adv-x="247" 
d="M95 0v689h57v-689h-57zM165 808q0 -19 -12 -30t-29 -11t-28.5 10.5t-11.5 30.5t12.5 30.5t28.5 10.5q14 0 27 -10t13 -31z" />
    <glyph glyph-name="dotlessi" unicode="&#x131;" horiz-adv-x="228" 
d="M87 0v492h54v-492h-54z" />
    <glyph glyph-name="IJ" unicode="&#x132;" horiz-adv-x="650" 
d="M95 0v689h57v-689h-57zM269 75h4q22 -17 49 -26t54 -9q45 0 70.5 13.5t38.5 39.5q9 18 12.5 50t3.5 75v471h58v-474q0 -48 -3 -82.5t-16 -63.5q-18 -38 -57 -60.5t-102 -22.5q-35 0 -64 8.5t-48 21.5v59z" />
    <glyph glyph-name="ij" unicode="&#x133;" horiz-adv-x="456" 
d="M87 0v492h54v-492h-54zM156 656q0 -20 -12.5 -31t-29.5 -11q-18 0 -30 11t-12 31q0 23 13 33.5t29 10.5q15 0 28.5 -10.5t13.5 -33.5zM168 -137h4q14 -12 31.5 -17t34.5 -5q19 0 34.5 5t23.5 15q11 14 15 36t4 60v535h54v-533q0 -50 -5.5 -78.5t-20.5 -48.5t-40.5 -31
t-54.5 -11q-23 0 -43 4t-37 14v55zM384 656q0 -20 -12.5 -31t-29.5 -11q-18 0 -30 11t-12 31q0 23 13 33.5t29 10.5q15 0 28.5 -10.5t13.5 -33.5z" />
    <glyph glyph-name="Jcircumflex" unicode="&#x134;" horiz-adv-x="403" 
d="M23 75h4q22 -17 49 -26t54 -9q45 0 70.5 13.5t38.5 39.5q9 18 12.5 50t3.5 75v471h58v-474q0 -48 -3 -82.5t-16 -63.5q-18 -38 -57 -60.5t-102 -22.5q-35 0 -64 8.5t-48 21.5v59zM119 750v4l143 130h38l143 -130v-4h-63l-101 79l-97 -79h-63z" />
    <glyph glyph-name="jcircumflex" unicode="&#x135;" horiz-adv-x="228" 
d="M-60 -137h4q14 -12 31.5 -17t34.5 -5q19 0 34.5 5t23.5 15q11 14 15 36t4 60v535h54v-533q0 -50 -5.5 -78.5t-20.5 -48.5t-40.5 -31t-54.5 -11q-23 0 -43 4t-37 14v55zM-37 575v4l134 156h33l135 -156v-4h-55l-99 100l-94 -100h-54z" />
    <glyph glyph-name="uni0136" unicode="&#x136;" horiz-adv-x="613" 
d="M271 385l-119 -122v-263h-57v689h57v-354l336 354h79l-257 -264l302 -425h-73zM238 -282v4q28 23 50.5 60t22.5 85q0 17 -2.5 34.5t-9.5 34.5h57q5 -13 8 -30.5t3 -32.5q0 -51 -25 -91t-55 -64h-49z" />
    <glyph glyph-name="uni0137" unicode="&#x137;" horiz-adv-x="490" 
d="M87 0v728h54v-470l236 234h77l-189 -181l219 -311h-67l-192 273l-84 -80v-193h-54zM184 -282v4q28 23 50.5 60t22.5 85q0 17 -2.5 34.5t-9.5 34.5h57q5 -13 8 -30.5t3 -32.5q0 -51 -25 -91t-55 -64h-49z" />
    <glyph glyph-name="kgreenlandic" unicode="&#x138;" horiz-adv-x="490" 
d="M87 0v492h54v-234l236 234h77l-190 -182l220 -310h-67l-192 272l-84 -80v-192h-54z" />
    <glyph glyph-name="Lacute" unicode="&#x139;" horiz-adv-x="535" 
d="M95 0v689h57v-635h343v-54h-400zM62 750v4l155 130h97v-4l-186 -130h-66z" />
    <glyph glyph-name="lacute" unicode="&#x13a;" horiz-adv-x="227" 
d="M86 0v728h54v-728h-54zM37 770v4l155 130h97v-4l-186 -130h-66z" />
    <glyph glyph-name="uni013B" unicode="&#x13b;" horiz-adv-x="535" 
d="M95 0v689h57v-635h343v-54h-400zM202 -282v4q28 23 50.5 60t22.5 85q0 17 -2.5 34.5t-9.5 34.5h57q5 -13 8 -30.5t3 -32.5q0 -51 -25 -91t-55 -64h-49z" />
    <glyph glyph-name="uni013C" unicode="&#x13c;" horiz-adv-x="227" 
d="M86 0v728h54v-728h-54zM25 -282v4q28 23 50.5 60t22.5 85q0 17 -2.5 34.5t-9.5 34.5h57q5 -13 8 -30.5t3 -32.5q0 -51 -25 -91t-55 -64h-49z" />
    <glyph glyph-name="Lcaron" unicode="&#x13d;" horiz-adv-x="535" 
d="M95 0v689h57v-635h343v-54h-400zM67 750v4l155 130h97v-4l-186 -130h-66z" />
    <glyph glyph-name="lcaron" unicode="&#x13e;" horiz-adv-x="227" 
d="M86 0v728h54v-728h-54zM183 513v4q28 23 51.5 58.5t23.5 83.5q0 17 -2.5 34.5t-10.5 34.5h58q5 -13 7.5 -30.5t2.5 -32.5q0 -51 -25.5 -89.5t-55.5 -62.5h-49z" />
    <glyph glyph-name="Ldot" unicode="&#x13f;" horiz-adv-x="535" 
d="M95 0v689h57v-635h343v-54h-400zM426 321q0 -21 -13.5 -33.5t-33.5 -12.5t-33 12.5t-13 33.5q0 24 14.5 35.5t32.5 11.5q17 0 31.5 -11t14.5 -36z" />
    <glyph glyph-name="ldot" unicode="&#x140;" horiz-adv-x="354" 
d="M87 0v728h54v-728h-54zM336 320q0 -21 -13 -32.5t-32 -11.5q-18 0 -31 11.5t-13 32.5q0 23 14 34.5t31 11.5q16 0 30 -11t14 -35z" />
    <glyph glyph-name="Lslash" unicode="&#x141;" horiz-adv-x="535" 
d="M95 0v264l-84 -50v57l84 50v368h57v-333l175 105v-57l-175 -105v-245h343v-54h-400z" />
    <glyph glyph-name="lslash" unicode="&#x142;" horiz-adv-x="227" 
d="M86 0v290l-75 -44v52l75 44v386h54v-354l77 46v-52l-77 -46v-322h-54z" />
    <glyph glyph-name="Nacute" unicode="&#x143;" horiz-adv-x="703" 
d="M95 0v689h60q80 -114 137 -196t97 -140t66 -96t44 -64.5t30 -46t25 -39.5q-1 43 -1.5 90t-1 113t-0.5 157v222h57v-689h-48q-75 109 -131 191t-97.5 143t-70.5 103.5t-49.5 73.5t-35 53t-26.5 41q1 -49 1.5 -98.5t0.5 -116.5v-160v-230h-57zM282 750v4l155 130h97v-4
l-186 -130h-66z" />
    <glyph glyph-name="nacute" unicode="&#x144;" horiz-adv-x="584" 
d="M86 0v492h54v-84q24 40 72.5 68t117.5 28t110 -28.5t53 -77.5q6 -22 8 -48t2 -62v-288h-54v282q0 39 -4.5 68t-12.5 43q-13 25 -40.5 42t-75.5 17q-27 0 -54 -8t-50.5 -22t-42.5 -33t-29 -40v-349h-54zM234 579v4l129 161h83v-4l-158 -161h-54z" />
    <glyph glyph-name="uni0145" unicode="&#x145;" horiz-adv-x="703" 
d="M95 0v689h60q80 -114 137 -196t97 -140t66 -96t44 -64.5t30 -46t25 -39.5q-1 43 -1.5 90t-1 113t-0.5 157v222h57v-689h-48q-75 109 -131 191t-97.5 143t-70.5 103.5t-49.5 73.5t-35 53t-26.5 41q1 -49 1.5 -98.5t0.5 -116.5v-160v-230h-57zM269 -282v4q28 23 50.5 60
t22.5 85q0 17 -2.5 34.5t-9.5 34.5h57q5 -13 8 -30.5t3 -32.5q0 -51 -25 -91t-55 -64h-49z" />
    <glyph glyph-name="uni0146" unicode="&#x146;" horiz-adv-x="584" 
d="M86 0v492h54v-84q24 40 72.5 68t117.5 28t110 -28.5t53 -77.5q6 -22 8 -48t2 -62v-288h-54v282q0 39 -4.5 68t-12.5 43q-13 25 -40.5 42t-75.5 17q-27 0 -54 -8t-50.5 -22t-42.5 -33t-29 -40v-349h-54zM218 -282v4q28 23 50.5 60t22.5 85q0 17 -2.5 34.5t-9.5 34.5h57
q5 -13 8 -30.5t3 -32.5q0 -51 -25 -91t-55 -64h-49z" />
    <glyph glyph-name="Ncaron" unicode="&#x147;" horiz-adv-x="703" 
d="M95 0v689h60q80 -114 137 -196t97 -140t66 -96t44 -64.5t30 -46t25 -39.5q-1 43 -1.5 90t-1 113t-0.5 157v222h57v-689h-48q-75 109 -131 191t-97.5 143t-70.5 103.5t-49.5 73.5t-35 53t-26.5 41q1 -49 1.5 -98.5t0.5 -116.5v-160v-230h-57zM288 750v4l155 130h97v-4
l-186 -130h-66z" />
    <glyph glyph-name="ncaron" unicode="&#x148;" horiz-adv-x="584" 
d="M86 0v492h54v-84q24 40 72.5 68t117.5 28t110 -28.5t53 -77.5q6 -22 8 -48t2 -62v-288h-54v282q0 39 -4.5 68t-12.5 43q-13 25 -40.5 42t-75.5 17q-27 0 -54 -8t-50.5 -22t-42.5 -33t-29 -40v-349h-54zM445 739v-4l-133 -156h-33l-135 156v4h55l98 -100l95 100h53z" />
    <glyph glyph-name="napostrophe" unicode="&#x149;" horiz-adv-x="584" 
d="M86 0v492h54v-84q24 40 72.5 68t117.5 28t110 -28.5t53 -77.5q6 -22 8 -48t2 -62v-288h-54v282q0 39 -4.5 68t-12.5 43q-13 25 -40.5 42t-75.5 17q-27 0 -54 -8t-50.5 -22t-42.5 -33t-29 -40v-349h-54zM22 545v4q28 23 51.5 58.5t23.5 83.5q0 17 -2.5 34.5t-10.5 34.5h58
q5 -13 7.5 -30.5t2.5 -32.5q0 -51 -25.5 -89.5t-55.5 -62.5h-49z" />
    <glyph glyph-name="Eng" unicode="&#x14a;" horiz-adv-x="703" 
d="M95 0v689h60q80 -114 137 -196t97 -140t66 -96t44 -64.5t30 -46t25 -39.5q-1 43 -1.5 90t-1 113t-0.5 157v222h57v-737q0 -50 -5.5 -78.5t-20.5 -48.5t-40.5 -31t-54.5 -11q-23 0 -43 4t-37 14v56h4q14 -12 31.5 -17t34.5 -5q19 0 34 4.5t23 14.5q11 14 15 36t4 60v63
q-87 126 -149.5 216t-108.5 157.5t-80 119t-65 99.5q1 -49 1.5 -98t0.5 -116v-160.5v-230.5h-57z" />
    <glyph glyph-name="eng" unicode="&#x14b;" horiz-adv-x="584" 
d="M86 0v492h54v-84q24 40 72.5 68t117.5 28t110 -28.5t53 -77.5q6 -22 8 -48t2 -62v-329q0 -50 -5.5 -78.5t-20.5 -48.5t-41 -31t-55 -11q-23 0 -43 4t-37 14v55h4q14 -12 31.5 -17t34.5 -5q19 0 35 5t24 15q12 14 15.5 36t3.5 60v325q0 39 -4.5 68t-12.5 43
q-13 25 -40.5 42t-75.5 17q-27 0 -54 -8t-50.5 -22t-42.5 -33t-29 -40v-349h-54z" />
    <glyph glyph-name="Omacron" unicode="&#x14c;" horiz-adv-x="809" 
d="M757 344q0 -75 -27 -140.5t-74 -114t-112 -76t-140 -27.5t-139.5 27.5t-112 75.5t-74 113.5t-26.5 141.5q0 75 27.5 141t75 114.5t112 76.5t138.5 28q76 0 141 -27.5t111.5 -75.5t73 -114t26.5 -143zM699 345q0 64 -22 119.5t-61 97t-93 65.5t-118 24q-62 0 -116 -24
t-93.5 -65t-62 -97t-22.5 -120q0 -66 23 -122t63 -96.5t93.5 -63.5t114.5 -23q63 0 117 23t93.5 64t61.5 97t22 121zM251 779v51h304v-51h-304z" />
    <glyph glyph-name="omacron" unicode="&#x14d;" horiz-adv-x="612" 
d="M563 247q0 -55 -19.5 -102.5t-54 -82.5t-82 -55t-102.5 -20t-102 20t-81.5 55t-54 82.5t-19.5 102.5q0 54 20.5 101.5t55.5 83t82.5 55.5t101.5 20q55 0 102 -19.5t81 -54t53 -82.5t19 -104zM507 247q0 43 -15 81t-42 66.5t-64 44.5t-80 16t-80 -16t-64 -44.5
t-42.5 -66.5t-15.5 -81q0 -45 15.5 -83t42.5 -65.5t64 -43.5t80 -16q44 0 81 16t63.5 44.5t41.5 66t15 81.5zM160 597v51h294v-51h-294z" />
    <glyph glyph-name="Obreve" unicode="&#x14e;" horiz-adv-x="809" 
d="M757 344q0 -75 -27 -140.5t-74 -114t-112 -76t-140 -27.5t-139.5 27.5t-112 75.5t-74 113.5t-26.5 141.5q0 75 27.5 141t75 114.5t112 76.5t138.5 28q76 0 141 -27.5t111.5 -75.5t73 -114t26.5 -143zM699 345q0 64 -22 119.5t-61 97t-93 65.5t-118 24q-62 0 -116 -24
t-93.5 -65t-62 -97t-22.5 -120q0 -66 23 -122t63 -96.5t93.5 -63.5t114.5 -23q63 0 117 23t93.5 64t61.5 97t22 121zM307 884q1 -27 9.5 -45t22 -29t31 -15.5t37.5 -4.5q48 0 74.5 22.5t28.5 71.5h47q0 -30 -10 -56.5t-28.5 -46t-47 -30.5t-65.5 -11q-72 0 -108.5 40
t-36.5 104h46z" />
    <glyph glyph-name="obreve" unicode="&#x14f;" horiz-adv-x="612" 
d="M563 247q0 -55 -19.5 -102.5t-54 -82.5t-82 -55t-102.5 -20t-102 20t-81.5 55t-54 82.5t-19.5 102.5q0 54 20.5 101.5t55.5 83t82.5 55.5t101.5 20q55 0 102 -19.5t81 -54t53 -82.5t19 -104zM507 247q0 43 -15 81t-42 66.5t-64 44.5t-80 16t-80 -16t-64 -44.5
t-42.5 -66.5t-15.5 -81q0 -45 15.5 -83t42.5 -65.5t64 -43.5t80 -16q44 0 81 16t63.5 44.5t41.5 66t15 81.5zM208 714q2 -55 29.5 -77.5t65.5 -22.5q94 0 98 100h45q0 -30 -9 -57.5t-27 -47.5t-45 -32t-63 -12q-70 0 -104 42t-34 107h44z" />
    <glyph glyph-name="Ohungarumlaut" unicode="&#x150;" horiz-adv-x="809" 
d="M757 344q0 -75 -27 -140.5t-74 -114t-112 -76t-140 -27.5t-139.5 27.5t-112 75.5t-74 113.5t-26.5 141.5q0 75 27.5 141t75 114.5t112 76.5t138.5 28q76 0 141 -27.5t111.5 -75.5t73 -114t26.5 -143zM699 345q0 64 -22 119.5t-61 97t-93 65.5t-118 24q-62 0 -116 -24
t-93.5 -65t-62 -97t-22.5 -120q0 -66 23 -122t63 -96.5t93.5 -63.5t114.5 -23q63 0 117 23t93.5 64t61.5 97t22 121zM266 750v4l141 130h87v-4l-173 -130h-55zM423 750v4l140 130h87v-4l-173 -130h-54z" />
    <glyph glyph-name="ohungarumlaut" unicode="&#x151;" horiz-adv-x="612" 
d="M563 247q0 -55 -19.5 -102.5t-54 -82.5t-82 -55t-102.5 -20t-102 20t-81.5 55t-54 82.5t-19.5 102.5q0 54 20.5 101.5t55.5 83t82.5 55.5t101.5 20q55 0 102 -19.5t81 -54t53 -82.5t19 -104zM507 247q0 43 -15 81t-42 66.5t-64 44.5t-80 16t-80 -16t-64 -44.5
t-42.5 -66.5t-15.5 -81q0 -45 15.5 -83t42.5 -65.5t64 -43.5t80 -16q44 0 81 16t63.5 44.5t41.5 66t15 81.5zM186 575v4l114 161h75v-4l-138 -161h-51zM339 575v4l114 161h74v-4l-138 -161h-50z" />
    <glyph glyph-name="OE" unicode="&#x152;" horiz-adv-x="1127" 
d="M671 0v131q-20 -38 -49.5 -65.5t-64.5 -45t-75 -26t-82 -8.5q-66 0 -129 22.5t-112 67t-79 112t-30 157.5q0 87 30.5 154.5t80.5 113t113.5 69t129.5 23.5q42 0 81.5 -8t74 -25t63 -42.5t48.5 -61.5v121h396v-54h-339v-250h319v-53h-319v-279h356v-53h-413zM671 476
q-33 88 -103.5 131.5t-166.5 43.5q-57 0 -110 -20.5t-93 -59t-64 -94.5t-24 -128q0 -77 24.5 -135t65 -96.5t93 -58t109.5 -19.5q91 0 163 45t106 133v258z" />
    <glyph glyph-name="oe" unicode="&#x153;" horiz-adv-x="1000" 
d="M942 52q-31 -29 -82.5 -47.5t-103.5 -18.5q-91 0 -149 35.5t-87 101.5q-15 -36 -38.5 -61.5t-52 -42.5t-62 -25t-68.5 -8q-46 0 -92 15t-82.5 47t-59.5 81.5t-23 118.5q0 65 23 113.5t59.5 81t82.5 48.5t92 16q35 0 69 -7.5t63 -23.5t52.5 -41.5t37.5 -61.5q15 34 37 59
t49.5 41.5t58.5 25t63 8.5q107 0 164.5 -59.5t59.5 -169.5q0 -14 -0.5 -25t-2.5 -25h-401q2 -41 15.5 -75.5t40 -60t65 -40t90.5 -14.5q48 0 95.5 17.5t82.5 54.5h4v-58zM495 250q0 54 -16.5 93t-44.5 64t-63.5 36.5t-74.5 11.5q-37 0 -72.5 -13t-63.5 -38.5t-45 -64
t-17 -90.5q0 -56 17.5 -95.5t46 -65t64.5 -37.5t72 -12q39 0 74.5 12.5t62.5 38t43.5 65.5t16.5 95zM897 277v10q0 75 -41.5 122.5t-129.5 47.5q-30 0 -60.5 -11t-55 -33t-41 -56t-19.5 -80h347z" />
    <glyph glyph-name="Racute" unicode="&#x154;" horiz-adv-x="603" 
d="M523 0l-194 303q-17 -2 -31.5 -2h-27.5h-118v-301h-57v689h182q106 0 160 -18q51 -17 80 -61.5t29 -111.5q0 -72 -36.5 -116t-93.5 -63q-11 -4 -28 -7l204 -312h-69zM277 352q42 0 76 6t55 14q37 15 57.5 46t20.5 77q0 39 -15 70.5t-47 48.5q-12 6 -28.5 10.5t-35.5 7
t-39.5 4t-38.5 1.5h-130v-285h125zM237 750v4l155 130h97v-4l-186 -130h-66z" />
    <glyph glyph-name="racute" unicode="&#x155;" horiz-adv-x="352" 
d="M86 0v492h53v-81q4 15 16 32t30 31t41 23t50 9q18 0 33.5 -3.5t26.5 -11.5v-61h-4q-11 9 -26 13.5t-32 4.5q-50 0 -83.5 -27.5t-50.5 -75.5v-345h-54zM160 579v4l129 161h83v-4l-158 -161h-54z" />
    <glyph glyph-name="uni0156" unicode="&#x156;" horiz-adv-x="603" 
d="M523 0l-194 303q-17 -2 -31.5 -2h-27.5h-118v-301h-57v689h182q106 0 160 -18q51 -17 80 -61.5t29 -111.5q0 -72 -36.5 -116t-93.5 -63q-11 -4 -28 -7l204 -312h-69zM277 352q42 0 76 6t55 14q37 15 57.5 46t20.5 77q0 39 -15 70.5t-47 48.5q-12 6 -28.5 10.5t-35.5 7
t-39.5 4t-38.5 1.5h-130v-285h125zM222 -282v4q28 23 50.5 60t22.5 85q0 17 -2.5 34.5t-9.5 34.5h57q5 -13 8 -30.5t3 -32.5q0 -51 -25 -91t-55 -64h-49z" />
    <glyph glyph-name="uni0157" unicode="&#x157;" horiz-adv-x="352" 
d="M86 0v492h53v-81q4 15 16 32t30 31t41 23t50 9q18 0 33.5 -3.5t26.5 -11.5v-61h-4q-11 9 -26 13.5t-32 4.5q-50 0 -83.5 -27.5t-50.5 -75.5v-345h-54zM27 -282v4q28 23 50.5 60t22.5 85q0 17 -2.5 34.5t-9.5 34.5h57q5 -13 8 -30.5t3 -32.5q0 -51 -25 -91t-55 -64h-49z
" />
    <glyph glyph-name="Rcaron" unicode="&#x158;" horiz-adv-x="603" 
d="M523 0l-194 303q-17 -2 -31.5 -2h-27.5h-118v-301h-57v689h182q106 0 160 -18q51 -17 80 -61.5t29 -111.5q0 -72 -36.5 -116t-93.5 -63q-11 -4 -28 -7l204 -312h-69zM277 352q42 0 76 6t55 14q37 15 57.5 46t20.5 77q0 39 -15 70.5t-47 48.5q-12 6 -28.5 10.5t-35.5 7
t-39.5 4t-38.5 1.5h-130v-285h125zM454 884v-4l-141 -130h-38l-143 130v4h63l101 -79l96 79h62z" />
    <glyph glyph-name="rcaron" unicode="&#x159;" horiz-adv-x="352" 
d="M86 0v492h53v-81q4 15 16 32t30 31t41 23t50 9q18 0 33.5 -3.5t26.5 -11.5v-61h-4q-11 9 -26 13.5t-32 4.5q-50 0 -83.5 -27.5t-50.5 -75.5v-345h-54zM349 739v-4l-133 -156h-33l-135 156v4h55l98 -100l95 100h53z" />
    <glyph glyph-name="Sacute" unicode="&#x15a;" horiz-adv-x="564" 
d="M42 136h4q43 -44 101.5 -69.5t135.5 -25.5q52 0 87 10.5t56.5 28.5t31 42.5t9.5 53.5q0 47 -36.5 75.5t-118.5 54.5l-113 37q-75 24 -110 67.5t-35 103.5q0 43 17 78.5t48.5 60.5t77 38.5t103.5 13.5q28 0 57.5 -5t56.5 -13.5t48.5 -19.5t34.5 -24v-66h-4
q-38 37 -92 55.5t-108 18.5q-50 0 -84.5 -11t-55.5 -29t-30.5 -42t-9.5 -50q0 -48 30.5 -77.5t99.5 -51.5l122 -39q38 -12 68.5 -27t51.5 -35t32 -46.5t11 -61.5q0 -39 -13.5 -74.5t-43.5 -62t-77.5 -42.5t-114.5 -16q-69 0 -132.5 21t-104.5 58v71zM212 750v4l155 130h97
v-4l-186 -130h-66z" />
    <glyph glyph-name="sacute" unicode="&#x15b;" horiz-adv-x="445" 
d="M49 110h4q15 -18 35.5 -31.5t44 -22.5t48.5 -13.5t49 -4.5q39 0 64 7t39.5 19t20.5 28t6 33q0 16 -5 28.5t-17 23t-32.5 19.5t-50.5 18l-91 26q-57 17 -82 50t-25 78q0 64 50 101.5t138 37.5q21 0 43 -3.5t42.5 -9.5t37 -14t25.5 -17v-61h-4q-13 13 -30.5 23t-37 17
t-40.5 10.5t-40 3.5q-69 0 -98.5 -24.5t-29.5 -59.5t21.5 -54.5t63.5 -31.5l96 -28q60 -17 91.5 -46.5t31.5 -81.5q0 -29 -10.5 -55t-33.5 -46t-58.5 -31.5t-86.5 -11.5q-24 0 -50 4t-50 11.5t-44.5 18.5t-34.5 25v65zM168 579v4l129 161h83v-4l-158 -161h-54z" />
    <glyph glyph-name="Scircumflex" unicode="&#x15c;" horiz-adv-x="564" 
d="M42 142h4q19 -24 45.5 -43t57 -31.5t65 -19.5t69.5 -7q52 0 87 10.5t56.5 28.5t31 42.5t9.5 53.5q0 47 -36.5 76t-118.5 55l-113 37q-75 24 -110 67t-35 103q0 43 17 78.5t48.5 60.5t77 38.5t103.5 13.5q28 0 57.5 -5t56.5 -13.5t48.5 -19.5t34.5 -24v-66h-4
q-38 37 -92 55.5t-108 18.5q-50 0 -84.5 -11t-55.5 -29t-30.5 -42t-9.5 -50q0 -48 30.5 -77t99.5 -51l122 -39q38 -12 68.5 -27t51.5 -35.5t32 -47t11 -61.5q0 -39 -13.5 -74.5t-43.5 -62t-77.5 -42.5t-114.5 -16q-34 0 -68.5 5.5t-65.5 16.5t-57.5 26t-45.5 35v73zM134 786
v4l138 147h35l139 -147v-4h-57l-101 95l-97 -95h-57z" />
    <glyph glyph-name="scircumflex" unicode="&#x15d;" horiz-adv-x="445" 
d="M49 110h4q15 -18 35.5 -31.5t44 -22.5t48.5 -13.5t49 -4.5q39 0 64 7t39.5 19t20.5 28t6 33q0 16 -5 28.5t-17 23t-32.5 19.5t-50.5 18l-91 26q-57 17 -82 50t-25 78q0 64 50 101.5t138 37.5q21 0 43 -3.5t42.5 -9.5t37 -14t25.5 -17v-61h-4q-13 13 -30.5 23t-37 17
t-40.5 10.5t-40 3.5q-69 0 -98.5 -24.5t-29.5 -59.5t21.5 -54.5t63.5 -31.5l96 -28q60 -17 91.5 -46.5t31.5 -81.5q0 -29 -10.5 -55t-33.5 -46t-58.5 -31.5t-86.5 -11.5q-24 0 -50 4t-50 11.5t-44.5 18.5t-34.5 25v65zM94 575v4l133 156h33l135 -156v-4h-55l-98 100
l-95 -100h-53z" />
    <glyph glyph-name="Scedilla" unicode="&#x15e;" horiz-adv-x="564" 
d="M189 -189h4q15 -12 36.5 -17.5t35.5 -5.5q40 0 54 16.5t14 39.5t-17.5 38t-53.5 15q-8 0 -19 -1.5t-20 -5.5l-3 2l29 95q-61 5 -116 25t-91 53v71h4q43 -44 101.5 -69.5t135.5 -25.5q52 0 87 10.5t56.5 28.5t31 42.5t9.5 53.5q0 47 -36.5 75.5t-118.5 54.5l-113 37
q-75 24 -110 67.5t-35 103.5q0 43 17 78.5t48.5 60.5t77 38.5t103.5 13.5q28 0 57.5 -5t56.5 -13.5t48.5 -19.5t34.5 -24v-66h-4q-38 37 -92 55.5t-108 18.5q-50 0 -84.5 -11t-55.5 -29t-30.5 -42t-9.5 -50q0 -48 30.5 -77.5t99.5 -51.5l122 -39q38 -12 68.5 -27t51.5 -35
t32 -46.5t11 -61.5q0 -38 -13 -73t-41.5 -61.5t-73.5 -43t-109 -17.5l-15 -51h7q45 0 73 -23.5t28 -66.5q0 -51 -32.5 -76t-85.5 -25q-22 0 -43 6.5t-34 15.5v45z" />
    <glyph glyph-name="scedilla" unicode="&#x15f;" horiz-adv-x="445" 
d="M143 -182h4q14 -13 34.5 -18t33.5 -5q41 0 55 15.5t14 37.5q0 21 -16.5 36.5t-53.5 15.5q-7 0 -18.5 -1.5t-19.5 -4.5l-3 2l28 91q-44 4 -85.5 19t-66.5 39v65h4q15 -18 35.5 -31.5t44 -22.5t48.5 -13.5t49 -4.5q39 0 64 7t39.5 19t20.5 28t6 33q0 16 -5 28.5t-17 23
t-32.5 19.5t-50.5 18l-91 26q-57 17 -82 50t-25 78q0 64 50 101.5t138 37.5q21 0 43 -3.5t42.5 -9.5t37 -14t25.5 -17v-61h-4q-13 13 -30.5 23t-37 17t-40.5 10.5t-40 3.5q-69 0 -98.5 -24.5t-29.5 -59.5t21.5 -54.5t63.5 -31.5l96 -28q60 -17 91.5 -46.5t31.5 -81.5
q0 -28 -10 -53t-31 -44.5t-54 -31.5t-79 -14l-15 -50h7q42 0 70.5 -22t28.5 -64q0 -50 -32 -74.5t-85 -24.5q-20 0 -41 6t-33 15v45z" />
    <glyph glyph-name="Scaron" unicode="&#x160;" horiz-adv-x="564" 
d="M42 136h4q43 -44 101.5 -69.5t135.5 -25.5q52 0 87 10.5t56.5 28.5t31 42.5t9.5 53.5q0 47 -36.5 75.5t-118.5 54.5l-113 37q-75 24 -110 67.5t-35 103.5q0 43 17 78.5t48.5 60.5t77 38.5t103.5 13.5q28 0 57.5 -5t56.5 -13.5t48.5 -19.5t34.5 -24v-66h-4
q-38 37 -92 55.5t-108 18.5q-50 0 -84.5 -11t-55.5 -29t-30.5 -42t-9.5 -50q0 -48 30.5 -77.5t99.5 -51.5l122 -39q38 -12 68.5 -27t51.5 -35t32 -46.5t11 -61.5q0 -39 -13.5 -74.5t-43.5 -62t-77.5 -42.5t-114.5 -16q-69 0 -132.5 21t-104.5 58v71zM452 884v-4l-141 -130
h-38l-143 130v4h63l101 -79l96 79h62z" />
    <glyph glyph-name="scaron" unicode="&#x161;" horiz-adv-x="445" 
d="M49 110h4q15 -18 35.5 -31.5t44 -22.5t48.5 -13.5t49 -4.5q39 0 64 7t39.5 19t20.5 28t6 33q0 16 -5 28.5t-17 23t-32.5 19.5t-50.5 18l-91 26q-57 17 -82 50t-25 78q0 64 50 101.5t138 37.5q21 0 43 -3.5t42.5 -9.5t37 -14t25.5 -17v-61h-4q-13 13 -30.5 23t-37 17
t-40.5 10.5t-40 3.5q-69 0 -98.5 -24.5t-29.5 -59.5t21.5 -54.5t63.5 -31.5l96 -28q60 -17 91.5 -46.5t31.5 -81.5q0 -29 -10.5 -55t-33.5 -46t-58.5 -31.5t-86.5 -11.5q-24 0 -50 4t-50 11.5t-44.5 18.5t-34.5 25v65zM387 739v-4l-133 -156h-33l-135 156v4h55l98 -100
l95 100h53z" />
    <glyph glyph-name="uni0162" unicode="&#x162;" horiz-adv-x="564" 
d="M191 -189h4q15 -12 36.5 -17.5t35.5 -5.5q40 0 54 16.5t14 39.5t-17.5 38t-53.5 15q-8 0 -19 -1.5t-20 -5.5l-3 2l33 108h-6v635h-228v54h522v-54h-236v-635h-9l-20 -65h7q45 0 73 -23.5t28 -66.5q0 -51 -32.5 -76t-85.5 -25q-22 0 -43 6.5t-34 15.5v45z" />
    <glyph glyph-name="uni0163" unicode="&#x163;" horiz-adv-x="312" 
d="M99 -182h4q14 -13 34.5 -18t33.5 -5q41 0 55 15.5t14 37.5q0 21 -16.5 36.5t-53.5 15.5q-7 0 -18.5 -1.5t-19.5 -4.5l-3 2l32 105q-24 13 -36 32q-13 20 -17.5 48t-4.5 71v293h-78v47h79v21q0 14 0.5 43t1.5 80h50v-144h132v-47h-132v-292q0 -32 4 -51.5t9 -29.5
q6 -15 23.5 -23.5t40.5 -8.5q19 0 39 5.5t35 17.5h4v-51q-17 -13 -42.5 -18.5t-45.5 -5.5q-6 0 -11.5 0.5t-11.5 1.5l-16 -53h7q42 0 70.5 -22t28.5 -64q0 -50 -32 -74.5t-85 -24.5q-20 0 -41 6t-33 15v45z" />
    <glyph glyph-name="Tcaron" unicode="&#x164;" horiz-adv-x="564" 
d="M249 0v635h-228v54h522v-54h-236v-635h-58zM439 884v-4l-141 -130h-38l-143 130v4h63l101 -79l96 79h62z" />
    <glyph glyph-name="tcaron" unicode="&#x165;" horiz-adv-x="312" 
d="M311 12q-17 -13 -42.5 -18.5t-45.5 -5.5q-32 0 -58 12t-40 33q-13 20 -17.5 48t-4.5 71v293h-78v47h79v21q0 14 0.5 43t1.5 80h50v-144h132v-47h-132v-292q0 -32 4 -51.5t9 -29.5q6 -15 23.5 -23.5t40.5 -8.5q19 0 39 5.5t35 17.5h4v-51zM208 541v4q28 23 51.5 58.5
t23.5 83.5q0 17 -2.5 34.5t-10.5 34.5h58q5 -13 7.5 -30.5t2.5 -32.5q0 -51 -25.5 -89.5t-55.5 -62.5h-49z" />
    <glyph glyph-name="Tbar" unicode="&#x166;" horiz-adv-x="564" 
d="M249 0v344h-159v51h159v240h-228v54h522v-54h-236v-240h165v-51h-165v-344h-58z" />
    <glyph glyph-name="tbar" unicode="&#x167;" horiz-adv-x="312" 
d="M311 12q-17 -13 -42.5 -18.5t-45.5 -5.5q-32 0 -58 12t-40 33q-13 20 -17.5 48t-4.5 71v119h-73v46h73v128h-78v47h79v21q0 14 0.5 43t1.5 80h50v-144h132v-47h-132v-128h125v-46h-125v-118q0 -32 4 -51.5t9 -29.5q6 -15 23.5 -23.5t40.5 -8.5q19 0 39 5.5t35 17.5h4v-51
v0z" />
    <glyph glyph-name="Utilde" unicode="&#x168;" horiz-adv-x="716" 
d="M629 297q0 -69 -7.5 -113t-27.5 -79q-14 -23 -35 -44.5t-50.5 -38t-67 -26.5t-82.5 -10q-88 0 -151.5 31.5t-92.5 93.5q-16 34 -21.5 78.5t-5.5 104.5v395h57v-383q0 -52 5.5 -97t24.5 -81q17 -35 63 -61.5t121 -26.5q69 0 112 25t67 61q35 52 35 178v385h56v-392z
M199 755q5 57 31.5 83t61.5 26q19 0 36 -7.5t41 -24.5q21 -14 36.5 -21.5t28.5 -7.5q17 0 28 13t15 48h44q-2 -30 -10 -51t-20.5 -35t-28 -20.5t-30.5 -6.5q-21 0 -38 7.5t-45 25.5q-23 14 -36 21t-24 7q-35 0 -44 -57h-46z" />
    <glyph glyph-name="utilde" unicode="&#x169;" horiz-adv-x="584" 
d="M446 0v79q-25 -38 -71 -64.5t-115 -26.5q-71 0 -113.5 28.5t-55.5 77.5q-11 44 -11 114v284h54v-278q0 -39 5 -69.5t13 -45.5q12 -24 41 -41.5t79 -17.5q56 0 102 29t69 68v355h54v-492h-51zM138 602q5 56 29.5 82t59.5 26q20 0 35 -7t39 -24q40 -29 60 -29q18 0 27 13
t13 48h43q-2 -30 -9.5 -51t-19.5 -35t-26 -20.5t-29 -6.5q-22 0 -37.5 7t-42.5 25q-20 14 -32.5 21t-23.5 7q-34 0 -43 -56h-43z" />
    <glyph glyph-name="Umacron" unicode="&#x16a;" horiz-adv-x="716" 
d="M629 297q0 -69 -7.5 -113t-27.5 -79q-14 -23 -35 -44.5t-50.5 -38t-67 -26.5t-82.5 -10q-88 0 -151.5 31.5t-92.5 93.5q-16 34 -21.5 78.5t-5.5 104.5v395h57v-383q0 -52 5.5 -97t24.5 -81q17 -35 63 -61.5t121 -26.5q69 0 112 25t67 61q35 52 35 178v385h56v-392z
M209 779v51h304v-51h-304z" />
    <glyph glyph-name="umacron" unicode="&#x16b;" horiz-adv-x="584" 
d="M446 0v79q-25 -38 -71 -64.5t-115 -26.5q-71 0 -113.5 28.5t-55.5 77.5q-11 44 -11 114v284h54v-278q0 -39 5 -69.5t13 -45.5q12 -24 41 -41.5t79 -17.5q56 0 102 29t69 68v355h54v-492h-51zM142 597v51h294v-51h-294z" />
    <glyph glyph-name="Ubreve" unicode="&#x16c;" horiz-adv-x="716" 
d="M629 297q0 -69 -7.5 -113t-27.5 -79q-14 -23 -35 -44.5t-50.5 -38t-67 -26.5t-82.5 -10q-88 0 -151.5 31.5t-92.5 93.5q-16 34 -21.5 78.5t-5.5 104.5v395h57v-383q0 -52 5.5 -97t24.5 -81q17 -35 63 -61.5t121 -26.5q69 0 112 25t67 61q35 52 35 178v385h56v-392z
M256 884q1 -27 9.5 -45t22 -29t31 -15.5t37.5 -4.5q48 0 74.5 22.5t28.5 71.5h47q0 -30 -10 -56.5t-28.5 -46t-47 -30.5t-65.5 -11q-72 0 -108.5 40t-36.5 104h46z" />
    <glyph glyph-name="ubreve" unicode="&#x16d;" horiz-adv-x="584" 
d="M446 0v79q-25 -38 -71 -64.5t-115 -26.5q-71 0 -113.5 28.5t-55.5 77.5q-11 44 -11 114v284h54v-278q0 -39 5 -69.5t13 -45.5q12 -24 41 -41.5t79 -17.5q56 0 102 29t69 68v355h54v-492h-51zM191 714q2 -55 29.5 -77.5t65.5 -22.5q94 0 98 100h45q0 -30 -9 -57.5
t-27 -47.5t-45 -32t-63 -12q-70 0 -104 42t-34 107h44z" />
    <glyph glyph-name="Uring" unicode="&#x16e;" horiz-adv-x="716" 
d="M629 297q0 -69 -7.5 -113t-27.5 -79q-14 -23 -35 -44.5t-50.5 -38t-67 -26.5t-82.5 -10q-88 0 -151.5 31.5t-92.5 93.5q-16 34 -21.5 78.5t-5.5 104.5v395h57v-383q0 -52 5.5 -97t24.5 -81q17 -35 63 -61.5t121 -26.5q69 0 112 25t67 61q35 52 35 178v385h56v-392z
M457 817q0 -42 -29 -70t-72 -28t-72 28t-29 70q0 44 29.5 71t73.5 27q45 0 72 -27t27 -71zM423 818q0 29 -18.5 47.5t-49.5 18.5q-30 0 -48 -19t-18 -48q0 -27 17 -47t51 -20q32 0 49 20t17 48z" />
    <glyph glyph-name="uring" unicode="&#x16f;" horiz-adv-x="584" 
d="M446 0v79q-25 -38 -71 -64.5t-115 -26.5q-71 0 -113.5 28.5t-55.5 77.5q-11 44 -11 114v284h54v-278q0 -39 5 -69.5t13 -45.5q12 -24 41 -41.5t79 -17.5q56 0 102 29t69 68v355h54v-492h-51zM391 669q0 -21 -8 -39.5t-22 -32t-32.5 -21t-40.5 -7.5q-44 0 -73 28.5
t-29 71.5q0 45 29.5 72.5t74.5 27.5t73 -27.5t28 -72.5zM357 670q0 31 -19.5 50t-50.5 19q-30 0 -48.5 -20t-18.5 -50q0 -28 17.5 -48.5t52.5 -20.5q31 0 49 20.5t18 49.5z" />
    <glyph glyph-name="Uhungarumlaut" unicode="&#x170;" horiz-adv-x="716" 
d="M629 297q0 -69 -7.5 -113t-27.5 -79q-14 -23 -35 -44.5t-50.5 -38t-67 -26.5t-82.5 -10q-88 0 -151.5 31.5t-92.5 93.5q-16 34 -21.5 78.5t-5.5 104.5v395h57v-383q0 -52 5.5 -97t24.5 -81q17 -35 63 -61.5t121 -26.5q69 0 112 25t67 61q35 52 35 178v385h56v-392z
M221 750v4l141 130h87v-4l-173 -130h-55zM378 750v4l140 130h87v-4l-173 -130h-54z" />
    <glyph glyph-name="uhungarumlaut" unicode="&#x171;" horiz-adv-x="584" 
d="M446 0v79q-25 -38 -71 -64.5t-115 -26.5q-71 0 -113.5 28.5t-55.5 77.5q-11 44 -11 114v284h54v-278q0 -39 5 -69.5t13 -45.5q12 -24 41 -41.5t79 -17.5q56 0 102 29t69 68v355h54v-492h-51zM168 575v4l114 161h75v-4l-138 -161h-51zM321 575v4l114 161h74v-4l-138 -161
h-50z" />
    <glyph glyph-name="Uogonek" unicode="&#x172;" horiz-adv-x="716" 
d="M629 297q0 -69 -7.5 -113t-27.5 -79q-25 -42 -74.5 -75.5t-124.5 -41.5q-48 -31 -68.5 -60.5t-20.5 -64.5q0 -32 20 -50t55 -18q15 0 32.5 4t31.5 14h4v-40q-16 -11 -37.5 -17t-41.5 -6q-23 0 -44.5 6.5t-38 19.5t-26.5 33.5t-10 49.5q0 76 84 128q-78 4 -135.5 35.5
t-84.5 88.5q-16 34 -21.5 78.5t-5.5 104.5v395h57v-383q0 -52 5.5 -97t24.5 -81q17 -35 63 -61.5t121 -26.5q69 0 112 25t67 61q35 52 35 178v385h56v-392z" />
    <glyph glyph-name="uogonek" unicode="&#x173;" horiz-adv-x="584" 
d="M497 0q-57 -33 -79.5 -64.5t-22.5 -66.5q0 -32 19.5 -49t52.5 -17q16 0 33.5 5t30.5 13h4v-40q-16 -11 -36.5 -16t-40.5 -5q-23 0 -43.5 6t-37 18.5t-26 32.5t-9.5 48q0 84 104 137v77q-25 -38 -71 -64.5t-115 -26.5q-71 0 -113.5 28.5t-55.5 77.5q-11 44 -11 114v284h54
v-278q0 -39 5 -69.5t13 -45.5q12 -24 41 -41.5t79 -17.5q56 0 102 29t69 68v355h54v-492v0z" />
    <glyph glyph-name="Wcircumflex" unicode="&#x174;" horiz-adv-x="920" 
d="M210 0l-197 689h64q30 -105 52 -183t38 -135.5t27 -98t19 -71.5t14.5 -55.5t12.5 -50.5q7 25 14.5 50t17.5 56t23 71.5t32.5 98t45.5 135.5l61 183h52q34 -107 59 -186t43 -136t30.5 -97.5t22 -70.5t16.5 -54.5t15 -49.5q6 25 12.5 49t15 54.5t19.5 70.5t28 98t40 136.5
t54 185.5h65l-210 -689h-52q-33 103 -57 180t-42 133.5t-31 97.5t-23 73.5t-18 59.5t-16 56q-9 -28 -17 -54.5t-18.5 -59t-24 -73.5t-32.5 -98.5t-44 -134.5t-59 -180h-52zM296 750v4l143 130h38l143 -130v-4h-63l-101 79l-97 -79h-63z" />
    <glyph glyph-name="wcircumflex" unicode="&#x175;" horiz-adv-x="741" 
d="M195 0l-164 492h61q36 -108 58 -177t35.5 -112.5t21 -69.5t13.5 -49q7 23 15.5 48t23.5 68.5t40.5 112.5t66.5 179h44q42 -114 68 -184t41.5 -112.5t23.5 -66.5t15 -46q6 22 12.5 46.5t19.5 68t35 113.5t57 181h59l-163 -492h-43q-29 80 -50.5 138.5t-36.5 100.5l-25 70
t-17 47.5t-11.5 33t-8.5 27.5q-4 -14 -8.5 -27.5t-11 -33.5t-16.5 -48l-25 -70t-36 -100t-50 -138h-44zM237 575v4l133 156h33l135 -156v-4h-55l-98 100l-95 -100h-53z" />
    <glyph glyph-name="Ycircumflex" unicode="&#x176;" horiz-adv-x="600" 
d="M267 0v278l-264 411h71q61 -96 99.5 -156t62.5 -97.5t37 -59.5t25 -42q8 14 16.5 27.5t19.5 31t26.5 42t38 59t53.5 82.5t74 113h71l-272 -411v-278h-58zM134 750v4l143 130h38l143 -130v-4h-63l-101 79l-97 -79h-63z" />
    <glyph glyph-name="ycircumflex" unicode="&#x177;" horiz-adv-x="482" 
d="M12 -140h4q11 -9 30 -14.5t40 -5.5q31 0 48.5 13.5t28.5 30.5q9 14 18.5 35t17.5 42l18 46l-210 485h62q44 -102 73 -169t48 -113t32 -78.5t25 -65.5q12 32 24.5 64.5t31.5 79.5t46.5 114t68.5 168h60l-210 -501q-13 -30 -22.5 -52t-17 -38.5t-14 -28t-12.5 -21.5
q-21 -33 -50.5 -48t-64.5 -15q-21 0 -40.5 4t-34.5 14v54zM95 575v4l133 156h33l135 -156v-4h-55l-98 100l-95 -100h-53z" />
    <glyph glyph-name="Ydieresis" unicode="&#x178;" horiz-adv-x="600" 
d="M267 0v278l-264 411h71q61 -96 99.5 -156t62.5 -97.5t37 -59.5t25 -42q8 14 16.5 27.5t19.5 31t26.5 42t38 59t53.5 82.5t74 113h71l-272 -411v-278h-58zM251 808q0 -19 -12 -30t-29 -11t-28.5 10.5t-11.5 30.5t12.5 30.5t28.5 10.5q14 0 27 -10t13 -31zM430 808
q0 -19 -12 -30t-29 -11t-29 10.5t-12 30.5t13 30.5t28 10.5t28 -10t13 -31z" />
    <glyph glyph-name="Zacute" unicode="&#x179;" horiz-adv-x="606" 
d="M21 0v33q96 123 165.5 211.5t118.5 151t81 102.5t52.5 66t33 41.5t23.5 29.5h-440v54h520v-38q-95 -121 -162.5 -207.5t-114.5 -147t-77.5 -99.5t-51.5 -65t-35 -44t-28 -35h471v-53h-556zM242 750v4l155 130h97v-4l-186 -130h-66z" />
    <glyph glyph-name="zacute" unicode="&#x17a;" horiz-adv-x="471" 
d="M22 0v34q61 76 107 132t79.5 97t57 69t40 48t29 34.5t23.5 28.5h-309v49h380v-37q-58 -72 -102 -125.5t-76.5 -94t-56.5 -69t-41.5 -49.5t-31.5 -37t-27 -31h337v-49h-409zM189 579v4l129 161h83v-4l-158 -161h-54z" />
    <glyph glyph-name="Zdotaccent" unicode="&#x17b;" horiz-adv-x="606" 
d="M21 0v33q96 123 165.5 211.5t118.5 151t81 102.5t52.5 66t33 41.5t23.5 29.5h-440v54h520v-38q-95 -121 -162.5 -207.5t-114.5 -147t-77.5 -99.5t-51.5 -65t-35 -44t-28 -35h471v-53h-556zM361 808q0 -19 -12 -30t-29 -11t-28.5 10.5t-11.5 30.5t12.5 30.5t28.5 10.5
q14 0 27 -10t13 -31z" />
    <glyph glyph-name="zdotaccent" unicode="&#x17c;" horiz-adv-x="471" 
d="M22 0v34q61 76 107 132t79.5 97t57 69t40 48t29 34.5t23.5 28.5h-309v49h380v-37q-58 -72 -102 -125.5t-76.5 -94t-56.5 -69t-41.5 -49.5t-31.5 -37t-27 -31h337v-49h-409zM287 656q0 -19 -12 -29.5t-29 -10.5t-28.5 10.5t-11.5 29.5q0 21 12.5 31.5t28.5 10.5
q14 0 27 -10t13 -32z" />
    <glyph glyph-name="Zcaron" unicode="&#x17d;" horiz-adv-x="606" 
d="M21 0v33q96 123 165.5 211.5t118.5 151t81 102.5t52.5 66t33 41.5t23.5 29.5h-440v54h520v-38q-95 -121 -162.5 -207.5t-114.5 -147t-77.5 -99.5t-51.5 -65t-35 -44t-28 -35h471v-53h-556zM478 884v-4l-141 -130h-38l-143 130v4h63l101 -79l96 79h62z" />
    <glyph glyph-name="zcaron" unicode="&#x17e;" horiz-adv-x="471" 
d="M22 0v34q61 76 107 132t79.5 97t57 69t40 48t29 34.5t23.5 28.5h-309v49h380v-37q-58 -72 -102 -125.5t-76.5 -94t-56.5 -69t-41.5 -49.5t-31.5 -37t-27 -31h337v-49h-409zM386 739v-4l-133 -156h-33l-135 156v4h55l98 -100l95 100h53z" />
    <glyph glyph-name="longs" unicode="&#x17f;" horiz-adv-x="249" 
d="M86 0v561q0 54 9 83.5t29 50.5q22 24 50.5 34.5t63.5 10.5q49 0 76 -18v-53h-4q-14 11 -33 15.5t-40 4.5q-54 0 -78 -33q-20 -27 -20 -97v-559h-53z" />
    <glyph glyph-name="florin" unicode="&#x192;" horiz-adv-x="449" 
d="M2 -58h4q11 -11 31 -18t34 -7q25 0 41.5 7t25.5 25q6 11 9.5 30t5.5 36l33 358h-92v45h95l9 98q3 34 12 64.5t29 53.5q38 45 107 45q57 0 83 -23v-57h-4q-16 15 -36.5 21t-38.5 6q-17 0 -34 -5.5t-29 -18.5q-11 -11 -19 -31.5t-11 -57.5l-9 -95h115v-45h-119l-33 -363
q-2 -24 -6 -44t-15 -43q-30 -59 -112 -59q-23 0 -43 5.5t-33 15.5v57z" />
    <glyph glyph-name="Aringacute" unicode="&#x1fa;" horiz-adv-x="628" 
d="M407 748q0 -27 -15 -49t-40 -32l272 -667h-65l-88 219h-315l-90 -219h-62l278 667q-25 9 -39.5 31t-14.5 50q0 39 26 64t64 25q40 0 64.5 -25t24.5 -64zM451 272q-35 87 -57.5 144l-37.5 95t-24 62t-16 44q-7 -20 -16 -43.5t-24.5 -62t-39 -95.5t-59.5 -144h274zM375 750
q0 26 -16.5 42t-42.5 16q-25 0 -40.5 -17t-15.5 -43q0 -23 15 -40.5t44 -17.5q28 0 42 17.5t14 42.5zM271 860v4l132 118h85v-4l-164 -118h-53z" />
    <glyph glyph-name="aringacute" unicode="&#x1fb;" horiz-adv-x="536" 
d="M529 4q-21 -11 -52 -11q-33 0 -56.5 16t-28.5 54q-27 -37 -70.5 -56.5t-97.5 -19.5q-41 0 -74 11t-57 30.5t-37 47t-13 60.5q0 47 24 77.5t63 47.5q35 15 78 20t92 5q6 0 17.5 -0.5t24.5 -1.5t24.5 -2.5t18.5 -2.5v40q0 23 -4 46.5t-15 40.5q-17 27 -46 37.5t-66 10.5
q-18 0 -41.5 -4.5t-47 -13t-45.5 -22t-38 -31.5h-4v58q34 32 84 49t100 17q42 0 80.5 -11.5t63.5 -43.5q17 -22 25.5 -51t8.5 -82v-37.5t-0.5 -49.5t-0.5 -50.5v-40.5q0 -56 8 -74q5 -10 14 -16.5t27 -6.5q11 0 22 2.5t19 6.5v-49zM386 114q-1 16 -1 45.5v72.5q-9 2 -22 3.5
t-25.5 2.5t-24 1.5t-18.5 0.5q-41 0 -73 -3.5t-57 -13.5q-27 -10 -46.5 -29t-19.5 -57q0 -41 33 -70t101 -29q51 0 90.5 20.5t62.5 55.5zM362 669q0 -21 -8 -39.5t-22 -32t-32.5 -21t-40.5 -7.5q-44 0 -73 28.5t-29 71.5q0 45 29.5 72.5t74.5 27.5t73 -27.5t28 -72.5z
M327 670q0 31 -19 50t-50 19t-49.5 -20t-18.5 -50q0 -28 18 -48.5t53 -20.5q31 0 48.5 20.5t17.5 49.5zM208 804v4l127 151h83v-4l-156 -151h-54z" />
    <glyph glyph-name="AEacute" unicode="&#x1fc;" horiz-adv-x="948" 
d="M0 0l467 689h421v-54h-339v-250h319v-53h-319v-279h356v-53h-413v222h-271l-152 -222h-69zM492 275v360q-14 -22 -31.5 -49t-44.5 -68t-67 -99.5t-98 -143.5h241zM575 750v4l155 130h97v-4l-186 -130h-66z" />
    <glyph glyph-name="aeacute" unicode="&#x1fd;" horiz-adv-x="893" 
d="M841 52q-15 -15 -36.5 -27t-46.5 -20.5t-52 -13.5t-53 -5q-74 0 -129 25.5t-88 71.5q-15 -18 -35 -35t-46.5 -30.5t-58.5 -22t-71 -8.5q-41 0 -74 11t-57 30.5t-37 47t-13 60.5q0 46 22.5 76.5t62.5 47.5q35 16 77.5 20.5t93.5 4.5q23 0 50 -2.5t41 -4.5v41q0 30 -4 49.5
t-15 36.5q-17 28 -46 38.5t-67 10.5q-20 0 -44 -4.5t-48 -13.5t-46 -22t-37 -30h-4v56q34 32 84.5 49.5t101.5 17.5q62 0 107 -23t61 -82q15 26 37 45.5t47.5 33t53.5 20t55 6.5q107 0 165 -59t60 -168q0 -14 -0.5 -24t-2.5 -24h-404q1 -43 15.5 -78.5t41.5 -61t66 -40
t90 -14.5q49 0 96 17.5t83 54.5h4v-58zM796 280v9q0 37 -10.5 68t-31.5 53t-53.5 34.5t-76.5 12.5q-31 0 -61.5 -10.5t-55.5 -32t-42 -55t-20 -79.5h351zM413 124q-19 41 -22 107q-9 2 -22 3.5t-26.5 2.5t-25.5 1.5t-19 0.5q-42 0 -75 -3.5t-59 -13.5q-27 -11 -45.5 -29.5
t-18.5 -53.5q0 -41 32 -71t100 -30q28 0 55 7t50.5 19t43 27.5t32.5 32.5zM397 579v4l129 161h83v-4l-158 -161h-54z" />
    <glyph glyph-name="Oslashacute" unicode="&#x1fe;" horiz-adv-x="809" 
d="M121 -43l65 102q-63 48 -98.5 122t-35.5 163q0 75 27.5 141t75 114.5t112 76.5t138.5 28q47 0 89.5 -10.5t79.5 -30.5l51 79h56l-67 -104q66 -48 104.5 -124t38.5 -170q0 -75 -27 -140.5t-74 -114t-112 -76t-140 -27.5q-51 0 -96.5 12.5t-84.5 35.5l-49 -77h-53zM699 345
q0 76 -31 140t-85 106l-329 -510q67 -41 151 -41q63 0 117 23t93.5 64t61.5 97t22 121zM111 345q0 -75 28.5 -136t77.5 -102l327 509q-31 17 -66 26t-73 9q-62 0 -116 -24t-93.5 -65t-62 -97t-22.5 -120zM340 750v4l155 130h97v-4l-186 -130h-66z" />
    <glyph glyph-name="oslashacute" unicode="&#x1ff;" horiz-adv-x="612" 
d="M88 -50l58 90q-46 35 -72 89t-26 118q0 54 20.5 101.5t55.5 83t82.5 55.5t101.5 20q65 0 119 -28l43 67h47l-56 -87q48 -35 75 -89.5t27 -122.5q0 -55 -19.5 -102.5t-54 -82.5t-82 -55t-102.5 -20q-35 0 -67 8.5t-60 23.5l-44 -69h-46zM507 247q0 51 -20.5 93.5
t-55.5 71.5l-224 -348q45 -25 99 -25q44 0 81 16t63.5 44.5t41.5 66t15 81.5zM104 247q0 -51 19 -92t52 -69l223 347q-42 22 -92 22q-43 0 -80 -16t-64 -44.5t-42.5 -66.5t-15.5 -81zM256 579v4l129 161h83v-4l-158 -161h-54z" />
    <glyph glyph-name="uni0218" unicode="&#x218;" horiz-adv-x="564" 
d="M42 136h4q43 -44 101.5 -69.5t135.5 -25.5q52 0 87 10.5t56.5 28.5t31 42.5t9.5 53.5q0 47 -36.5 75.5t-118.5 54.5l-113 37q-75 24 -110 67.5t-35 103.5q0 43 17 78.5t48.5 60.5t77 38.5t103.5 13.5q28 0 57.5 -5t56.5 -13.5t48.5 -19.5t34.5 -24v-66h-4
q-38 37 -92 55.5t-108 18.5q-50 0 -84.5 -11t-55.5 -29t-30.5 -42t-9.5 -50q0 -48 30.5 -77.5t99.5 -51.5l122 -39q38 -12 68.5 -27t51.5 -35t32 -46.5t11 -61.5q0 -39 -13.5 -74.5t-43.5 -62t-77.5 -42.5t-114.5 -16q-69 0 -132.5 21t-104.5 58v71zM186 -282v4
q28 23 50.5 60t22.5 85q0 17 -2.5 34.5t-9.5 34.5h57q5 -13 8 -30.5t3 -32.5q0 -51 -25 -91t-55 -64h-49z" />
    <glyph glyph-name="uni0219" unicode="&#x219;" horiz-adv-x="445" 
d="M49 110h4q15 -18 35.5 -31.5t44 -22.5t48.5 -13.5t49 -4.5q39 0 64 7t39.5 19t20.5 28t6 33q0 16 -5 28.5t-17 23t-32.5 19.5t-50.5 18l-91 26q-57 17 -82 50t-25 78q0 64 50 101.5t138 37.5q21 0 43 -3.5t42.5 -9.5t37 -14t25.5 -17v-61h-4q-13 13 -30.5 23t-37 17
t-40.5 10.5t-40 3.5q-69 0 -98.5 -24.5t-29.5 -59.5t21.5 -54.5t63.5 -31.5l96 -28q60 -17 91.5 -46.5t31.5 -81.5q0 -29 -10.5 -55t-33.5 -46t-58.5 -31.5t-86.5 -11.5q-24 0 -50 4t-50 11.5t-44.5 18.5t-34.5 25v65zM129 -282v4q28 23 50.5 60t22.5 85q0 17 -2.5 34.5
t-9.5 34.5h57q5 -13 8 -30.5t3 -32.5q0 -51 -25 -91t-55 -64h-49z" />
    <glyph glyph-name="uni021A" unicode="&#x21a;" horiz-adv-x="564" 
d="M249 0v635h-228v54h522v-54h-236v-635h-58zM191 -282v4q28 23 50.5 60t22.5 85q0 17 -2.5 34.5t-9.5 34.5h57q5 -13 8 -30.5t3 -32.5q0 -51 -25 -91t-55 -64h-49z" />
    <glyph glyph-name="uni021B" unicode="&#x21b;" horiz-adv-x="312" 
d="M311 12q-17 -13 -42.5 -18.5t-45.5 -5.5q-32 0 -58 12t-40 33q-13 20 -17.5 48t-4.5 71v293h-78v47h79v21q0 14 0.5 43t1.5 80h50v-144h132v-47h-132v-292q0 -32 4 -51.5t9 -29.5q6 -15 23.5 -23.5t40.5 -8.5q19 0 39 5.5t35 17.5h4v-51zM94 -282v4q28 23 50.5 60
t22.5 85q0 17 -2.5 34.5t-9.5 34.5h57q5 -13 8 -30.5t3 -32.5q0 -51 -25 -91t-55 -64h-49z" />
    <glyph glyph-name="circumflex" unicode="&#x2c6;" horiz-adv-x="210" 
d="M-45 575v4l133 156h33l135 -156v-4h-55l-98 100l-95 -100h-53z" />
    <glyph glyph-name="caron" unicode="&#x2c7;" horiz-adv-x="210" 
d="M256 739v-4l-133 -156h-33l-135 156v4h55l98 -100l95 100h53z" />
    <glyph glyph-name="breve" unicode="&#x2d8;" horiz-adv-x="210" 
d="M8 714q2 -55 29.5 -77.5t65.5 -22.5q94 0 98 100h45q0 -30 -9 -57.5t-27 -47.5t-45 -32t-63 -12q-70 0 -104 42t-34 107h44z" />
    <glyph glyph-name="dotaccent" unicode="&#x2d9;" horiz-adv-x="210" 
d="M145 656q0 -19 -12 -29.5t-29 -10.5t-28.5 10.5t-11.5 29.5q0 21 12.5 31.5t28.5 10.5q14 0 27 -10t13 -32z" />
    <glyph glyph-name="ring" unicode="&#x2da;" horiz-adv-x="210" 
d="M207 669q0 -21 -8 -39.5t-22 -32t-32.5 -21t-40.5 -7.5q-44 0 -73 28.5t-29 71.5q0 45 29.5 72.5t74.5 27.5t73 -27.5t28 -72.5zM173 670q0 31 -19.5 50t-50.5 19q-30 0 -48.5 -20t-18.5 -50q0 -28 17.5 -48.5t52.5 -20.5q31 0 49 20.5t18 49.5z" />
    <glyph glyph-name="ogonek" unicode="&#x2db;" horiz-adv-x="210" 
d="M191 14q-68 -38 -97 -72t-29 -73q0 -32 19.5 -49t52.5 -17q16 0 33.5 5t30.5 13h4v-40q-16 -11 -36.5 -16t-40.5 -5q-23 0 -43.5 6t-37 18.5t-26 32.5t-9.5 48q0 91 127 149h52v0z" />
    <glyph glyph-name="tilde" unicode="&#x2dc;" horiz-adv-x="210" 
d="M-48 602q5 56 29.5 82t59.5 26q20 0 35 -7t39 -24q40 -29 60 -29q18 0 27 13t13 48h43q-2 -30 -9.5 -51t-19.5 -35t-26 -20.5t-29 -6.5q-22 0 -37.5 7t-42.5 25q-20 14 -32.5 21t-23.5 7q-34 0 -43 -56h-43z" />
    <glyph glyph-name="hungarumlaut" unicode="&#x2dd;" horiz-adv-x="210" 
d="M-68 575v4l114 161h75v-4l-138 -161h-51zM85 575v4l114 161h74v-4l-138 -161h-50z" />
    <glyph glyph-name="uni0394" unicode="&#x394;" horiz-adv-x="659" 
d="M4 0l301 690h53l296 -690h-650zM330 624q-9 -24 -23 -58.5t-40.5 -97t-69.5 -162t-110 -253.5h484q-44 103 -78 181t-58.5 136.5t-42 99.5t-29.5 70t-19.5 49t-13.5 35z" />
    <glyph glyph-name="uni03A9" unicode="&#x3a9;" horiz-adv-x="736" 
d="M63 0v53h201q-99 41 -149 120t-50 193q0 74 23.5 134.5t64.5 103t97 66t121 23.5q64 0 118.5 -23t94.5 -65t62 -101t22 -130q0 -229 -197 -321h200v-53h-248v83q87 35 135.5 105.5t48.5 174.5q0 61 -19 111.5t-51.5 86.5t-76 56t-91.5 20q-50 0 -94 -20t-77 -56t-52 -87
t-19 -113q0 -98 46 -171t139 -107v-83h-249z" />
    <glyph glyph-name="uni03BC" unicode="&#x3bc;" horiz-adv-x="589" 
d="M90 -211v703h54v-279q0 -41 4.5 -70t13.5 -44q15 -24 43 -40.5t77 -16.5q56 0 102 28.5t69 70.5v351h54v-492h-51v83q-24 -41 -69.5 -67.5t-111.5 -26.5q-40 0 -76.5 15t-53.5 44v-259h-55z" />
    <glyph glyph-name="pi" unicode="&#x3c0;" horiz-adv-x="570" 
d="M464 442v-259q0 -54 5.5 -99.5t18.5 -83.5h-57q-11 35 -15.5 78.5t-4.5 102.5v261h-238v-442h-54v442h-67v49h481v-49h-69z" />
    <glyph glyph-name="Wgrave" unicode="&#x1e80;" horiz-adv-x="920" 
d="M210 0l-197 689h64q30 -105 52 -183t38 -135.5t27 -98t19 -71.5t14.5 -55.5t12.5 -50.5q7 25 14.5 50t17.5 56t23 71.5t32.5 98t45.5 135.5l61 183h52q34 -107 59 -186t43 -136t30.5 -97.5t22 -70.5t16.5 -54.5t15 -49.5q6 25 12.5 49t15 54.5t19.5 70.5t28 98t40 136.5
t54 185.5h65l-210 -689h-52q-33 103 -57 180t-42 133.5t-31 97.5t-23 73.5t-18 59.5t-16 56q-9 -28 -17 -54.5t-18.5 -59t-24 -73.5t-32.5 -98.5t-44 -134.5t-59 -180h-52zM469 750l-187 130v4h97l155 -130v-4h-65z" />
    <glyph glyph-name="wgrave" unicode="&#x1e81;" horiz-adv-x="741" 
d="M195 0l-164 492h61q36 -108 58 -177t35.5 -112.5t21 -69.5t13.5 -49q7 23 15.5 48t23.5 68.5t40.5 112.5t66.5 179h44q42 -114 68 -184t41.5 -112.5t23.5 -66.5t15 -46q6 22 12.5 46.5t19.5 68t35 113.5t57 181h59l-163 -492h-43q-29 80 -50.5 138.5t-36.5 100.5l-25 70
t-17 47.5t-11.5 33t-8.5 27.5q-4 -14 -8.5 -27.5t-11 -33.5t-16.5 -48l-25 -70t-36 -100t-50 -138h-44zM394 579l-160 161v4h85l130 -161v-4h-55z" />
    <glyph glyph-name="Wacute" unicode="&#x1e82;" horiz-adv-x="920" 
d="M210 0l-197 689h64q30 -105 52 -183t38 -135.5t27 -98t19 -71.5t14.5 -55.5t12.5 -50.5q7 25 14.5 50t17.5 56t23 71.5t32.5 98t45.5 135.5l61 183h52q34 -107 59 -186t43 -136t30.5 -97.5t22 -70.5t16.5 -54.5t15 -49.5q6 25 12.5 49t15 54.5t19.5 70.5t28 98t40 136.5
t54 185.5h65l-210 -689h-52q-33 103 -57 180t-42 133.5t-31 97.5t-23 73.5t-18 59.5t-16 56q-9 -28 -17 -54.5t-18.5 -59t-24 -73.5t-32.5 -98.5t-44 -134.5t-59 -180h-52zM390 750v4l155 130h97v-4l-186 -130h-66z" />
    <glyph glyph-name="wacute" unicode="&#x1e83;" horiz-adv-x="741" 
d="M195 0l-164 492h61q36 -108 58 -177t35.5 -112.5t21 -69.5t13.5 -49q7 23 15.5 48t23.5 68.5t40.5 112.5t66.5 179h44q42 -114 68 -184t41.5 -112.5t23.5 -66.5t15 -46q6 22 12.5 46.5t19.5 68t35 113.5t57 181h59l-163 -492h-43q-29 80 -50.5 138.5t-36.5 100.5l-25 70
t-17 47.5t-11.5 33t-8.5 27.5q-4 -14 -8.5 -27.5t-11 -33.5t-16.5 -48l-25 -70t-36 -100t-50 -138h-44zM331 579v4l129 161h83v-4l-158 -161h-54z" />
    <glyph glyph-name="Wdieresis" unicode="&#x1e84;" horiz-adv-x="920" 
d="M210 0l-197 689h64q30 -105 52 -183t38 -135.5t27 -98t19 -71.5t14.5 -55.5t12.5 -50.5q7 25 14.5 50t17.5 56t23 71.5t32.5 98t45.5 135.5l61 183h52q34 -107 59 -186t43 -136t30.5 -97.5t22 -70.5t16.5 -54.5t15 -49.5q6 25 12.5 49t15 54.5t19.5 70.5t28 98t40 136.5
t54 185.5h65l-210 -689h-52q-33 103 -57 180t-42 133.5t-31 97.5t-23 73.5t-18 59.5t-16 56q-9 -28 -17 -54.5t-18.5 -59t-24 -73.5t-32.5 -98.5t-44 -134.5t-59 -180h-52zM409 808q0 -19 -12 -30t-29 -11t-28.5 10.5t-11.5 30.5t12.5 30.5t28.5 10.5q14 0 27 -10t13 -31z
M588 808q0 -19 -12 -30t-29 -11t-29 10.5t-12 30.5t13 30.5t28 10.5t28 -10t13 -31z" />
    <glyph glyph-name="wdieresis" unicode="&#x1e85;" horiz-adv-x="741" 
d="M195 0l-164 492h61q36 -108 58 -177t35.5 -112.5t21 -69.5t13.5 -49q7 23 15.5 48t23.5 68.5t40.5 112.5t66.5 179h44q42 -114 68 -184t41.5 -112.5t23.5 -66.5t15 -46q6 22 12.5 46.5t19.5 68t35 113.5t57 181h59l-163 -492h-43q-29 80 -50.5 138.5t-36.5 100.5l-25 70
t-17 47.5t-11.5 33t-8.5 27.5q-4 -14 -8.5 -27.5t-11 -33.5t-16.5 -48l-25 -70t-36 -100t-50 -138h-44zM342 656q0 -19 -12 -29.5t-29 -10.5t-28.5 10.5t-11.5 29.5q0 21 12.5 31.5t28.5 10.5q14 0 27 -10t13 -32zM515 656q0 -19 -12 -29.5t-29 -10.5t-28.5 10.5t-11.5 29.5
q0 21 12.5 31.5t28.5 10.5q14 0 27 -10t13 -32z" />
    <glyph glyph-name="Ygrave" unicode="&#x1ef2;" horiz-adv-x="600" 
d="M267 0v278l-264 411h71q61 -96 99.5 -156t62.5 -97.5t37 -59.5t25 -42q8 14 16.5 27.5t19.5 31t26.5 42t38 59t53.5 82.5t74 113h71l-272 -411v-278h-58zM304 750l-187 130v4h97l155 -130v-4h-65z" />
    <glyph glyph-name="ygrave" unicode="&#x1ef3;" horiz-adv-x="482" 
d="M12 -140h4q11 -9 30 -14.5t40 -5.5q31 0 48.5 13.5t28.5 30.5q9 14 18.5 35t17.5 42l18 46l-210 485h62q44 -102 73 -169t48 -113t32 -78.5t25 -65.5q12 32 24.5 64.5t31.5 79.5t46.5 114t68.5 168h60l-210 -501q-13 -30 -22.5 -52t-17 -38.5t-14 -28t-12.5 -21.5
q-21 -33 -50.5 -48t-64.5 -15q-21 0 -40.5 4t-34.5 14v54zM244 579l-160 161v4h85l130 -161v-4h-55z" />
    <glyph glyph-name="endash" unicode="&#x2013;" horiz-adv-x="538" 
d="M40 246v49h458v-49h-458z" />
    <glyph glyph-name="emdash" unicode="&#x2014;" horiz-adv-x="838" 
d="M40 246v49h757v-49h-757z" />
    <glyph glyph-name="quoteleft" unicode="&#x2018;" horiz-adv-x="186" 
d="M186 719v-4q-34 -27 -59 -72.5t-25 -102.5q0 -20 4 -40t12 -39h-61q-8 16 -11 35.5t-3 38.5q0 61 27.5 108.5t64.5 75.5h51z" />
    <glyph glyph-name="quoteright" unicode="&#x2019;" horiz-adv-x="186" 
d="M0 461v4q34 27 59 72.5t25 102.5q0 20 -4 40t-12 39h61q8 -16 11 -35.5t3 -38.5q0 -60 -27.5 -108t-64.5 -76h-51z" />
    <glyph glyph-name="quotesinglbase" unicode="&#x201a;" horiz-adv-x="187" 
d="M0 -141v4q34 27 59 72.5t25 101.5q0 43 -16 79h61q8 -15 11 -35t3 -38q0 -61 -27.5 -108.5t-64.5 -75.5h-51z" />
    <glyph glyph-name="quotedblleft" unicode="&#x201c;" horiz-adv-x="340" 
d="M340 719v-4q-34 -27 -59 -72.5t-25 -102.5q0 -20 4 -40t12 -39h-61q-8 16 -11 35.5t-3 38.5q0 61 27.5 108.5t64.5 75.5h51zM186 719v-4q-34 -27 -59 -72.5t-25 -102.5q0 -20 4 -40t12 -39h-61q-8 16 -11 35.5t-3 38.5q0 61 27.5 108.5t64.5 75.5h51z" />
    <glyph glyph-name="quotedblright" unicode="&#x201d;" horiz-adv-x="340" 
d="M0 461v4q34 27 59 72.5t25 102.5q0 20 -4 40t-12 39h61q8 -16 11 -35.5t3 -38.5q0 -60 -27.5 -108t-64.5 -76h-51zM154 461v4q34 27 59 72.5t25 102.5q0 20 -4 40t-12 39h61q8 -16 11 -35.5t3 -38.5q0 -60 -27.5 -108t-64.5 -76h-51z" />
    <glyph glyph-name="quotedblbase" unicode="&#x201e;" horiz-adv-x="340" 
d="M0 -141v4q34 27 59 72.5t25 101.5q0 43 -16 79h61q8 -15 11 -35t3 -38q0 -61 -27.5 -108.5t-64.5 -75.5h-51zM154 -141v4q34 27 59 72.5t25 101.5q0 43 -16 79h61q8 -15 11 -35t3 -38q0 -61 -27.5 -108.5t-64.5 -75.5h-51z" />
    <glyph glyph-name="dagger" unicode="&#x2020;" horiz-adv-x="471" 
d="M210 -89v539h-185v48h185v220h51v-221h185v-47h-185v-539h-51z" />
    <glyph glyph-name="daggerdbl" unicode="&#x2021;" horiz-adv-x="467" 
d="M260 143v-232h-52v232h-183v49h183v260h-183v48h183v218h52v-219h182v-47h-182v-260h182v-49h-182z" />
    <glyph glyph-name="bullet" unicode="&#x2022;" horiz-adv-x="328" 
d="M272 254q0 -49 -31 -79t-77 -30q-45 0 -76.5 29t-31.5 80q0 30 10 51t25.5 34.5t34.5 20t38 6.5t38.5 -6.5t35 -20t25 -34.5t9.5 -51z" />
    <glyph glyph-name="ellipsis" unicode="&#x2026;" horiz-adv-x="879" 
d="M201 36q0 -22 -13.5 -34t-33.5 -12t-33 12t-13 34q0 24 14.5 35.5t32.5 11.5q17 0 31.5 -11.5t14.5 -35.5zM486 36q0 -22 -13.5 -34t-33.5 -12t-33 12t-13 34q0 24 14.5 35.5t32.5 11.5q17 0 31.5 -11.5t14.5 -35.5zM771 36q0 -22 -13.5 -34t-33.5 -12t-33 12t-13 34
q0 24 14.5 35.5t32.5 11.5q17 0 31.5 -11.5t14.5 -35.5z" />
    <glyph glyph-name="perthousand" unicode="&#x2030;" horiz-adv-x="1230" 
d="M357 459q0 -100 -44 -157t-118 -57q-75 0 -118 57t-43 157q0 49 12 89t34 68t51.5 43t65.5 15q75 0 117.5 -58t42.5 -157zM309 460q0 82 -30.5 127t-82.5 45t-83 -45t-31 -127q0 -83 31 -128t83 -45t82.5 45t30.5 128zM234 -12l337 694h43l-336 -694h-44zM813 206
q0 -100 -44 -157t-118 -57q-75 0 -118 57t-43 157q0 49 12 89t34 68t51.5 43t65.5 15q75 0 117.5 -58t42.5 -157zM765 207q0 82 -30 127t-82 45q-53 0 -83.5 -45t-30.5 -127q0 -83 30.5 -128t82.5 -45q53 0 83 45t30 128zM1197 206q0 -100 -44.5 -157t-118.5 -57t-117.5 57
t-43.5 157q0 49 12 89t34 68t52 43t65 15q75 0 118 -58t43 -157zM1149 207q0 82 -30.5 127t-82.5 45t-83 -45t-31 -127q0 -83 31 -128t83 -45t82.5 45t30.5 128z" />
    <glyph glyph-name="guilsinglleft" unicode="&#x2039;" horiz-adv-x="258" 
d="M165 68l-139 184l138 184h62l-136 -184l137 -184h-62z" />
    <glyph glyph-name="guilsinglright" unicode="&#x203a;" horiz-adv-x="258" 
d="M93 436l139 -184l-138 -184h-62l136 184l-137 184h62z" />
    <glyph glyph-name="fraction" unicode="&#x2044;" horiz-adv-x="89" 
d="M-148 -12l337 694h43l-336 -694h-44z" />
    <glyph glyph-name="uni2070" unicode="&#x2070;" 
d="M357 606q0 -100 -44 -157t-118 -57q-75 0 -118 57t-43 157q0 49 12 89t34 68t51.5 43t65.5 15q75 0 117.5 -58t42.5 -157zM309 607q0 82 -30.5 127t-82.5 45t-83 -45t-31 -127q0 -83 31 -128t83 -45t82.5 45t30.5 128z" />
    <glyph glyph-name="uni2074" unicode="&#x2074;" 
d="M237 400v108h-215v30l222 283h39v-272h74v-41h-74v-108h-46zM237 549q0 60 1 110t2 96q-11 -16 -21.5 -30.5t-28 -36t-44 -54.5t-68.5 -85h159z" />
    <glyph glyph-name="uni2075" unicode="&#x2075;" 
d="M46 477h4q28 -23 60 -33t60 -10q57 0 84.5 26t27.5 71t-27.5 66t-78.5 21q-32 0 -60 -11t-46 -25h-4l24 230h219v-42h-182l-14 -131q13 8 36.5 14.5t47.5 6.5q27 0 51.5 -7t43 -22.5t29.5 -39t11 -56.5q0 -37 -13 -64t-35 -44.5t-52 -26t-64 -8.5q-28 0 -60.5 7.5
t-61.5 27.5v50z" />
    <glyph glyph-name="uni2076" unicode="&#x2076;" 
d="M86 593q13 31 45 53.5t78 22.5q27 0 52 -8t43.5 -24.5t29.5 -41.5t11 -59q0 -35 -11.5 -62t-31 -45.5t-46.5 -28t-57 -9.5q-28 0 -56 9t-51 31.5t-37.5 61t-14.5 96.5q0 64 16.5 108.5t43 72t60.5 39.5t69 12q26 0 52.5 -6t45.5 -20v-51h-4q-20 20 -45 27.5t-48 7.5
q-37 0 -64 -14t-44 -39t-26 -59t-10 -74zM93 538q1 -11 2.5 -21t5.5 -19q10 -27 34.5 -46t60.5 -19q20 0 38 6t32 18t22 31t8 45q0 49 -27 72.5t-68 23.5q-23 0 -42 -7.5t-32.5 -20.5t-22 -29t-11.5 -34z" />
    <glyph glyph-name="uni2077" unicode="&#x2077;" 
d="M112 400q18 45 39.5 94t44 98t44.5 94.5t41 83.5h-243v42h293v-31q-45 -91 -88 -189t-81 -192h-50z" />
    <glyph glyph-name="uni2078" unicode="&#x2078;" 
d="M251 615q40 -11 63 -37t23 -66q0 -54 -41 -87.5t-110 -33.5q-32 0 -59.5 7.5t-47.5 22.5t-31.5 37t-11.5 51q0 37 22 62t61 38q-32 13 -49.5 38t-17.5 60q0 51 39 82.5t98 31.5q60 0 97 -29.5t37 -83.5q0 -33 -19 -57.5t-53 -35.5zM190 630q38 3 62 21t24 55q0 32 -23 53
t-66 21q-40 0 -64.5 -20.5t-24.5 -51.5q0 -40 27.5 -57.5t64.5 -20.5zM182 591q-41 -3 -69.5 -22.5t-28.5 -57.5q0 -19 8.5 -34t23 -25t33 -15t38.5 -5q44 0 73.5 21.5t29.5 58.5q0 22 -9.5 36.5t-25 23.5t-35 13.5t-38.5 5.5z" />
    <glyph glyph-name="uni2079" unicode="&#x2079;" 
d="M42 469h4q20 -20 48.5 -27.5t56.5 -7.5q37 0 63 13t42 37t23.5 57t8.5 72q-12 -29 -44.5 -49t-77.5 -20q-27 0 -51.5 8.5t-43 25t-29.5 41.5t-11 58q0 34 12 61t32.5 45.5t48 28t58.5 9.5q28 0 55 -8.5t49 -30.5t35.5 -60.5t13.5 -97.5q0 -65 -15 -109.5t-40 -72
t-58.5 -39.5t-70.5 -12q-29 0 -60 7.5t-49 22.5v48zM283 666q0 14 -2.5 27.5t-6.5 23.5q-11 27 -35 44.5t-60 17.5q-18 0 -36.5 -5.5t-32.5 -17.5t-23 -31t-9 -46q0 -48 27.5 -71.5t69.5 -23.5q43 0 70 23.5t38 58.5z" />
    <glyph glyph-name="uni207D" unicode="&#x207d;" horiz-adv-x="229" 
d="M188 295q-28 18 -56 43.5t-50.5 60t-37 78.5t-14.5 98q0 55 12.5 98.5t34 78t50.5 61t61 46.5h43v-4q-73 -48 -115 -115.5t-42 -164.5q0 -47 12 -86.5t33.5 -74t50 -63t61.5 -52.5v-4h-43v0z" />
    <glyph glyph-name="uni207E" unicode="&#x207e;" horiz-adv-x="229" 
d="M41 859q28 -18 56 -43.5t50.5 -60t37 -78.5t14.5 -98q0 -55 -12.5 -98.5t-34 -78t-50.5 -61t-61 -46.5h-43v4q73 48 115 115.5t42 164.5q0 46 -12 86t-33.5 74.5t-50 63t-61.5 52.5v4h43v0z" />
    <glyph glyph-name="uni2080" unicode="&#x2080;" 
d="M357 79q0 -100 -44 -157t-118 -57q-75 0 -118 57t-43 157q0 49 12 89t34 68t51.5 43t65.5 15q75 0 117.5 -58t42.5 -157zM309 80q0 82 -30.5 127t-82.5 45t-83 -45t-31 -127q0 -83 31 -128t83 -45t82.5 45t30.5 128z" />
    <glyph glyph-name="uni2081" unicode="&#x2081;" 
d="M178 -127v364l-92 -50v45l103 58h36v-417h-47z" />
    <glyph glyph-name="uni2082" unicode="&#x2082;" 
d="M32 -127v27q43 35 87 72.5t83 75.5q32 32 46.5 63t14.5 57q0 16 -5.5 31t-16.5 26.5t-29 18.5t-43 7q-32 0 -64.5 -14.5t-57.5 -44.5h-4v49q23 26 59 39.5t71 13.5q69 0 104 -33.5t35 -87.5q0 -42 -18.5 -74.5t-43.5 -60.5q-9 -10 -27 -26t-39 -34t-42 -35t-37 -29
q24 0 47.5 0.5t50.5 0.5h58.5h72.5v-42h-302z" />
    <glyph glyph-name="uni2083" unicode="&#x2083;" 
d="M48 -48h4q23 -23 55 -34t63 -11t51.5 7.5t31.5 19.5t15.5 27t4.5 29q0 20 -14 39.5t-45 27.5q-12 3 -29.5 5t-36.5 2h-18v40h18q26 0 44.5 4t29.5 10q16 8 27 24t11 40q0 27 -19 48t-66 21q-12 0 -27 -3t-31 -9t-30.5 -16t-25.5 -24h-4v49q20 20 54 32.5t69 12.5
q64 0 96.5 -28.5t32.5 -80.5q0 -32 -20.5 -58.5t-56.5 -38.5q40 -7 65.5 -31.5t25.5 -65.5q0 -60 -41.5 -93t-111.5 -33q-32 0 -65.5 9t-56.5 28v51z" />
    <glyph glyph-name="uni2084" unicode="&#x2084;" 
d="M237 -127v108h-215v30l222 283h39v-272h74v-41h-74v-108h-46zM237 22q0 60 1 110t2 96q-11 -16 -21.5 -30.5t-28 -36t-44 -54.5t-68.5 -85h159z" />
    <glyph glyph-name="uni2085" unicode="&#x2085;" 
d="M46 -50h4q28 -23 60 -33t60 -10q57 0 84.5 26t27.5 71t-27.5 66t-78.5 21q-32 0 -60 -11t-46 -25h-4l24 230h219v-42h-182l-14 -131q13 8 36.5 14.5t47.5 6.5q27 0 51.5 -7t43 -22.5t29.5 -39t11 -56.5q0 -37 -13 -64t-35 -44.5t-52 -26t-64 -8.5q-28 0 -60.5 7.5
t-61.5 27.5v50z" />
    <glyph glyph-name="uni2086" unicode="&#x2086;" 
d="M86 66q13 31 45 53.5t78 22.5q27 0 52 -8t43.5 -24.5t29.5 -41.5t11 -59q0 -35 -11.5 -62t-31 -45.5t-46.5 -28t-57 -9.5q-28 0 -56 9t-51 31.5t-37.5 61t-14.5 96.5q0 64 16.5 108.5t43 72t60.5 39.5t69 12q26 0 52.5 -6t45.5 -20v-51h-4q-20 20 -45 27.5t-48 7.5
q-37 0 -64 -14t-44 -39t-26 -59t-10 -74zM93 11q1 -11 2.5 -21t5.5 -19q10 -27 34.5 -46t60.5 -19q20 0 38 6t32 18t22 31t8 45q0 49 -27 72.5t-68 23.5q-23 0 -42 -7.5t-32.5 -20.5t-22 -29t-11.5 -34z" />
    <glyph glyph-name="uni2087" unicode="&#x2087;" 
d="M112 -127q18 45 39.5 94t44 98t44.5 94.5t41 83.5h-243v42h293v-31q-45 -91 -88 -189t-81 -192h-50z" />
    <glyph glyph-name="uni2088" unicode="&#x2088;" 
d="M251 88q40 -11 63 -37t23 -66q0 -54 -41 -87.5t-110 -33.5q-32 0 -59.5 7.5t-47.5 22.5t-31.5 37t-11.5 51q0 37 22 62t61 38q-32 13 -49.5 38t-17.5 60q0 51 39 82.5t98 31.5q60 0 97 -29.5t37 -83.5q0 -33 -19 -57.5t-53 -35.5zM190 103q38 3 62 21t24 55q0 32 -23 53
t-66 21q-40 0 -64.5 -20.5t-24.5 -51.5q0 -40 27.5 -57.5t64.5 -20.5zM182 64q-41 -3 -69.5 -22.5t-28.5 -57.5q0 -19 8.5 -34t23 -25t33 -15t38.5 -5q44 0 73.5 21.5t29.5 58.5q0 22 -9.5 36.5t-25 23.5t-35 13.5t-38.5 5.5z" />
    <glyph glyph-name="uni2089" unicode="&#x2089;" 
d="M42 -58h4q20 -20 48.5 -27.5t56.5 -7.5q37 0 63 13t42 37t23.5 57t8.5 72q-12 -29 -44.5 -49t-77.5 -20q-27 0 -51.5 8.5t-43 25t-29.5 41.5t-11 58q0 34 12 61t32.5 45.5t48 28t58.5 9.5q28 0 55 -8.5t49 -30.5t35.5 -60.5t13.5 -97.5q0 -65 -15 -109.5t-40 -72
t-58.5 -39.5t-70.5 -12q-29 0 -60 7.5t-49 22.5v48zM283 139q0 14 -2.5 27.5t-6.5 23.5q-11 27 -35 44.5t-60 17.5q-18 0 -36.5 -5.5t-32.5 -17.5t-23 -31t-9 -46q0 -48 27.5 -71.5t69.5 -23.5q43 0 70 23.5t38 58.5z" />
    <glyph glyph-name="uni208D" unicode="&#x208d;" horiz-adv-x="229" 
d="M188 -232q-28 18 -56 43.5t-50.5 60t-37 78.5t-14.5 98q0 55 12.5 98.5t34 78t50.5 61t61 46.5h43v-4q-73 -48 -115 -115.5t-42 -164.5q0 -47 12 -86.5t33.5 -74t50 -63t61.5 -52.5v-4h-43v0z" />
    <glyph glyph-name="uni208E" unicode="&#x208e;" horiz-adv-x="229" 
d="M41 332q28 -18 56 -43.5t50.5 -60t37 -78.5t14.5 -98q0 -55 -12.5 -98.5t-34 -78t-50.5 -61t-61 -46.5h-43v4q73 48 115 115.5t42 164.5q0 46 -12 86t-33.5 74.5t-50 63t-61.5 52.5v4h43v0z" />
    <glyph glyph-name="Euro" unicode="&#x20ac;" horiz-adv-x="647" 
d="M198 243q10 -58 33.5 -97t55 -62.5t70.5 -33.5t81 -10q53 0 96 18t79 50h4v-59q-30 -27 -80.5 -45t-107.5 -18q-122 0 -196.5 66t-94.5 191h-83v38h78q-1 13 -1.5 26t-0.5 27v20.5t1 19.5h-77v38h81q10 66 37 116t67 83.5t90.5 50.5t108.5 17q49 0 96.5 -14t76.5 -41v-65
h-4q-29 32 -76.5 49.5t-93.5 17.5q-44 0 -83.5 -11.5t-72 -37t-55.5 -66.5t-32 -99h290v-38h-294q-1 -9 -1 -18v-19q0 -15 0.5 -29t1.5 -27h293v-38h-287z" />
    <glyph glyph-name="uni2113" unicode="&#x2113;" horiz-adv-x="446" 
d="M427 38q-30 -28 -64.5 -40t-69.5 -12q-79 0 -123.5 47t-59.5 141q-14 -11 -29.5 -21.5t-28.5 -18.5v58q13 8 25.5 17t26.5 19q-5 40 -6.5 72t-1.5 52q0 68 7 117.5t22 89.5q23 60 63.5 90t90.5 30q57 0 90.5 -34.5t33.5 -103.5q0 -47 -19 -91t-52 -85t-77.5 -79.5
t-95.5 -74.5q8 -91 43 -131t97 -40q29 0 62 13.5t62 42.5h4v-58zM154 266q42 31 78 65t62.5 69t42 69.5t15.5 67.5q0 27 -6.5 44.5t-17.5 28t-24.5 15t-28.5 4.5q-35 0 -61 -24t-39 -59q-9 -25 -17.5 -68.5t-8.5 -112.5q0 -16 1 -41t4 -58z" />
    <glyph glyph-name="trademark" unicode="&#x2122;" horiz-adv-x="876" 
d="M177 329v320h-117v40h284v-40h-121v-320h-46zM413 329v360h66q31 -65 50 -105t31 -65t18.5 -40.5t13.5 -31.5q6 14 12 29t17.5 40.5t29.5 66.5t47 106h67v-360h-47v125.5v89t0.5 60t0.5 40.5q-6 -15 -13 -31.5t-19 -43.5t-31 -69t-49 -108h-34q-30 65 -50 106t-32.5 67.5
t-20.5 44t-15 34.5q1 -20 1.5 -45t1 -61.5t0.5 -87.5v-121h-45z" />
    <glyph glyph-name="Omega" unicode="&#x2126;" horiz-adv-x="736" 
d="M63 0v53h201q-99 41 -149 120t-50 193q0 74 23.5 134.5t64.5 103t97 66t121 23.5q64 0 118.5 -23t94.5 -65t62 -101t22 -130q0 -229 -197 -321h200v-53h-248v83q87 35 135.5 105.5t48.5 174.5q0 61 -19 111.5t-51.5 86.5t-76 56t-91.5 20q-50 0 -94 -20t-77 -56t-52 -87
t-19 -113q0 -98 46 -171t139 -107v-83h-249z" />
    <glyph glyph-name="estimated" unicode="&#x212e;" horiz-adv-x="899" 
d="M199 336q-6 0 -6 -4v-195q0 -7 3 -12t7 -10q47 -49 111 -77.5t137 -28.5q78 0 145 32t115 86h60q-56 -63 -139.5 -101t-181.5 -38q-84 0 -157.5 28t-128.5 76.5t-87 114t-32 139.5t32 139t87 113.5t128.5 76.5t157.5 28t157.5 -28t128 -76.5t86.5 -113.5t32 -139v-10
h-655zM707 557q0 13 -11 24q-48 46 -110.5 73.5t-134.5 27.5q-73 0 -136 -28.5t-111 -76.5q-11 -9 -11 -24v-191q0 -5 6 -5h502q6 0 6 5v195z" />
    <glyph glyph-name="onethird" unicode="&#x2153;" horiz-adv-x="847" 
d="M196 -12l337 694h43l-336 -694h-44zM177 253v364l-92 -50v45l103 58h36v-417h-47zM500 79h4q23 -23 55 -34t63 -11t51.5 7.5t31.5 19.5t15.5 27t4.5 29q0 20 -14 39.5t-45 27.5q-12 3 -29.5 5t-36.5 2h-18v40h18q26 0 44.5 4t29.5 10q16 8 27 24t11 40q0 27 -19 48
t-66 21q-12 0 -27 -3t-31 -9t-30.5 -16t-25.5 -24h-4v49q20 20 54 32.5t69 12.5q64 0 96.5 -28.5t32.5 -80.5q0 -32 -20.5 -58.5t-56.5 -38.5q40 -7 65.5 -31.5t25.5 -65.5q0 -60 -41.5 -93t-111.5 -33q-32 0 -65.5 9t-56.5 28v51z" />
    <glyph glyph-name="twothirds" unicode="&#x2154;" horiz-adv-x="847" 
d="M265 -12l337 694h43l-336 -694h-44zM43 253v27q43 35 87 72.5t83 75.5q32 32 46.5 63t14.5 57q0 16 -5.5 31t-16.5 26.5t-29 18.5t-43 7q-32 0 -64.5 -14.5t-57.5 -44.5h-4v49q24 26 59.5 39.5t70.5 13.5q69 0 104 -33.5t35 -87.5q0 -42 -18.5 -74.5t-43.5 -60.5
q-9 -10 -27 -26t-39 -34t-42 -35t-37 -29q24 0 47.5 0.5t50.5 0.5h58.5h72.5v-42h-302zM549 79h4q23 -23 55 -34t63 -11t51.5 7.5t31.5 19.5t15.5 27t4.5 29q0 20 -14 39.5t-45 27.5q-12 3 -29.5 5t-36.5 2h-18v40h18q26 0 44.5 4t29.5 10q16 8 27 24t11 40q0 27 -19 48
t-66 21q-12 0 -27 -3t-31 -9t-30.5 -16t-25.5 -24h-4v49q20 20 54 32.5t69 12.5q64 0 96.5 -28.5t32.5 -80.5q0 -32 -20.5 -58.5t-56.5 -38.5q40 -7 65.5 -31.5t25.5 -65.5q0 -60 -41.5 -93t-111.5 -33q-32 0 -65.5 9t-56.5 28v51z" />
    <glyph glyph-name="oneeighth" unicode="&#x215b;" horiz-adv-x="847" 
d="M193 -12l337 694h43l-336 -694h-44zM159 253v364l-92 -50v45l103 58h36v-417h-47zM688 215q40 -11 63 -37t23 -66q0 -54 -41 -87.5t-110 -33.5q-32 0 -59.5 7.5t-47.5 22.5t-31.5 37t-11.5 51q0 37 22 62t61 38q-32 13 -49.5 38t-17.5 60q0 51 39 82.5t98 31.5
q60 0 97 -29.5t37 -83.5q0 -33 -19 -57.5t-53 -35.5zM627 230q38 3 62 21t24 55q0 32 -23 53t-66 21q-40 0 -64.5 -20.5t-24.5 -51.5q0 -40 27.5 -57.5t64.5 -20.5zM619 191q-41 -3 -69.5 -22.5t-28.5 -57.5q0 -19 8.5 -34t23 -25t33 -15t38.5 -5q44 0 73.5 21.5t29.5 58.5
q0 22 -9.5 36.5t-25 23.5t-35 13.5t-38.5 5.5z" />
    <glyph glyph-name="threeeighths" unicode="&#x215c;" horiz-adv-x="847" 
d="M244 -12l337 694h43l-336 -694h-44zM57 332h4q23 -23 55 -34t63 -11t51.5 7.5t31.5 19.5t15.5 27t4.5 29q0 20 -14 39.5t-45 27.5q-12 3 -29.5 5t-36.5 2h-18v40h18q26 0 44.5 4t29.5 10q16 8 27 24t11 40q0 27 -19 48t-66 21q-12 0 -27 -3t-31 -9t-30.5 -16t-25.5 -24
h-4v49q20 20 54 32.5t69 12.5q64 0 96.5 -28.5t32.5 -80.5q0 -32 -20.5 -58.5t-56.5 -38.5q40 -7 65.5 -31.5t25.5 -65.5q0 -60 -41.5 -93t-111.5 -33q-32 0 -65.5 9t-56.5 28v51zM730 215q40 -11 63 -37t23 -66q0 -54 -41 -87.5t-110 -33.5q-32 0 -59.5 7.5t-47.5 22.5
t-31.5 37t-11.5 51q0 37 22 62t61 38q-32 13 -49.5 38t-17.5 60q0 51 39 82.5t98 31.5q60 0 97 -29.5t37 -83.5q0 -33 -19 -57.5t-53 -35.5zM669 230q38 3 62 21t24 55q0 32 -23 53t-66 21q-40 0 -64.5 -20.5t-24.5 -51.5q0 -40 27.5 -57.5t64.5 -20.5zM661 191
q-41 -3 -69.5 -22.5t-28.5 -57.5q0 -19 8.5 -34t23 -25t33 -15t38.5 -5q44 0 73.5 21.5t29.5 58.5q0 22 -9.5 36.5t-25 23.5t-35 13.5t-38.5 5.5z" />
    <glyph glyph-name="fiveeighths" unicode="&#x215d;" horiz-adv-x="847" 
d="M234 -12l337 694h43l-336 -694h-44zM44 330h4q28 -23 60 -33t60 -10q57 0 84.5 26t27.5 71t-27.5 66t-78.5 21q-32 0 -60 -11t-46 -25h-4l24 230h219v-42h-182l-14 -131q13 8 36.5 14.5t47.5 6.5q27 0 51.5 -7t43 -22.5t29.5 -39t11 -56.5q0 -37 -13 -64t-35 -44.5
t-52 -26t-64 -8.5q-28 0 -60.5 7.5t-61.5 27.5v50zM720 215q40 -11 63 -37t23 -66q0 -54 -41 -87.5t-110 -33.5q-32 0 -59.5 7.5t-47.5 22.5t-31.5 37t-11.5 51q0 37 22 62t61 38q-32 13 -49.5 38t-17.5 60q0 51 39 82.5t98 31.5q60 0 97 -29.5t37 -83.5q0 -33 -19 -57.5
t-53 -35.5zM659 230q38 3 62 21t24 55q0 32 -23 53t-66 21q-40 0 -64.5 -20.5t-24.5 -51.5q0 -40 27.5 -57.5t64.5 -20.5zM651 191q-41 -3 -69.5 -22.5t-28.5 -57.5q0 -19 8.5 -34t23 -25t33 -15t38.5 -5q44 0 73.5 21.5t29.5 58.5q0 22 -9.5 36.5t-25 23.5t-35 13.5
t-38.5 5.5z" />
    <glyph glyph-name="seveneighths" unicode="&#x215e;" horiz-adv-x="847" 
d="M197 -12l337 694h43l-336 -694h-44zM136 253q18 45 39.5 94t44 98t44.5 94.5t41 83.5h-243v42h293v-31q-45 -91 -88 -189t-81 -192h-50zM684 215q40 -11 63 -37t23 -66q0 -54 -41 -87.5t-110 -33.5q-32 0 -59.5 7.5t-47.5 22.5t-31.5 37t-11.5 51q0 37 22 62t61 38
q-32 13 -49.5 38t-17.5 60q0 51 39 82.5t98 31.5q60 0 97 -29.5t37 -83.5q0 -33 -19 -57.5t-53 -35.5zM623 230q38 3 62 21t24 55q0 32 -23 53t-66 21q-40 0 -64.5 -20.5t-24.5 -51.5q0 -40 27.5 -57.5t64.5 -20.5zM615 191q-41 -3 -69.5 -22.5t-28.5 -57.5q0 -19 8.5 -34
t23 -25t33 -15t38.5 -5q44 0 73.5 21.5t29.5 58.5q0 22 -9.5 36.5t-25 23.5t-35 13.5t-38.5 5.5z" />
    <glyph glyph-name="arrowleft" unicode="&#x2190;" horiz-adv-x="768" 
d="M410 675v-190v-142.5v-104v-76t-0.5 -57.5t-0.5 -48q8 8 23.5 25t47 49t82.5 84t130 131l33 -30l-339 -341l-342 342l31 30q80 -78 132.5 -130t84.5 -85t48 -50t23 -25q-1 22 -1 46.5t-0.5 57t-0.5 76.5v105.5v143v189.5h49z" />
    <glyph glyph-name="arrowup" unicode="&#x2191;" horiz-adv-x="768" 
d="M732 313h-190h-142.5h-104h-76t-57.5 0.5t-48 0.5q8 -8 25 -23.5t49.5 -47t84.5 -82.5t131 -130l-31 -33l-341 339l342 342l30 -31q-78 -80 -129.5 -132.5t-84.5 -85t-50.5 -48.5t-25.5 -23q22 0 46.5 0.5t57 1t76.5 0.5h105.5h143h189.5v-48z" />
    <glyph glyph-name="arrowright" unicode="&#x2192;" horiz-adv-x="768" 
d="M35 361h189.5h143h105.5t76.5 -0.5t57 -1t46.5 -0.5q-8 7 -25 23.5t-50 48.5t-85 84.5t-130 132.5l31 31l341 -342l-341 -339l-30 33q79 79 131 130t84.5 82.5t49 47t24.5 23.5q-23 0 -48 -0.5t-57.5 -0.5h-76h-104h-142.5h-190v48z" />
    <glyph glyph-name="arrowdown" unicode="&#x2193;" horiz-adv-x="768" 
d="M361 0v189.5v143v105.5t0.5 76.5t0.5 57t1 46.5q-7 -8 -23 -25t-48 -50t-84.5 -84.5t-132.5 -129.5l-31 29l342 342l339 -341l-33 -30q-79 79 -130 131t-82.5 84t-47 49t-23.5 25q0 -23 0.5 -48t0.5 -57.5v-76v-104v-142.5v-190h-49v0z" />
    <glyph glyph-name="uni2196" unicode="&#x2196;" horiz-adv-x="768" 
d="M627 63l-435 437q0 -12 0.5 -34.5t0.5 -67.5v-118v-185h-44v480h480v-43q-112 -1 -185 -1h-118.5t-68.5 -0.5t-35 -0.5q16 -16 33.5 -32.5t41 -39.5t54.5 -53.5t74.5 -73.5t101 -101t134.5 -134z" />
    <glyph glyph-name="uni2197" unicode="&#x2197;" horiz-adv-x="768" 
d="M110 96q114 115 188 188.5t121.5 120t76.5 74.5t53 51q-12 0 -35 0.5t-68.5 0.5h-119t-185.5 1v43h481v-480h-44v185v118t0.5 67.5t0.5 34.5l-435 -437z" />
    <glyph glyph-name="uni2198" unicode="&#x2198;" horiz-adv-x="768" 
d="M144 603q76 -77 133.5 -134.5l100.5 -100.5l74 -74t53.5 -54t40 -40.5t33.5 -34.5q0 12 -0.5 34.5t-0.5 67.5v118v185h44v-479h-481v43q112 0 185.5 0.5t119 0.5h68.5h35q-16 16 -34 32.5t-41 39.5t-54.5 54t-74.5 74t-101 100.5t-134 133.5z" />
    <glyph glyph-name="uni2199" unicode="&#x2199;" horiz-adv-x="768" 
d="M661 572q-77 -76 -134.5 -133.5t-101 -100.5t-74.5 -74t-54.5 -54t-41 -40t-33.5 -32q12 0 35 -0.5t68.5 -0.5h118.5t185 -1v-42h-480v478h44v-184v-118t-0.5 -67.5t-0.5 -34.5q16 16 33.5 34t40.5 41l53.5 53.5t73.5 74t100 101t134 134.5z" />
    <glyph glyph-name="partialdiff" unicode="&#x2202;" horiz-adv-x="561" 
d="M81 636q33 32 82.5 49.5t96.5 17.5q68 0 114.5 -25t75.5 -75.5t42 -127t13 -178.5q0 -71 -15 -129t-45.5 -98.5t-75.5 -62.5t-105 -22q-45 0 -84 15t-67.5 43.5t-44.5 69.5t-16 92q0 53 17.5 95t48 71t72 44.5t88.5 15.5q51 0 96.5 -18t71.5 -56q-2 67 -13 121
t-33.5 92.5t-58 59.5t-87.5 21q-19 0 -42 -5t-45.5 -14t-44 -22t-37.5 -29h-4v55zM449 282q-13 27 -32 46t-42 30.5t-48.5 17t-50.5 5.5q-34 0 -64 -11.5t-52.5 -34t-36 -55.5t-13.5 -76q0 -41 13.5 -72t35 -52t49.5 -31.5t58 -10.5q57 0 102 30.5t63 95.5q8 28 13 56t5 62z
" />
    <glyph glyph-name="Delta" unicode="&#x2206;" horiz-adv-x="659" 
d="M4 0l301 690h53l296 -690h-650zM330 624q-9 -24 -23 -58.5t-40.5 -97t-69.5 -162t-110 -253.5h484q-44 103 -78 181t-58.5 136.5t-42 99.5t-29.5 70t-19.5 49t-13.5 35z" />
    <glyph glyph-name="product" unicode="&#x220f;" horiz-adv-x="664" 
d="M525 -118v745h-386v-745h-56v799h499v-799h-57z" />
    <glyph glyph-name="summation" unicode="&#x2211;" horiz-adv-x="552" 
d="M35 -118v51l257 366l-248 334v48h480v-53h-408l247 -328l-261 -364h428v-54h-495z" />
    <glyph glyph-name="minus" unicode="&#x2212;" horiz-adv-x="700" 
d="M90 271v48h520v-48h-520z" />
    <glyph glyph-name="uni2215" unicode="&#x2215;" horiz-adv-x="89" 
d="M-148 -12l337 694h43l-336 -694h-44z" />
    <glyph glyph-name="uni2219" unicode="&#x2219;" horiz-adv-x="189" 
d="M141 262q0 -21 -13.5 -33t-33.5 -12t-33 12t-13 33q0 24 14.5 36t32.5 12q17 0 31.5 -11.5t14.5 -36.5z" />
    <glyph glyph-name="radical" unicode="&#x221a;" horiz-adv-x="639" 
d="M291 -181l-143 294l-69 -32l-19 39l114 55l139 -285l241 799h51l-269 -869z" />
    <glyph glyph-name="infinity" unicode="&#x221e;" horiz-adv-x="729" 
d="M365 325q45 54 85.5 80.5t89.5 26.5q62 0 97 -39.5t35 -100.5q0 -32 -10 -59t-28.5 -46.5t-44.5 -30.5t-57 -11q-25 0 -45.5 6t-40 19t-39 33.5t-43.5 49.5q-48 -56 -85.5 -81.5t-85.5 -25.5q-61 0 -98.5 38t-37.5 102q0 32 10 59t29 46.5t44.5 30.5t57.5 11
q24 0 44 -5.5t39.5 -18.5t39.5 -33.5t44 -50.5zM336 287q-19 25 -35 43.5t-32 31.5t-33.5 19.5t-39.5 6.5q-40 0 -67.5 -27.5t-27.5 -70.5q0 -44 26.5 -72t66.5 -28q43 0 76 26.5t66 70.5zM393 290q19 -23 35.5 -42t33 -32t34 -20t38.5 -7q41 0 67 27.5t26 70.5
q0 45 -24.5 72t-65.5 27q-35 0 -69.5 -22t-74.5 -74z" />
    <glyph glyph-name="integral" unicode="&#x222b;" horiz-adv-x="318" 
d="M35 -117h4q13 -9 29 -13t25 -4q26 0 40.5 12t14.5 54q0 17 -1 45.5t-2 47.5l-20 489q-1 18 -1.5 39.5t-0.5 36.5q0 58 29 88t79 30q18 0 32.5 -3t22.5 -10v-47h-4q-10 8 -23 11t-25 3q-26 0 -43.5 -18t-17.5 -61q0 -15 0.5 -33.5t1.5 -35.5l20 -488q1 -20 2 -45t1 -48
q0 -62 -25 -88t-79 -26q-14 0 -30.5 4t-28.5 12v48z" />
    <glyph glyph-name="approxequal" unicode="&#x2248;" horiz-adv-x="705" 
d="M90 168q43 57 79 78.5t76 21.5q22 0 48.5 -9.5t73.5 -37.5q64 -37 100 -37q32 0 57 19t55 66l35 -26q-32 -53 -65.5 -79.5t-82.5 -26.5q-26 0 -54.5 10t-65.5 31q-47 27 -69.5 34t-36.5 7q-32 0 -59.5 -18.5t-56.5 -60.5zM90 353q43 57 79 79t76 22q22 0 48.5 -10
t73.5 -38q32 -19 56.5 -27.5t43.5 -8.5q32 0 57 18.5t55 65.5l35 -26q-32 -52 -65.5 -79t-82.5 -27q-26 0 -54.5 10t-65.5 31q-47 27 -69.5 34.5t-36.5 7.5q-32 0 -59.5 -19t-56.5 -61z" />
    <glyph glyph-name="notequal" unicode="&#x2260;" horiz-adv-x="700" 
d="M190 6l84 170h-184v46h206l69 139h-275v47h297l79 160h44l-79 -160h179v-47h-203l-68 -139h271v-46h-294l-83 -170h-43z" />
    <glyph glyph-name="lessequal" unicode="&#x2264;" horiz-adv-x="700" 
d="M117 355v48l451 215v-55l-395 -184l395 -177v-57zM117 0v47h451v-47h-451z" />
    <glyph glyph-name="greaterequal" unicode="&#x2265;" horiz-adv-x="700" 
d="M133 145v56l394 180l-394 181v56l450 -215v-48zM133 0v47h450v-47h-450z" />
    <glyph glyph-name="lozenge" unicode="&#x25ca;" horiz-adv-x="712" 
d="M387 688l167 -342l-167 -346h-60l-171 345l171 343h60zM358 52l139 294l-140 292l-143 -293z" />
    <glyph glyph-name="dotlessi.aalt" horiz-adv-x="247" 
d="M95 0v689h57v-689h-57z" />
    <glyph glyph-name="Euro.dnom" horiz-adv-x="424" 
d="M138 149q14 -64 54.5 -89t94.5 -25q34 0 61 10.5t51 30.5h4v-46q-20 -17 -53 -28t-71 -11q-79 0 -127.5 40.5t-62.5 117.5h-54v27h50q-1 8 -1 15.5v15.5v12t1 12h-50v27h53q7 40 24.5 70.5t43.5 51t58.5 31t70.5 10.5q34 0 65 -8.5t50 -25.5v-50h-4q-19 20 -49.5 31
t-59.5 11q-56 0 -97.5 -28t-53.5 -93h181v-27h-185v-22v-17t1 -16h184v-27h-179z" />
    <glyph glyph-name="Euro.numr" horiz-adv-x="424" 
d="M138 402q14 -64 54.5 -89t94.5 -25q34 0 61 10.5t51 30.5h4v-46q-20 -17 -53 -28t-71 -11q-79 0 -127.5 40.5t-62.5 117.5h-54v27h50q-1 8 -1 15.5v15.5v12t1 12h-50v27h53q7 40 24.5 70.5t43.5 51t58.5 31t70.5 10.5q34 0 65 -8.5t50 -25.5v-50h-4q-19 20 -49.5 31
t-59.5 11q-56 0 -97.5 -28t-53.5 -93h181v-27h-185v-22v-17t1 -16h184v-27h-179z" />
    <glyph glyph-name="Euro.oldstyle" horiz-adv-x="617" 
d="M203 218q10 -52 31.5 -86.5t51.5 -55.5t66.5 -29.5t75.5 -8.5q50 0 90.5 17t74.5 46h4v-57q-29 -24 -76.5 -41t-101.5 -17q-114 0 -184 59.5t-90 172.5h-80v36h75q-2 12 -2 24.5v26.5v19t1 19h-74v36h78q10 60 35.5 105t63 75t85 45.5t101.5 15.5q23 0 46.5 -3.5
t45.5 -10t40.5 -16.5t31.5 -22v-61h-4q-14 15 -32.5 26.5t-40 19.5t-44 12t-44.5 4q-41 0 -78.5 -10t-67.5 -32.5t-51 -59t-30 -88.5h272v-36h-276q-1 -8 -1 -17v-18q0 -14 0.5 -27.5t1.5 -26.5h275v-36h-269z" />
    <glyph glyph-name="kgreenlandic.aalt" horiz-adv-x="613" 
d="M271 392l-119 -120v-272h-57v689h57v-346l336 346h79l-256 -257l301 -432h-73zM709 719v-4q-34 -27 -59 -72.5t-25 -102.5q0 -20 4 -40t12 -39h-61q-8 16 -11 35.5t-3 38.5q0 61 27.5 108.5t64.5 75.5h51z" />
    <glyph glyph-name="germandbls.aalt" horiz-adv-x="1129" 
d="M606 136h4q43 -44 101.5 -69.5t135.5 -25.5q52 0 87 10.5t56.5 28.5t31 42.5t9.5 53.5q0 47 -36.5 75.5t-118.5 54.5l-113 37q-75 24 -110 67.5t-35 103.5q0 43 17 78.5t48.5 60.5t77 38.5t103.5 13.5q28 0 57.5 -5t56.5 -13.5t48.5 -19.5t34.5 -24v-66h-4
q-38 37 -92 55.5t-108 18.5q-50 0 -84.5 -11t-55.5 -29t-30.5 -42t-9.5 -50q0 -48 30.5 -77.5t99.5 -51.5l122 -39q38 -12 68.5 -27t51.5 -35t32 -46.5t11 -61.5q0 -39 -13.5 -74.5t-43.5 -62t-77.5 -42.5t-114.5 -16q-69 0 -132.5 21t-104.5 58v71zM42 136h4
q43 -44 101.5 -69.5t135.5 -25.5q52 0 87 10.5t56.5 28.5t31 42.5t9.5 53.5q0 47 -36.5 75.5t-118.5 54.5l-113 37q-75 24 -110 67.5t-35 103.5q0 43 17 78.5t48.5 60.5t77 38.5t103.5 13.5q28 0 57.5 -5t56.5 -13.5t48.5 -19.5t34.5 -24v-66h-4q-38 37 -92 55.5t-108 18.5
q-50 0 -84.5 -11t-55.5 -29t-30.5 -42t-9.5 -50q0 -48 30.5 -77.5t99.5 -51.5l122 -39q38 -12 68.5 -27t51.5 -35t32 -46.5t11 -61.5q0 -39 -13.5 -74.5t-43.5 -62t-77.5 -42.5t-114.5 -16q-69 0 -132.5 21t-104.5 58v71z" />
    <glyph glyph-name="glyph140" horiz-adv-x="210" 
d="M-22 750v4l155 130h97v-4l-186 -130h-66z" />
    <glyph glyph-name="ampersand.aalt" horiz-adv-x="678" 
d="M581 0q-17 14 -36.5 31t-34.5 31q-37 -31 -87.5 -53.5t-122.5 -22.5q-58 0 -103.5 15.5t-77.5 42t-49 63t-17 78.5q0 64 38 110t119 76q-31 37 -48 73.5t-17 76.5q0 31 11.5 59.5t33.5 49.5t55 33.5t77 12.5q31 0 59 -8t49 -24.5t33 -42t12 -60.5q0 -28 -9 -52.5t-30 -47
t-55.5 -43.5t-85.5 -41q48 -53 102.5 -106.5t111.5 -107.5q9 9 18 24.5t16 35.5t11.5 42.5t4.5 46.5q0 20 -1.5 40t-5.5 33h55q3 -13 4 -31.5t1 -38.5q0 -60 -20 -110.5t-46 -79.5q27 -26 55.5 -51t58.5 -50v-4h-79zM472 100q-65 60 -121 117.5t-108 114.5q-69 -23 -101 -60
t-32 -87q0 -28 12.5 -54.5t36.5 -47t60 -33t83 -12.5q42 0 87 14.5t83 47.5zM261 393q78 30 118 63.5t40 81.5q0 44 -28 67t-73 23q-59 0 -87.5 -31.5t-28.5 -74.5q0 -32 16.5 -66t42.5 -63z" />
    <glyph glyph-name="braceleft.aalt" horiz-adv-x="338" 
d="M291 -87q-33 0 -61 5t-48.5 21.5t-32.5 48t-12 83.5v80q0 46 -5.5 75.5t-17.5 47t-30.5 25t-44.5 10.5v40q29 4 48 12.5t30 26t15.5 46t4.5 72.5v81q0 51 12 82t32.5 48t48.5 23t61 6h28v-43h-37q-19 0 -35.5 -5t-29 -18t-20 -36t-7.5 -58v-77q0 -53 -5 -85t-16 -50
t-28 -27t-41 -17q24 -5 41 -15t28 -30.5t16 -53t5 -81.5v-78q0 -36 7.5 -59t20.5 -36t30 -18t37 -5h34v-41h-28z" />
    <glyph glyph-name="braceright.aalt" horiz-adv-x="338" 
d="M47 746q33 0 61 -5.5t48.5 -22t32 -48t11.5 -83.5v-79q0 -47 6 -76.5t18 -46.5t30.5 -25t44.5 -11v-40q-29 -4 -48.5 -12.5t-30.5 -26t-15.5 -46t-4.5 -72.5v-81q0 -50 -11.5 -81t-32 -48t-48.5 -23t-61 -6h-28v42h37q19 0 35.5 5t29 18t20 36t7.5 58v77q0 53 5 85t16 50
t28 27.5t41 17.5q-24 4 -41 14t-28 30.5t-16 52.5t-5 82v78q0 36 -7.5 59t-21 36t-31 18t-36.5 5h-33v42h28z" />
    <glyph glyph-name="bracketleft.aalt" horiz-adv-x="298" 
d="M85 -83v819h184v-42h-131v-734h131v-43h-184z" />
    <glyph glyph-name="bracketright.aalt" horiz-adv-x="298" 
d="M213 736v-819h-184v43h131v734h-131v42h184z" />
    <glyph glyph-name="glyph170" horiz-adv-x="210" 
d="M3 884q1 -27 9.5 -45t22 -29t31 -15.5t37.5 -4.5q48 0 74.5 22.5t28.5 71.5h47q0 -30 -10 -56.5t-28.5 -46t-47 -30.5t-65.5 -11q-72 0 -108.5 40t-36.5 104h46z" />
    <glyph glyph-name="glyph173" horiz-adv-x="328" 
d="M272 327q0 -49 -31 -79t-77 -30q-45 0 -76.5 29t-31.5 80q0 30 10 51t25.5 34.5t34.5 20t38 6.5t38.5 -6.5t35 -20t25 -34.5t9.5 -51z" />
    <glyph glyph-name="glyph177" horiz-adv-x="200" 
d="M35 544v4q28 23 51.5 58.5t23.5 83.5q0 17 -2.5 34.5t-10.5 34.5h58q5 -13 7.5 -30.5t2.5 -32.5q0 -51 -25.5 -89.5t-55.5 -62.5h-49z" />
    <glyph glyph-name="glyph178" horiz-adv-x="210" 
d="M266 884v-4l-141 -130h-38l-143 130v4h63l101 -79l96 79h62z" />
    <glyph glyph-name="glyph184" horiz-adv-x="210" 
d="M7 -189h4q15 -12 36.5 -17.5t35.5 -5.5q40 0 54 16.5t14 39.5t-17.5 38t-53.5 15q-8 0 -19 -1.5t-20 -5.5l-3 2l36 118h43l-23 -75h7q45 0 73 -23.5t28 -66.5q0 -51 -32.5 -76t-85.5 -25q-22 0 -43 6.5t-34 15.5v45z" />
    <glyph glyph-name="cent.dnom" horiz-adv-x="352" 
d="M191 -68v65q-30 3 -55.5 14t-44.5 30t-30 46.5t-11 63.5q0 33 10.5 60.5t29 47.5t44.5 33t57 16v64h27v-63q29 -1 55.5 -8.5t40.5 -21.5v-47h-4q-16 17 -41.5 26.5t-50.5 10.5v-232q59 2 94 38h4v-45q-17 -14 -42.5 -23t-55.5 -11v-64h-27zM95 153q0 -27 8 -47.5
t21.5 -34.5t31 -22t35.5 -11v229q-39 -5 -67.5 -32.5t-28.5 -81.5z" />
    <glyph glyph-name="cent.numr" horiz-adv-x="352" 
d="M191 185v65q-30 3 -55.5 14t-44.5 30t-30 46.5t-11 63.5q0 33 10.5 60.5t29 47.5t44.5 33t57 16v64h27v-63q29 -1 55.5 -8.5t40.5 -21.5v-47h-4q-16 17 -41.5 26.5t-50.5 10.5v-232q59 2 94 38h4v-45q-17 -14 -42.5 -23.5t-55.5 -10.5v-64h-27zM95 406q0 -27 8 -47.5
t21.5 -34.5t31 -22t35.5 -11v229q-39 -5 -67.5 -32.5t-28.5 -81.5z" />
    <glyph glyph-name="cent.oldstyle" horiz-adv-x="492" 
d="M274 -104v100q-42 4 -79 20t-64.5 44.5t-43.5 69.5t-16 94q0 49 15 90.5t42 72t64.5 49t81.5 23.5v95h36v-93q44 -1 84 -13.5t60 -33.5v-61h-4q-24 27 -63.5 41t-76.5 15v-364q89 2 144 58h4v-56q-26 -23 -65 -37t-83 -16v-98h-36zM126 227q0 -45 13 -77.5t34 -54
t47.5 -33t53.5 -15.5v360q-29 -5 -56 -17.5t-47.5 -35t-32.5 -54t-12 -73.5z" />
    <glyph glyph-name="glyph190" horiz-adv-x="210" 
d="M-56 750v4l143 130h38l143 -130v-4h-63l-101 79l-97 -79h-63z" />
    <glyph glyph-name="comma.dnom" horiz-adv-x="131" 
d="M-1 -98v4q25 18 41 48t16 68q0 29 -10 53h49q5 -11 7 -24t2 -25q0 -41 -19.5 -73.5t-44.5 -50.5h-41z" />
    <glyph glyph-name="comma.numr" horiz-adv-x="131" 
d="M-1 155v4q25 18 41 48t16 68q0 29 -10 53h49q5 -11 7 -24t2 -25q0 -41 -19.5 -73.5t-44.5 -50.5h-41z" />
    <glyph glyph-name="glyph195" horiz-adv-x="197" 
d="M35 -282v4q28 23 50.5 60t22.5 85q0 17 -2.5 34.5t-9.5 34.5h57q5 -13 8 -30.5t3 -32.5q0 -51 -25 -91t-55 -64h-49z" />
    <glyph glyph-name="glyph205" horiz-adv-x="210" 
d="M56 808q0 -19 -12 -30t-29 -11t-28.5 10.5t-11.5 30.5t12.5 30.5t28.5 10.5q14 0 27 -10t13 -31zM235 808q0 -19 -12 -30t-29 -11t-29 10.5t-12 30.5t13 30.5t28 10.5t28 -10t13 -31z" />
    <glyph glyph-name="dollar.dnom" horiz-adv-x="363" 
d="M172 -69v64q-38 2 -75.5 15t-59.5 33v54h4q23 -26 58 -40.5t73 -16.5v144l-40 13q-47 14 -68 41.5t-21 62.5q0 48 32.5 78t96.5 35v62h28v-61q32 -2 65 -12.5t47 -24.5v-51h-4q-20 20 -49.5 31t-58.5 13v-147l32 -9q51 -15 76 -39t25 -66q0 -43 -30 -76t-103 -38v-65h-28
zM283 105q0 25 -18.5 40.5t-64.5 29.5v-135q46 3 64.5 20t18.5 45zM93 304q0 -22 14 -38.5t55 -29.5l10 -3v138q-23 -2 -38.5 -8t-24.5 -15t-12.5 -20.5t-3.5 -23.5z" />
    <glyph glyph-name="dollar.numr" horiz-adv-x="363" 
d="M172 184v64q-38 1 -75.5 14.5t-59.5 33.5v54h4q23 -26 58 -40.5t73 -16.5v144l-40 13q-47 14 -68 41.5t-21 62.5q0 48 32.5 78t96.5 35v62h28v-61q32 -2 65 -12.5t47 -24.5v-51h-4q-20 20 -49.5 31t-58.5 13v-147l32 -9q51 -15 76 -39t25 -66q0 -43 -30 -76t-103 -38v-65
h-28zM283 358q0 25 -18.5 40.5t-64.5 29.5v-135q46 3 64.5 20t18.5 45zM93 557q0 -22 14 -38.5t55 -29.5l10 -3v138q-23 -2 -38.5 -8t-24.5 -15t-12.5 -20.5t-3.5 -23.5z" />
    <glyph glyph-name="dollar.oldstyle" horiz-adv-x="530" 
d="M266 -105v97q-27 1 -54.5 6.5t-53 15.5t-47.5 23t-37 28v68h4q32 -38 81 -61.5t107 -25.5v231l-60 20q-64 21 -93 60t-29 89q0 70 46.5 113t135.5 49v94h36v-93q23 -1 46.5 -5.5t44.5 -12t38 -17t28 -19.5v-65h-4q-28 30 -69.5 47t-83.5 19v-231l46 -15
q69 -22 104.5 -56.5t35.5 -95.5q0 -32 -10 -60.5t-32 -50.5t-57.5 -36.5t-86.5 -17.5v-98h-36zM429 151q0 20 -6.5 35.5t-21.5 29t-39 25.5t-60 24v-219q73 5 100 32.5t27 72.5zM141 450q0 -38 22 -62.5t81 -43.5l22 -7v219q-36 -2 -60.5 -11t-38.5 -23.5t-20 -32.5t-6 -39z
" />
    <glyph glyph-name="glyph212" horiz-adv-x="210" 
d="M146 808q0 -19 -12 -30t-29 -11t-28.5 10.5t-11.5 30.5t12.5 30.5t28.5 10.5q14 0 27 -10t13 -31z" />
    <glyph glyph-name="eight.dnom" 
d="M251 215q40 -11 63 -37t23 -66q0 -54 -41 -87.5t-110 -33.5q-32 0 -59.5 7.5t-47.5 22.5t-31.5 37t-11.5 51q0 37 22 62t61 38q-32 13 -49.5 38t-17.5 60q0 51 39 82.5t98 31.5q60 0 97 -29.5t37 -83.5q0 -33 -19 -57.5t-53 -35.5zM190 230q38 3 62 21t24 55q0 32 -23 53
t-66 21q-40 0 -64.5 -20.5t-24.5 -51.5q0 -40 27.5 -57.5t64.5 -20.5zM182 191q-41 -3 -69.5 -22.5t-28.5 -57.5q0 -19 8.5 -34t23 -25t33 -15t38.5 -5q44 0 73.5 21.5t29.5 58.5q0 22 -9.5 36.5t-25 23.5t-35 13.5t-38.5 5.5z" />
    <glyph glyph-name="eight.pnum" horiz-adv-x="570" 
d="M372 346q63 -18 101.5 -61t38.5 -108q0 -43 -17 -78t-47 -60t-71.5 -39t-91.5 -14q-47 0 -88.5 12t-72 35t-48.5 58t-18 80q0 62 38 105t104 62q-49 18 -83.5 57.5t-34.5 102.5q0 39 15.5 72.5t43 57.5t65.5 37.5t82 13.5q45 0 82.5 -12t64 -34.5t41.5 -55.5t15 -75
q0 -54 -32 -97.5t-87 -58.5zM287 366q30 3 57 11.5t46.5 24t31 40t11.5 58.5q0 56 -39.5 91.5t-107.5 35.5q-32 0 -59 -10t-46.5 -27t-30.5 -40t-11 -49q0 -33 11.5 -58t32 -41.5t47.5 -25t57 -10.5zM282 317q-34 -3 -64 -14t-52.5 -29t-36 -43t-13.5 -57q0 -34 14.5 -59.5
t38.5 -42t54.5 -25t62.5 -8.5q35 0 66 9t53.5 26.5t35.5 43t13 58.5q0 34 -14.5 59.5t-38.5 42.5t-55 26.5t-64 12.5z" />
    <glyph glyph-name="eight.numr" 
d="M251 468q40 -11 63 -37t23 -66q0 -54 -41 -87.5t-110 -33.5q-32 0 -59.5 7.5t-47.5 22.5t-31.5 37t-11.5 51q0 37 22 62t61 38q-32 13 -49.5 38t-17.5 60q0 51 38.5 82.5t98.5 31.5t97 -29.5t37 -83.5q0 -33 -19 -57.5t-53 -35.5zM190 483q38 3 62 20.5t24 55.5
q0 32 -23 53t-66 21q-41 0 -65 -21.5t-24 -51.5q0 -20 7.5 -34t20 -23t29.5 -14t35 -6zM182 444q-41 -3 -69.5 -22.5t-28.5 -57.5q0 -19 8.5 -34t23 -25t33 -15t38.5 -5q44 0 73.5 21.5t29.5 58.5q0 22 -9.5 36.5t-25 23.5t-35 13.5t-38.5 5.5z" />
    <glyph glyph-name="eight.pnum.oldstyle" horiz-adv-x="553" 
d="M368 339q61 -19 98.5 -59t37.5 -106q0 -42 -16.5 -76.5t-45.5 -59.5t-69.5 -38.5t-89.5 -13.5q-46 0 -86.5 11.5t-70.5 34.5t-47.5 57t-17.5 78q0 61 37 103t101 61q-48 17 -81 55.5t-33 101.5q0 39 16 71t43 55.5t63.5 36.5t77.5 13q44 0 80.5 -11.5t63 -33.5t41 -54
t14.5 -73q0 -54 -31 -96t-85 -57zM285 358q29 3 55 11.5t45.5 24t30.5 39.5t11 57q0 54 -39 88t-105 34q-30 0 -56 -9t-45 -25.5t-30 -38.5t-11 -48q0 -33 11.5 -57t31.5 -40.5t46 -25t55 -10.5zM279 310q-32 -3 -61 -13.5t-51.5 -28.5t-36 -42.5t-13.5 -55.5
q0 -33 14.5 -58t37.5 -41.5t53 -24.5t62 -8q34 0 64 9t52 26t35 42t13 57q0 34 -14.5 58.5t-38 41.5t-54 26t-62.5 12z" />
    <glyph glyph-name="eight.oldstyle" horiz-adv-x="553" 
d="M368 339q61 -19 98.5 -59t37.5 -106q0 -42 -16.5 -76.5t-45.5 -59.5t-69.5 -38.5t-89.5 -13.5q-46 0 -86.5 11.5t-70.5 34.5t-47.5 57t-17.5 78q0 61 37 103t101 61q-48 17 -81 55.5t-33 101.5q0 39 16 71t43 55.5t63.5 36.5t77.5 13q44 0 80.5 -11.5t63 -33.5t41 -54
t14.5 -73q0 -54 -31 -96t-85 -57zM285 358q29 3 55 11.5t45.5 24t30.5 39.5t11 57q0 54 -39 88t-105 34q-30 0 -56 -9t-45 -25.5t-30 -38.5t-11 -48q0 -33 11.5 -57t31.5 -40.5t46 -25t55 -10.5zM279 310q-32 -3 -61 -13.5t-51.5 -28.5t-36 -42.5t-13.5 -55.5
q0 -33 14.5 -58t37.5 -41.5t53 -24.5t62 -8q34 0 64 9t52 26t35 42t13 57q0 34 -14.5 58.5t-38 41.5t-54 26t-62.5 12z" />
    <glyph glyph-name="emdash.aalt" horiz-adv-x="838" 
d="M40 306v49h757v-49h-757z" />
    <glyph glyph-name="endash.aalt" horiz-adv-x="538" 
d="M40 306v49h458v-49h-458z" />
    <glyph glyph-name="estimated.aalt" horiz-adv-x="788" 
d="M718 72q-21 -18 -52.5 -34t-68.5 -27.5t-77.5 -18t-79.5 -6.5q-90 0 -161.5 25.5t-121.5 70.5t-76.5 107.5t-26.5 137.5q0 85 29.5 151t79 110t113.5 67t133 23q75 0 136 -21t103.5 -60t66 -95.5t23.5 -127.5q0 -14 -1 -28t-3 -30h-622q2 -60 24 -110.5t64 -87t103 -57.5
t142 -21q71 0 143 22t125 68h5v-58zM678 382q0 51 -16 96t-50 78t-85.5 52t-122.5 19q-47 0 -97 -16t-91.5 -49t-70 -82.5t-32.5 -116.5h565v19z" />
    <glyph glyph-name="five.dnom" 
d="M46 77h4q28 -23 60 -33t60 -10q57 0 84.5 26t27.5 71t-27.5 66t-78.5 21q-32 0 -60 -11t-46 -25h-4l24 230h219v-42h-182l-14 -131q13 8 36.5 14.5t47.5 6.5q27 0 51.5 -7t43 -22.5t29.5 -39t11 -56.5q0 -37 -13 -64t-35 -44.5t-52 -26t-64 -8.5q-28 0 -60.5 7.5
t-61.5 27.5v50z" />
    <glyph glyph-name="five.pnum" horiz-adv-x="554" 
d="M60 110h4q42 -39 92.5 -55t92.5 -16q93 0 138.5 47t45.5 124q0 73 -43 112.5t-130 39.5q-50 0 -94.5 -19.5t-70.5 -42.5h-4l38 365h328v-53h-282l-25 -234q21 16 57.5 27.5t77.5 11.5q40 0 77.5 -11.5t66.5 -36t46 -62.5t17 -91q0 -60 -19.5 -103t-53 -71.5t-78.5 -42
t-96 -13.5q-21 0 -45 3t-48 9.5t-47.5 18t-44.5 28.5v65z" />
    <glyph glyph-name="five.numr" 
d="M46 330h4q28 -23 60 -33t60 -10q57 0 84.5 26t27.5 71t-27.5 66t-78.5 21q-32 0 -60 -11t-46 -25h-4l24 230h219v-42h-182l-14 -131q13 8 36.5 14.5t47.5 6.5q27 0 51.5 -7t43 -22.5t29.5 -39t11 -56.5q0 -37 -13 -64t-35 -44.5t-52 -26t-64 -8.5q-28 0 -60.5 7.5
t-61.5 27.5v50z" />
    <glyph glyph-name="five.pnum.oldstyle" horiz-adv-x="524" 
d="M64 -2h4q40 -39 87 -53t89 -14q43 0 76 12t55 34t33 51.5t11 65.5q0 71 -41.5 111t-124.5 40q-48 0 -89.5 -19t-65.5 -42l-5 1l37 350h315v-52h-269l-24 -221q21 14 53 25t71 11q41 0 77.5 -11.5t64.5 -36t44 -61.5t16 -88q0 -57 -19 -99t-51.5 -69.5t-76 -41
t-91.5 -13.5q-41 0 -88.5 12t-87.5 45v63z" />
    <glyph glyph-name="five.oldstyle" horiz-adv-x="553" 
d="M76 -2h4q40 -39 87 -53t89 -14q43 0 76 12t55.5 34t33.5 51.5t11 65.5q0 71 -42 111t-125 40q-48 0 -89 -19t-66 -42l-4 1l36 351h315v-52h-269l-24 -222q21 14 53.5 25t71.5 11q41 0 77.5 -11.5t64 -36t43.5 -61.5t16 -88q0 -57 -19 -99t-51.5 -69.5t-76 -41
t-91.5 -13.5q-41 0 -88.5 12t-87.5 45v63z" />
    <glyph glyph-name="florin.dnom" horiz-adv-x="300" 
d="M2 -28h4q8 -7 20 -10.5t21 -3.5q16 0 27 4.5t17 16.5q3 6 5 17t4 23l21 208h-60v33h62l6 58q2 21 8.5 40t18.5 33q25 30 75 30q17 0 33 -4t24 -11v-44h-4q-11 9 -24.5 12.5t-24.5 3.5t-21.5 -3t-18.5 -11q-7 -7 -12 -18.5t-7 -32.5l-5 -53h74v-33h-77l-20 -214
q-2 -16 -4.5 -29.5t-9.5 -26.5q-22 -41 -82 -41q-14 0 -28 3.5t-22 8.5v44z" />
    <glyph glyph-name="florin.numr" horiz-adv-x="300" 
d="M2 225h4q8 -7 20 -10.5t21 -3.5q16 0 27 4.5t17 16.5q3 6 5 17t4 23l21 208h-60v33h62l6 58q2 21 8.5 40t18.5 33q25 30 75 30q17 0 33 -4t24 -11v-44h-4q-11 9 -24.5 12.5t-24.5 3.5t-21.5 -3t-18.5 -11q-7 -7 -12 -18.5t-7 -32.5l-5 -53h74v-33h-77l-20 -214
q-2 -16 -4.5 -29.5t-9.5 -26.5q-22 -41 -82 -41q-14 0 -28 3.5t-22 8.5v44z" />
    <glyph glyph-name="florin.oldstyle" horiz-adv-x="462" 
d="M23 -17h4q11 -11 31 -16.5t33 -5.5q23 0 39.5 6.5t24.5 22.5q5 9 9 25t6 32l30 303h-89v44h92l8 74q3 32 12 60.5t27 48.5q38 42 104 42q26 0 47 -6.5t33 -15.5v-56h-4q-15 14 -35 19.5t-38 5.5q-17 0 -32.5 -5t-27.5 -16q-11 -10 -18 -27.5t-11 -50.5l-9 -73h112v-44
h-115l-29 -307q-2 -20 -6 -41t-14 -38q-17 -29 -44 -41.5t-66 -12.5q-21 0 -41 5t-33 14v54z" />
    <glyph glyph-name="four.dnom" 
d="M237 0v108h-215v30l222 283h39v-272h74v-41h-74v-108h-46zM237 149q0 60 1 110t2 96q-11 -16 -21.5 -30.5t-28 -36t-44 -54.5t-68.5 -85h159z" />
    <glyph glyph-name="four.pnum" horiz-adv-x="595" 
d="M395 0v180h-355v35l364 464h47v-448h116v-51h-116v-180h-56zM395 231q0 102 1 198t3 173q-18 -26 -36.5 -52t-49.5 -65t-78 -99t-122 -155h282z" />
    <glyph glyph-name="four.numr" 
d="M237 253v108h-215v30l222 283h39v-272h74v-41h-74v-108h-46zM237 402q0 60 1 110t2 96q-11 -16 -21.5 -30.5t-28 -36t-44 -54.5t-68.5 -85h159z" />
    <glyph glyph-name="four.pnum.oldstyle" horiz-adv-x="576" 
d="M389 -118v172h-351v35l360 459h46v-443h115v-51h-115v-172h-55zM389 105q0 83 0.5 138t1 94.5t1 69.5t1.5 63q-17 -25 -35.5 -50t-48.5 -63.5t-77.5 -98t-121.5 -153.5h279z" />
    <glyph glyph-name="four.oldstyle" horiz-adv-x="553" 
d="M375 -118v172h-337v35l346 459h46v-443h115v-51h-115v-172h-55zM375 105q0 102 1 192t3 167q-12 -17 -23 -33t-25 -35t-32 -43t-44 -58t-61.5 -80.5t-83.5 -109.5h265z" />
    <glyph glyph-name="four_fraction_five.frac" horiz-adv-x="847" 
d="M258 -12l337 694h43l-336 -694h-44zM241 253v108h-215v30l222 283h39v-272h74v-41h-74v-108h-46zM241 402q0 60 1 110t2 96q-11 -16 -21.5 -30.5t-28 -36t-44 -54.5t-68.5 -85h159zM527 77h4q28 -23 60 -33t60 -10q57 0 84.5 26t27.5 71t-27.5 66t-78.5 21q-32 0 -60 -11
t-46 -25h-4l24 230h219v-42h-182l-14 -131q13 8 36.5 14.5t47.5 6.5q27 0 51.5 -7t43 -22.5t29.5 -39t11 -56.5q0 -37 -13 -64t-35 -44.5t-52 -26t-64 -8.5q-28 0 -60.5 7.5t-61.5 27.5v50z" />
    <glyph glyph-name="glyph282" horiz-adv-x="210" 
d="M169 750l-187 130v4h97l155 -130v-4h-65z" />
    <glyph glyph-name="guillemotleft.aalt" horiz-adv-x="433" 
d="M165 143l-139 184l138 184h62l-136 -184l137 -184h-62zM340 143l-139 184l138 184h62l-136 -184l137 -184h-62z" />
    <glyph glyph-name="guillemotright.aalt" horiz-adv-x="433" 
d="M269 511l139 -184l-138 -184h-62l136 184l-137 184h62zM93 511l139 -184l-138 -184h-62l136 184l-137 184h62z" />
    <glyph glyph-name="guilsinglleft.aalt" horiz-adv-x="258" 
d="M165 143l-139 184l138 184h62l-136 -184l137 -184h-62z" />
    <glyph glyph-name="guilsinglright.aalt" horiz-adv-x="258" 
d="M94 511l139 -184l-138 -184h-63l136 184l-137 184h63z" />
    <glyph glyph-name="glyph297" horiz-adv-x="210" 
d="M-87 750v4l141 130h87v-4l-173 -130h-55zM70 750v4l140 130h87v-4l-173 -130h-54z" />
    <glyph glyph-name="hyphen.case" horiz-adv-x="321" 
d="M40 305v53h239v-53h-239z" />
    <glyph glyph-name="hyphen.dnom" horiz-adv-x="208" 
d="M26 149v40h156v-40h-156z" />
    <glyph glyph-name="hyphen.numr" horiz-adv-x="208" 
d="M26 402v40h156v-40h-156z" />
    <glyph glyph-name="i.locl" horiz-adv-x="228" 
d="M87 0v492h54v-492h-54zM156 656q0 -20 -12.5 -31t-29.5 -11q-18 0 -30 11t-12 31q0 23 13 33.5t29 10.5q15 0 28.5 -10.5t13.5 -33.5z" />
    <glyph glyph-name="glyph333" horiz-adv-x="210" 
d="M-47 779v51h304v-51h-304z" />
    <glyph glyph-name="nine.dnom" 
d="M42 69h4q20 -20 48.5 -27.5t56.5 -7.5q37 0 63 13t42 37t23.5 57t8.5 72q-12 -29 -44.5 -49t-77.5 -20q-27 0 -51.5 8.5t-43 25t-29.5 41.5t-11 58q0 34 12 61t32.5 45.5t48 28t58.5 9.5q28 0 55 -8.5t49 -30.5t35.5 -60.5t13.5 -97.5q0 -65 -15 -109.5t-40 -72
t-58.5 -39.5t-70.5 -12q-29 0 -60 7.5t-49 22.5v48zM283 266q0 14 -2.5 27.5t-6.5 23.5q-11 27 -35 44.5t-60 17.5q-18 0 -36.5 -5.5t-32.5 -17.5t-23 -31t-9 -46q0 -48 27.5 -71.5t69.5 -23.5q43 0 70 23.5t38 58.5z" />
    <glyph glyph-name="nine.numr" 
d="M42 322h4q20 -20 48.5 -27.5t56.5 -7.5q37 0 63 13t42 37t23.5 57t8.5 72q-12 -29 -44.5 -49t-77.5 -20q-27 0 -51.5 8.5t-43 25t-29.5 41.5t-11 58q0 34 12 61t32.5 45.5t48 28t58.5 9.5q28 0 55 -8.5t49 -30.5t35.5 -60.5t13.5 -97.5q0 -65 -15 -109.5t-40 -72
t-58.5 -39.5t-70.5 -12q-29 0 -60 7.5t-49 22.5v48zM283 519q0 15 -2.5 27.5t-6.5 23.5q-11 27 -35 44.5t-60 17.5q-18 0 -36.5 -5.5t-32.5 -17.5t-23 -31t-9 -46q0 -48 27.5 -71.5t69.5 -23.5q43 0 70 23.5t38 58.5z" />
    <glyph glyph-name="numbersign.aalt" horiz-adv-x="567" 
d="M131 -14l30 203h-118v49h125l18 123h-120v48h127l29 196h40l-29 -196h138l29 196h40l-29 -196h113v-48h-120l-18 -123h115v-49h-122l-30 -203h-40l30 203h-138l-30 -203h-40zM208 238h138l18 123h-138z" />
    <glyph glyph-name="glyph355" horiz-adv-x="210" 
d="M194 12q-72 -39 -101.5 -73t-29.5 -76q0 -32 20 -50t55 -18q15 0 32.5 4t31.5 14h4v-40q-16 -11 -37.5 -17t-41.5 -6q-23 0 -44.5 6.5t-38 19.5t-26.5 33.5t-10 49.5q0 49 32 85.5t101 67.5h53v0z" />
    <glyph glyph-name="one.dnom" 
d="M178 0v364l-92 -50v45l103 58h36v-417h-47z" />
    <glyph glyph-name="one.pnum" horiz-adv-x="432" 
d="M201 0v612l-141 -81v57l156 92h42v-680h-57z" />
    <glyph glyph-name="one.numr" 
d="M178 253v364l-92 -50v45l103 58h36v-417h-47z" />
    <glyph glyph-name="one.pnum.oldstyle" horiz-adv-x="401" 
d="M199 0v482l-141 -80v55l156 92h41v-549h-56z" />
    <glyph glyph-name="one.oldstyle" horiz-adv-x="553" 
d="M273 0v482l-141 -80v55l155 92h42v-549h-56z" />
    <glyph glyph-name="one_fraction_five.frac" horiz-adv-x="847" 
d="M197 -12l337 694h43l-336 -694h-44zM172 253v364l-92 -50v45l103 58h36v-417h-47zM474 77h4q28 -23 60 -33t60 -10q57 0 84.5 26t27.5 71t-27.5 66t-78.5 21q-32 0 -60 -11t-46 -25h-4l24 230h219v-42h-182l-14 -131q13 8 36.5 14.5t47.5 6.5q27 0 51.5 -7t43 -22.5
t29.5 -39t11 -56.5q0 -37 -13 -64t-35 -44.5t-52 -26t-64 -8.5q-28 0 -60.5 7.5t-61.5 27.5v50z" />
    <glyph glyph-name="parenleft.case" horiz-adv-x="333" 
d="M281 -98q-42 28 -83.5 67t-74.5 91t-54 118t-21 147q0 82 18.5 147.5t50 118t73.5 93t90 71.5h58v-4q-112 -73 -173 -177t-61 -248q0 -71 18 -132t49.5 -113t74 -95.5t92.5 -79.5v-4h-57v0z" />
    <glyph glyph-name="parenleft.dnom" horiz-adv-x="229" 
d="M188 -105q-28 18 -56 43.5t-50.5 60t-37 78.5t-14.5 98q0 55 12.5 98.5t34 78t50.5 61t61 46.5h43v-4q-73 -48 -115 -115.5t-42 -164.5q0 -47 12 -86.5t33.5 -74t50 -63t61.5 -52.5v-4h-43v0z" />
    <glyph glyph-name="parenleft.numr" horiz-adv-x="229" 
d="M188 148q-28 18 -56 43.5t-50.5 60t-37 78.5t-14.5 98q0 55 12.5 98.5t34 78t50.5 61t61 46.5h43v-4q-73 -48 -115 -115.5t-42 -164.5q0 -47 12 -86.5t33.5 -74t50 -63t61.5 -52.5v-4h-43v0z" />
    <glyph glyph-name="parenright.case" horiz-adv-x="333" 
d="M53 755q41 -28 82.5 -67t75 -91t54.5 -118t21 -147q0 -82 -18.5 -147.5t-50.5 -118t-74 -93t-90 -71.5h-58v4q111 73 173 176t62 249q0 72 -18 133t-49.5 113t-74.5 95t-93 79v4h58z" />
    <glyph glyph-name="parenright.dnom" horiz-adv-x="229" 
d="M41 459q28 -18 56 -43.5t50.5 -60t37 -78.5t14.5 -98q0 -55 -12.5 -98.5t-34 -78t-50.5 -61t-61 -46.5h-43v4q73 48 115 115.5t42 164.5q0 46 -12 86t-33.5 74.5t-50 63t-61.5 52.5v4h43v0z" />
    <glyph glyph-name="parenright.numr" horiz-adv-x="229" 
d="M41 712q28 -18 56 -43.5t50.5 -60t37 -78.5t14.5 -98q0 -55 -12.5 -98.5t-34 -78t-50.5 -61t-61 -46.5h-43v4q73 48 115 115.5t42 164.5q0 46 -12 86t-33.5 74.5t-50 63t-61.5 52.5v4h43v0z" />
    <glyph glyph-name="percent.aalt" horiz-adv-x="843" 
d="M349 417q0 -93 -43.5 -145.5t-115.5 -52.5q-73 0 -115.5 52.5t-42.5 144.5q0 46 12 83.5t33 63t50.5 39.5t64.5 14q74 0 115.5 -53t41.5 -146zM301 417q0 76 -29.5 117t-80.5 41t-81.5 -41t-30.5 -117q0 -77 30.5 -117.5t81.5 -40.5t80.5 40.5t29.5 117.5zM244 -12
l311 629h42l-310 -629h-43zM811 189q0 -93 -43.5 -145.5t-115.5 -52.5q-73 0 -115.5 52.5t-42.5 144.5q0 46 12 83.5t33 63.5t50.5 40t64.5 14q74 0 115.5 -53.5t41.5 -146.5zM764 189q0 77 -29.5 118t-80.5 41q-52 0 -82 -41t-30 -118q0 -76 30 -116.5t81 -40.5t81 40.5
t30 116.5z" />
    <glyph glyph-name="period.dnom" horiz-adv-x="131" 
d="M107 27q0 -16 -10 -25t-24 -9q-15 0 -25 9t-10 25q0 17 10.5 26t24.5 9q12 0 23 -8.5t11 -26.5z" />
    <glyph glyph-name="period.numr" horiz-adv-x="131" 
d="M107 280q0 -16 -10 -25t-24 -9q-15 0 -25 9t-10 25q0 17 10.5 26t24.5 9q12 0 23 -8.5t11 -26.5z" />
    <glyph glyph-name="periodcentered.aalt" horiz-adv-x="189" 
d="M141 331q0 -21 -13.5 -33t-33.5 -12t-33 12t-13 33q0 24 14.5 36t32.5 12q17 0 31.5 -11.5t14.5 -36.5z" />
    <glyph glyph-name="perthousand.aalt" horiz-adv-x="1227" 
d="M350 417q0 -93 -43.5 -145.5t-115.5 -52.5q-73 0 -115.5 52.5t-42.5 144.5q0 46 12 83.5t33 63t50.5 39.5t64.5 14q74 0 115.5 -53t41.5 -146zM303 417q0 76 -29.5 117t-80.5 41q-52 0 -82 -41t-30 -117q0 -77 30 -117.5t81 -40.5t81 40.5t30 117.5zM246 -12l311 629h42
l-310 -629h-43zM812 189q0 -93 -43.5 -145.5t-115.5 -52.5t-114.5 52.5t-42.5 144.5q0 46 12 83.5t33 63.5t50 40t64 14q74 0 115.5 -53.5t41.5 -146.5zM765 189q0 77 -29.5 118t-80.5 41t-81.5 -41t-30.5 -118q0 -76 30.5 -116.5t81.5 -40.5t80.5 40.5t29.5 116.5z
M1192 189q0 -93 -43.5 -145.5t-115.5 -52.5q-73 0 -115.5 52.5t-42.5 144.5q0 46 12 83.5t33 63.5t50.5 40t64.5 14q74 0 115.5 -53.5t41.5 -146.5zM1144 189q0 77 -29.5 118t-80.5 41t-81.5 -41t-30.5 -118q0 -76 30.5 -116.5t81.5 -40.5t80.5 40.5t29.5 116.5z" />
    <glyph glyph-name="glyph417" horiz-adv-x="210" 
d="M206 817q0 -42 -29 -70t-72 -28t-72 28t-29 70q0 44 29.5 71t73.5 27q45 0 72 -27t27 -71zM172 818q0 29 -18.5 47.5t-49.5 18.5q-30 0 -48 -19t-18 -48q0 -27 17 -47t51 -20q32 0 49 20t17 48z" />
    <glyph glyph-name="seven.dnom" 
d="M112 0q18 45 39.5 94t44 98t44.5 94.5t41 83.5h-243v42h293v-31q-45 -91 -88 -189t-81 -192h-50z" />
    <glyph glyph-name="seven.pnum" horiz-adv-x="499" 
d="M136 0q28 73 61.5 154.5t69 162t70 156.5t64.5 139h-386v53h446v-40q-34 -74 -68.5 -152.5t-68.5 -158.5t-66 -159.5t-60 -154.5h-62z" />
    <glyph glyph-name="seven.numr" 
d="M112 253q18 45 39.5 94t44 98t44.5 94.5t41 83.5h-243v42h293v-31q-45 -91 -88 -189t-81 -192h-50z" />
    <glyph glyph-name="seven.pnum.oldstyle" horiz-adv-x="491" 
d="M134 -114q28 73 60.5 151.5t66.5 156t67 151t63 136.5h-371v53h431v-40q-68 -149 -132 -302.5t-122 -305.5h-63z" />
    <glyph glyph-name="seven.oldstyle" horiz-adv-x="553" 
d="M174 -114q28 73 61 151.5t67 156.5t67.5 151t63.5 136h-383v53h444v-40q-68 -149 -133.5 -302.5t-123.5 -305.5h-63z" />
    <glyph glyph-name="six.dnom" 
d="M86 193q13 31 45 53.5t78 22.5q27 0 52 -8t43.5 -24.5t29.5 -41.5t11 -59q0 -35 -11.5 -62t-31 -45.5t-46.5 -28t-57 -9.5q-28 0 -56 9t-51 31.5t-37.5 61t-14.5 96.5q0 64 16.5 108.5t43 72t60.5 39.5t69 12q26 0 52.5 -6t45.5 -20v-51h-4q-20 20 -45 27.5t-48 7.5
q-37 0 -64 -14t-44 -39t-26 -59t-10 -74zM93 138q1 -11 2.5 -21t5.5 -19q10 -27 34.5 -46t60.5 -19q20 0 38 6t32 18t22 31t8 45q0 49 -27 72.5t-68 23.5q-23 0 -42 -7.5t-32.5 -20.5t-22 -29t-11.5 -34z" />
    <glyph glyph-name="six.numr" 
d="M86 446q13 31 45 53.5t78 22.5q27 0 52 -8t43.5 -24.5t29.5 -41.5t11 -59q0 -35 -11.5 -62t-31 -45.5t-46.5 -28t-57 -9.5q-28 0 -56 9t-51 31.5t-37.5 61t-14.5 96.5q0 64 16.5 108.5t43 72t60.5 39.5t69 12q26 0 52.5 -6t45.5 -20v-51h-4q-20 20 -45 27.5t-48 7.5
q-37 0 -64 -14t-44 -39t-26 -59t-10 -74zM93 391q1 -11 2.5 -21t5.5 -19q10 -27 34.5 -46t60.5 -19q20 0 38 6t32 18t22 31t8 45q0 49 -27 72.5t-68 23.5q-23 0 -42 -7.5t-32.5 -20.5t-22 -29t-11.5 -34z" />
    <glyph glyph-name="sterling.dnom" horiz-adv-x="389" 
d="M43 0v30q49 25 66 52t17 51q0 22 -9 42h-63v33h53q-8 23 -14.5 46t-6.5 46q0 54 38 87.5t113 33.5q29 0 57.5 -8t47.5 -22v-50h-4q-20 19 -47 28.5t-53 9.5q-29 0 -48.5 -6t-31.5 -17t-17 -26t-5 -32q0 -19 6.5 -42.5t15.5 -47.5h138v-33h-130q7 -21 7 -44
q0 -20 -12.5 -44.5t-44.5 -44.5h242v-42h-315z" />
    <glyph glyph-name="sterling.numr" horiz-adv-x="389" 
d="M43 253v30q49 25 66 52t17 51q0 22 -9 42h-63v33h53q-8 23 -14.5 46t-6.5 46q0 54 38 87.5t113 33.5q29 0 57.5 -8t47.5 -22v-50h-4q-20 19 -47 28.5t-53 9.5q-29 0 -48.5 -6t-31.5 -17t-17 -26t-5 -32q0 -19 6.5 -42.5t15.5 -47.5h138v-33h-130q7 -21 7 -44
q0 -20 -12.5 -44.5t-44.5 -44.5h242v-42h-315z" />
    <glyph glyph-name="sterling.oldstyle" horiz-adv-x="567" 
d="M84 0v37q35 18 58.5 38t37 40t19 40t5.5 38q0 36 -12 65h-92v44h80q-13 33 -23 67t-10 68q0 39 13 72.5t39.5 57.5t66 37.5t93.5 13.5q42 0 82 -12t67 -36v-62h-4q-29 29 -67.5 43.5t-78.5 14.5q-47 0 -77 -10.5t-47 -28t-24 -40t-7 -47.5q0 -29 10.5 -64.5t24.5 -73.5
h205v-44h-195q10 -34 10 -68q0 -32 -18.5 -70t-67.5 -69h359v-51h-447z" />
    <glyph glyph-name="three.dnom" 
d="M48 79h4q23 -23 55 -34t63 -11t51.5 7.5t31.5 19.5t15.5 27t4.5 29q0 20 -14 39.5t-45 27.5q-12 3 -29.5 5t-36.5 2h-18v40h18q26 0 44.5 4t29.5 10q16 8 27 24t11 40q0 27 -19 48t-66 21q-12 0 -27 -3t-31 -9t-30.5 -16t-25.5 -24h-4v49q20 20 54 32.5t69 12.5
q64 0 96.5 -28.5t32.5 -80.5q0 -32 -20.5 -58.5t-56.5 -38.5q40 -7 65.5 -31.5t25.5 -65.5q0 -60 -41.5 -93t-111.5 -33q-32 0 -65.5 9t-56.5 28v51z" />
    <glyph glyph-name="three.pnum" horiz-adv-x="529" 
d="M41 113h4q35 -38 85 -56t97 -18q53 0 86 14t52 36t25.5 47.5t6.5 49.5q0 17 -6 35t-18 34.5t-31 29.5t-45 20q-18 5 -45.5 8t-56.5 3h-28v51h29q42 0 70.5 6t46.5 16q25 14 44 41.5t19 71.5q0 22 -6.5 44.5t-23 40t-43.5 28.5t-67 11q-18 0 -42 -5.5t-49 -16t-47.5 -27
t-38.5 -38.5h-4v63q14 16 35 30t46 24t51.5 16t52.5 6q96 0 145.5 -45.5t49.5 -129.5q0 -54 -31 -97t-86 -61q29 -5 54.5 -17.5t44 -32.5t29 -47t10.5 -60q0 -48 -16 -85.5t-46 -63.5t-72.5 -39.5t-94.5 -13.5q-25 0 -51 4t-50.5 11.5t-46.5 19t-38 26.5v66z" />
    <glyph glyph-name="three.numr" 
d="M48 332h4q23 -23 55 -34t63 -11t51.5 7.5t31.5 19.5t15.5 27t4.5 29q0 20 -14 39.5t-45 27.5q-12 3 -29.5 5t-36.5 2h-18v40h18q26 0 44.5 4t29.5 10q16 8 27 24t11 40q0 27 -19 48t-66 21q-12 0 -27 -3t-31 -9t-30.5 -16t-25.5 -24h-4v49q20 20 54 32.5t69 12.5
q64 0 96.5 -28.5t32.5 -80.5q0 -32 -20.5 -58.5t-56.5 -38.5q40 -7 65.5 -31.5t25.5 -65.5q0 -60 -41.5 -93t-111.5 -33q-32 0 -65.5 9t-56.5 28v51z" />
    <glyph glyph-name="three.pnum.oldstyle" horiz-adv-x="526" 
d="M54 2h4q16 -19 37.5 -32t44.5 -21.5t47 -12.5t46 -4q50 0 81.5 13t49 33t24 44.5t6.5 47.5q0 16 -5.5 34.5t-17 35t-29 30t-42.5 20.5q-17 5 -44 8t-53 3h-28v49h28q41 0 68.5 5t44.5 15q23 13 41 40t18 69q0 21 -6.5 41.5t-21.5 37.5t-41 27.5t-65 10.5q-18 0 -41 -5
t-46.5 -15t-45.5 -25.5t-37 -36.5h-4v61q28 32 77.5 53t101.5 21q91 0 139 -45.5t48 -123.5q0 -51 -29 -93t-83 -59q28 -5 52 -18t42 -33t28 -47t10 -58q0 -92 -59.5 -142.5t-160.5 -50.5q-48 0 -97.5 14.5t-81.5 43.5v65z" />
    <glyph glyph-name="three.oldstyle" horiz-adv-x="553" 
d="M83 2h4q16 -19 37.5 -32t44.5 -21.5t47 -12.5t46 -4q50 0 81.5 13t49 33t24 44.5t6.5 47.5q0 16 -5.5 34.5t-17 35t-29 30t-42.5 20.5q-17 5 -44 8t-53 3h-28v49h28q41 0 68.5 5t44.5 15q23 13 41 40t18 69q0 21 -6.5 41.5t-21.5 37.5t-41 27.5t-65 10.5q-18 0 -41 -5
t-46.5 -15t-45.5 -25.5t-37 -36.5h-4v61q28 32 77.5 53t101.5 21q91 0 139 -45.5t48 -123.5q0 -51 -29 -93t-83 -59q28 -5 52 -18t42 -33t28 -47t10 -58q0 -92 -59.5 -142.5t-160.5 -50.5q-48 0 -97.5 14.5t-81.5 43.5v65z" />
    <glyph glyph-name="three_fraction_five.frac" horiz-adv-x="847" 
d="M247 -12l337 694h43l-336 -694h-44zM61 332h4q23 -23 55 -34t63 -11t51.5 7.5t31.5 19.5t15.5 27t4.5 29q0 20 -14 39.5t-45 27.5q-12 3 -29.5 5t-36.5 2h-18v40h18q26 0 44.5 4t29.5 10q16 8 27 24t11 40q0 27 -19 48t-66 21q-12 0 -27 -3t-31 -9t-30.5 -16t-25.5 -24
h-4v49q20 20 54 32.5t69 12.5q64 0 96.5 -28.5t32.5 -80.5q0 -32 -20.5 -58.5t-56.5 -38.5q40 -7 65.5 -31.5t25.5 -65.5q0 -60 -41.5 -93t-111.5 -33q-32 0 -65.5 9t-56.5 28v51zM515 77h4q28 -23 60 -33t60 -10q57 0 84.5 26t27.5 71t-27.5 66t-78.5 21q-32 0 -60 -11
t-46 -25h-4l24 230h219v-42h-182l-14 -131q13 8 36.5 14.5t47.5 6.5q27 0 51.5 -7t43 -22.5t29.5 -39t11 -56.5q0 -37 -13 -64t-35 -44.5t-52 -26t-64 -8.5q-28 0 -60.5 7.5t-61.5 27.5v50z" />
    <glyph glyph-name="glyph455" horiz-adv-x="210" 
d="M-56 755q5 57 31.5 83t61.5 26q19 0 36 -7.5t41 -24.5q21 -14 36.5 -21.5t28.5 -7.5q17 0 28 13t15 48h44q-2 -30 -10 -51t-20.5 -35t-28 -20.5t-30.5 -6.5q-21 0 -38 7.5t-45 25.5q-23 14 -36 21t-24 7q-35 0 -44 -57h-46z" />
    <glyph glyph-name="two.dnom" 
d="M32 0v27q43 35 87 72.5t83 75.5q32 32 46.5 63t14.5 57q0 16 -5.5 31t-16.5 26.5t-29 18.5t-43 7q-32 0 -64.5 -14.5t-57.5 -44.5h-4v49q23 26 59 39.5t71 13.5q69 0 104 -33.5t35 -87.5q0 -42 -18.5 -74.5t-43.5 -60.5q-9 -10 -27 -26t-39 -34t-42 -35t-37 -29
q24 0 47.5 0.5t50.5 0.5h58.5h72.5v-42h-302z" />
    <glyph glyph-name="two.pnum" horiz-adv-x="548" 
d="M43 0v32q68 59 138.5 121.5t130.5 125.5q52 54 74.5 106.5t22.5 95.5q0 27 -8 53.5t-26.5 46.5t-48 32.5t-72.5 12.5q-50 0 -101.5 -25t-88.5 -73h-4v63q35 41 89.5 64.5t107.5 23.5q103 0 157 -53.5t54 -140.5q0 -34 -8 -64t-21 -57t-30.5 -51.5t-36.5 -46.5
q-14 -16 -43.5 -44.5t-64 -59.5t-69.5 -61t-60 -49q38 0 74.5 0.5t79 0.5h94h119.5v-53h-459z" />
    <glyph glyph-name="two.numr" 
d="M32 253v27q43 35 87 72.5t83 75.5q32 32 46.5 63t14.5 57q0 16 -5.5 31t-16.5 26.5t-29 18.5t-43 7q-32 0 -64.5 -14.5t-57.5 -44.5h-4v49q24 26 59.5 39.5t70.5 13.5q69 0 104 -33.5t35 -87.5q0 -42 -18.5 -74.5t-43.5 -60.5q-9 -10 -27 -26t-39 -34t-42 -35t-37 -29
q24 0 47.5 0.5t50.5 0.5h58.5h72.5v-42h-302z" />
    <glyph glyph-name="two.pnum.oldstyle" horiz-adv-x="532" 
d="M40 0v32q64 42 130 86t123 95q49 44 70 85.5t21 76.5q0 21 -5.5 43t-20.5 39t-41.5 28t-68.5 11q-53 0 -104 -27.5t-83 -72.5h-4v62q15 20 36.5 36.5t47.5 28.5t54 19t56 7q51 0 87 -13t59.5 -36t34 -54t10.5 -67q0 -57 -25 -101.5t-63 -81.5q-14 -14 -38 -32.5
t-51.5 -38t-57 -39t-55.5 -35.5q36 0 67.5 0.5t67 0.5h80.5h110v-52h-437z" />
    <glyph glyph-name="two.oldstyle" horiz-adv-x="553" 
d="M61 0v32q65 42 130.5 86t123.5 95q49 44 69.5 85.5t20.5 76.5q0 21 -5.5 43t-20.5 39t-41.5 28t-68.5 11q-53 0 -103.5 -27.5t-83.5 -72.5h-4v62q15 19 37 36t47.5 29t54 19t56.5 7q51 0 87 -13t59 -36t34 -54t11 -67q0 -57 -25.5 -101t-63.5 -82q-14 -14 -38 -32.5
t-51.5 -38t-57 -39t-54.5 -35.5q36 0 67 0.5t66.5 0.5h80.5h110v-52h-437z" />
    <glyph glyph-name="two_fraction_five.frac" horiz-adv-x="847" 
d="M264 -12l337 694h43l-336 -694h-44zM38 253v27q43 35 87 72.5t83 75.5q32 32 46.5 63t14.5 57q0 16 -5.5 31t-16.5 26.5t-29 18.5t-43 7q-32 0 -64.5 -14.5t-57.5 -44.5h-4v49q24 26 59.5 39.5t70.5 13.5q69 0 104 -33.5t35 -87.5q0 -42 -18.5 -74.5t-43.5 -60.5
q-9 -10 -27 -26t-39 -34t-42 -35t-37 -29q24 0 47.5 0.5t50.5 0.5h58.5h72.5v-42h-302zM533 77h4q28 -23 60 -33t60 -10q57 0 84.5 26t27.5 71t-27.5 66t-78.5 21q-32 0 -60 -11t-46 -25h-4l24 230h219v-42h-182l-14 -131q13 8 36.5 14.5t47.5 6.5q27 0 51.5 -7t43 -22.5
t29.5 -39t11 -56.5q0 -37 -13 -64t-35 -44.5t-52 -26t-64 -8.5q-28 0 -60.5 7.5t-61.5 27.5v50z" />
    <glyph glyph-name="yen.dnom" horiz-adv-x="405" 
d="M178 0v130h-122v27h122v8l-32 47h-90v27h72l-115 170h58q36 -53 58.5 -86t36.5 -54.5t22 -34.5t15 -25q8 12 16 24.5t22 33.5t36.5 54.5t59.5 87.5h56l-118 -170h77v-27h-95l-32 -47v-8h127v-27h-127v-130h-47z" />
    <glyph glyph-name="yen.numr" horiz-adv-x="405" 
d="M178 253v130h-122v27h122v8l-32 47h-90v27h72l-115 170h58q36 -53 58.5 -86t36.5 -54.5t22 -34.5t15 -25q8 12 16 24.5t22 33.5t36.5 54.5t59.5 87.5h56l-118 -170h77v-27h-95l-32 -47v-8h127v-27h-127v-130h-47z" />
    <glyph glyph-name="yen.oldstyle" horiz-adv-x="602" 
d="M270 0v191h-188v36h188v15l-49 74h-139v36h115l-176 252h69q58 -86 94.5 -138.5t58.5 -84.5t34 -50.5t23 -36.5l24 36t33.5 49.5t58 84t96.5 140.5h69l-181 -252h122v-36h-145l-51 -74v-15h196v-36h-196v-191h-56z" />
    <glyph glyph-name="zero.dnom" 
d="M357 206q0 -100 -44 -157t-118 -57q-75 0 -118 57t-43 157q0 49 12 89t34 68t51.5 43t65.5 15q75 0 117.5 -58t42.5 -157zM309 207q0 82 -30.5 127t-82.5 45t-83 -45t-31 -127q0 -83 31 -128t83 -45t82.5 45t30.5 128z" />
    <glyph glyph-name="zero.pnum" horiz-adv-x="570" 
d="M530 332q0 -79 -17.5 -143t-49.5 -109t-77.5 -69t-101.5 -24q-57 0 -102 24t-76.5 69t-48.5 109t-17 143t18 143t50.5 109.5t78 70t100.5 24.5q57 0 102.5 -24.5t76.5 -70t47.5 -109.5t16.5 -143zM471 334q0 140 -49.5 216.5t-135.5 76.5t-136.5 -77t-50.5 -216
q0 -69 13 -124t37.5 -93t59 -58t77.5 -20t77 20t58 58t37 93t13 124z" />
    <glyph glyph-name="zero.numr" 
d="M357 459q0 -100 -44 -157t-118 -57q-75 0 -118 57t-43 157q0 49 12 89t34 68t51.5 43t65.5 15q75 0 117.5 -58t42.5 -157zM309 460q0 82 -30.5 127t-82.5 45t-83 -45t-31 -127q0 -83 31 -128t83 -45t82.5 45t30.5 128z" />
    <glyph glyph-name="zero.pnum.oldstyle" horiz-adv-x="569" 
d="M528 273q0 -79 -21.5 -134t-56 -89t-78.5 -49t-89 -15q-44 0 -87.5 16t-78 50t-55.5 87t-21 127q0 75 23 129t58.5 88t79 50t85.5 16q46 0 89.5 -15.5t77.5 -49t54 -86t20 -125.5zM470 270q0 60 -15.5 103t-41.5 70.5t-59.5 40.5t-68.5 13q-33 0 -66.5 -13t-60 -41
t-43 -71t-16.5 -104q0 -67 18 -111t46 -70.5t60.5 -37.5t61.5 -11q34 0 67.5 12t59.5 39t42 71.5t16 109.5z" />
    <glyph glyph-name="zero.oldstyle" horiz-adv-x="553" 
d="M520 274q0 -76 -21 -130.5t-55 -89.5t-78.5 -51.5t-90.5 -16.5q-45 0 -88.5 17t-77.5 51.5t-54.5 87t-20.5 123.5q0 70 22 123t57 89t79 54t89 18q47 0 90.5 -17.5t76.5 -52t52.5 -86t19.5 -119.5zM461 268q0 54 -14 96.5t-39 71.5t-58 44.5t-71 15.5q-35 0 -68.5 -15
t-59.5 -43.5t-42 -71.5t-16 -98q0 -63 17 -106.5t43.5 -70.5t59.5 -39.5t65 -12.5q37 0 70 13t58 40.5t40 71t15 104.5z" />
    <glyph glyph-name="period.superior" horiz-adv-x="131" 
d="M107 427q0 -16 -10 -25t-24 -9q-15 0 -25 9t-10 25q0 17 10.5 26t24.5 9q12 0 23 -8.5t11 -26.5z" />
    <glyph glyph-name="comma.superior" horiz-adv-x="131" 
d="M-1 302v4q25 18 41 48t16 68q0 29 -10 53h49q5 -11 7 -24t2 -25q0 -41 -19.5 -73.5t-44.5 -50.5h-41z" />
    <glyph glyph-name="hyphen.superior" horiz-adv-x="208" 
d="M26 549v40h156v-40h-156z" />
    <glyph glyph-name="dollar.superior" horiz-adv-x="363" 
d="M172 331v64q-38 1 -75.5 14.5t-59.5 33.5v54h4q23 -26 58 -40.5t73 -16.5v144l-40 13q-47 14 -68 41.5t-21 62.5q0 48 32.5 78t96.5 35v62h28v-61q32 -2 65 -12.5t47 -24.5v-51h-4q-20 20 -49.5 31t-58.5 13v-147l32 -9q51 -15 76 -39t25 -66q0 -43 -30 -76t-103 -38v-65
h-28zM283 505q0 25 -18.5 40.5t-64.5 29.5v-135q46 3 64.5 20t18.5 45zM93 704q0 -22 14 -38.5t55 -29.5l10 -3v138q-23 -2 -38.5 -8t-24.5 -15t-12.5 -20.5t-3.5 -23.5z" />
    <glyph glyph-name="cent.superior" horiz-adv-x="352" 
d="M191 332v65q-30 3 -55.5 14t-44.5 30t-30 46.5t-11 63.5q0 33 10.5 60.5t29 47.5t44.5 33t57 16v64h27v-63q29 -1 55.5 -8.5t40.5 -21.5v-47h-4q-16 17 -41.5 26.5t-50.5 10.5v-232q59 2 94 38h4v-45q-17 -14 -42.5 -23.5t-55.5 -10.5v-64h-27zM95 553q0 -27 8 -47.5
t21.5 -34.5t31 -22t35.5 -11v229q-39 -5 -67.5 -32.5t-28.5 -81.5z" />
    <glyph glyph-name="sterling.superior" horiz-adv-x="389" 
d="M43 400v30q49 25 66 52t17 51q0 22 -9 42h-63v33h53q-8 23 -14.5 46t-6.5 46q0 54 38 87.5t113 33.5q29 0 57.5 -8t47.5 -22v-50h-4q-20 19 -47 28.5t-53 9.5q-29 0 -48.5 -6t-31.5 -17t-17 -26t-5 -32q0 -19 6.5 -42.5t15.5 -47.5h138v-33h-130q7 -21 7 -44
q0 -20 -12.5 -44.5t-44.5 -44.5h242v-42h-315z" />
    <glyph glyph-name="yen.superior" horiz-adv-x="405" 
d="M178 400v130h-122v27h122v8l-32 47h-90v27h72l-115 170h58q36 -53 58.5 -86t36.5 -54.5t22 -34.5t15 -25q8 12 16 24.5t22 33.5t36.5 54.5t59.5 87.5h56l-118 -170h77v-27h-95l-32 -47v-8h127v-27h-127v-130h-47z" />
    <glyph glyph-name="Euro.superior" horiz-adv-x="424" 
d="M138 549q14 -64 54.5 -89t94.5 -25q34 0 61 10.5t51 30.5h4v-46q-20 -17 -53 -28t-71 -11q-79 0 -127.5 40.5t-62.5 117.5h-54v27h50q-1 8 -1 15.5v15.5v12t1 12h-50v27h53q7 40 24.5 70.5t43.5 51t58.5 31t70.5 10.5q34 0 65 -8.5t50 -25.5v-50h-4q-19 20 -49.5 31
t-59.5 11q-56 0 -97.5 -28t-53.5 -93h181v-27h-185v-22v-17t1 -16h184v-27h-179z" />
    <glyph glyph-name="florin.superior" horiz-adv-x="300" 
d="M2 372h4q8 -7 20 -10.5t21 -3.5q16 0 27 4.5t17 16.5q3 6 5 17t4 23l21 208h-60v33h62l6 58q2 21 8.5 40t18.5 33q25 30 75 30q17 0 33 -4t24 -11v-44h-4q-11 9 -24.5 12.5t-24.5 3.5t-21.5 -3t-18.5 -11q-7 -7 -12 -18.5t-7 -32.5l-5 -53h74v-33h-77l-20 -214
q-2 -16 -4.5 -29.5t-9.5 -26.5q-22 -41 -82 -41q-14 0 -28 3.5t-22 8.5v44z" />
    <glyph glyph-name="period.sinf" horiz-adv-x="131" 
d="M107 -100q0 -16 -10 -25t-24 -9q-15 0 -25 9t-10 25q0 17 10.5 26t24.5 9q12 0 23 -8.5t11 -26.5z" />
    <glyph glyph-name="comma.sinf" horiz-adv-x="131" 
d="M-1 -225v4q25 18 41 48t16 68q0 29 -10 53h49q5 -11 7 -24t2 -25q0 -41 -19.5 -73.5t-44.5 -50.5h-41z" />
    <glyph glyph-name="hyphen.sinf" horiz-adv-x="208" 
d="M26 22v40h156v-40h-156z" />
    </font>
</defs>
</svg>
